%TF.GenerationSoftware,KiCad,Pcbnew,8.0.4-8.0.4-0~ubuntu22.04.1*%
%TF.CreationDate,2024-08-07T11:40:49-06:00*%
%TF.ProjectId,Sprinkler Controller,53707269-6e6b-46c6-9572-20436f6e7472,rev?*%
%TF.SameCoordinates,Original*%
%TF.FileFunction,Copper,L1,Top*%
%TF.FilePolarity,Positive*%
%FSLAX46Y46*%
G04 Gerber Fmt 4.6, Leading zero omitted, Abs format (unit mm)*
G04 Created by KiCad (PCBNEW 8.0.4-8.0.4-0~ubuntu22.04.1) date 2024-08-07 11:40:49*
%MOMM*%
%LPD*%
G01*
G04 APERTURE LIST*
G04 Aperture macros list*
%AMRoundRect*
0 Rectangle with rounded corners*
0 $1 Rounding radius*
0 $2 $3 $4 $5 $6 $7 $8 $9 X,Y pos of 4 corners*
0 Add a 4 corners polygon primitive as box body*
4,1,4,$2,$3,$4,$5,$6,$7,$8,$9,$2,$3,0*
0 Add four circle primitives for the rounded corners*
1,1,$1+$1,$2,$3*
1,1,$1+$1,$4,$5*
1,1,$1+$1,$6,$7*
1,1,$1+$1,$8,$9*
0 Add four rect primitives between the rounded corners*
20,1,$1+$1,$2,$3,$4,$5,0*
20,1,$1+$1,$4,$5,$6,$7,0*
20,1,$1+$1,$6,$7,$8,$9,0*
20,1,$1+$1,$8,$9,$2,$3,0*%
G04 Aperture macros list end*
%TA.AperFunction,ComponentPad*%
%ADD10C,2.133600*%
%TD*%
%TA.AperFunction,SMDPad,CuDef*%
%ADD11RoundRect,0.250000X-0.625000X0.312500X-0.625000X-0.312500X0.625000X-0.312500X0.625000X0.312500X0*%
%TD*%
%TA.AperFunction,SMDPad,CuDef*%
%ADD12RoundRect,0.250000X-0.450000X0.262500X-0.450000X-0.262500X0.450000X-0.262500X0.450000X0.262500X0*%
%TD*%
%TA.AperFunction,SMDPad,CuDef*%
%ADD13RoundRect,0.147500X0.172500X-0.147500X0.172500X0.147500X-0.172500X0.147500X-0.172500X-0.147500X0*%
%TD*%
%TA.AperFunction,SMDPad,CuDef*%
%ADD14RoundRect,0.225000X-0.250000X0.225000X-0.250000X-0.225000X0.250000X-0.225000X0.250000X0.225000X0*%
%TD*%
%TA.AperFunction,SMDPad,CuDef*%
%ADD15RoundRect,0.140000X-0.170000X0.140000X-0.170000X-0.140000X0.170000X-0.140000X0.170000X0.140000X0*%
%TD*%
%TA.AperFunction,SMDPad,CuDef*%
%ADD16RoundRect,0.225000X0.250000X-0.225000X0.250000X0.225000X-0.250000X0.225000X-0.250000X-0.225000X0*%
%TD*%
%TA.AperFunction,ComponentPad*%
%ADD17R,2.000000X2.000000*%
%TD*%
%TA.AperFunction,ComponentPad*%
%ADD18C,2.000000*%
%TD*%
%TA.AperFunction,SMDPad,CuDef*%
%ADD19RoundRect,0.200000X-0.200000X0.300000X-0.200000X-0.300000X0.200000X-0.300000X0.200000X0.300000X0*%
%TD*%
%TA.AperFunction,SMDPad,CuDef*%
%ADD20RoundRect,0.250000X0.300000X-2.050000X0.300000X2.050000X-0.300000X2.050000X-0.300000X-2.050000X0*%
%TD*%
%TA.AperFunction,SMDPad,CuDef*%
%ADD21RoundRect,0.250000X2.375000X-2.025000X2.375000X2.025000X-2.375000X2.025000X-2.375000X-2.025000X0*%
%TD*%
%TA.AperFunction,SMDPad,CuDef*%
%ADD22RoundRect,0.250002X5.149998X-4.449998X5.149998X4.449998X-5.149998X4.449998X-5.149998X-4.449998X0*%
%TD*%
%TA.AperFunction,ComponentPad*%
%ADD23R,2.600000X2.600000*%
%TD*%
%TA.AperFunction,ComponentPad*%
%ADD24C,2.600000*%
%TD*%
%TA.AperFunction,ComponentPad*%
%ADD25R,2.400000X2.400000*%
%TD*%
%TA.AperFunction,ComponentPad*%
%ADD26C,2.400000*%
%TD*%
%TA.AperFunction,SMDPad,CuDef*%
%ADD27R,2.300000X1.350000*%
%TD*%
%TA.AperFunction,SMDPad,CuDef*%
%ADD28R,3.175000X3.300000*%
%TD*%
%TA.AperFunction,SMDPad,CuDef*%
%ADD29R,0.700000X1.505000*%
%TD*%
%TA.AperFunction,SMDPad,CuDef*%
%ADD30RoundRect,0.250000X-1.000000X-0.650000X1.000000X-0.650000X1.000000X0.650000X-1.000000X0.650000X0*%
%TD*%
%TA.AperFunction,ComponentPad*%
%ADD31C,1.524000*%
%TD*%
%TA.AperFunction,ComponentPad*%
%ADD32R,1.524000X1.524000*%
%TD*%
%TA.AperFunction,ViaPad*%
%ADD33C,5.080000*%
%TD*%
%TA.AperFunction,ViaPad*%
%ADD34C,1.016000*%
%TD*%
%TA.AperFunction,Conductor*%
%ADD35C,1.016000*%
%TD*%
%TA.AperFunction,Conductor*%
%ADD36C,0.635000*%
%TD*%
%TA.AperFunction,Conductor*%
%ADD37C,1.270000*%
%TD*%
%TA.AperFunction,Conductor*%
%ADD38C,0.560800*%
%TD*%
%TA.AperFunction,Conductor*%
%ADD39C,0.889000*%
%TD*%
G04 APERTURE END LIST*
D10*
%TO.P,RV1,1,1*%
%TO.N,Net-(C4-Pad2)*%
X142000000Y-105040000D03*
%TO.P,RV1,2,2*%
%TO.N,Net-(U12-FB)*%
X142000000Y-102500000D03*
%TO.P,RV1,3,3*%
%TO.N,VCC*%
X142000000Y-99960000D03*
%TD*%
D11*
%TO.P,R2,1*%
%TO.N,VCC*%
X146000000Y-98537500D03*
%TO.P,R2,2*%
%TO.N,Net-(D2-A)*%
X146000000Y-101462500D03*
%TD*%
D12*
%TO.P,R1,1*%
%TO.N,Net-(C4-Pad2)*%
X137000000Y-104500000D03*
%TO.P,R1,2*%
%TO.N,GND*%
X137000000Y-106325000D03*
%TD*%
D13*
%TO.P,D12,1,K*%
%TO.N,Net-(D12-K)*%
X207000000Y-130500000D03*
%TO.P,D12,2,A*%
%TO.N,Net-(D12-A)*%
X207000000Y-129530000D03*
%TD*%
%TO.P,D11,1,K*%
%TO.N,Net-(D11-K)*%
X202000000Y-130500000D03*
%TO.P,D11,2,A*%
%TO.N,Net-(D11-A)*%
X202000000Y-129530000D03*
%TD*%
%TO.P,D10,1,K*%
%TO.N,Net-(D10-K)*%
X197000000Y-130500000D03*
%TO.P,D10,2,A*%
%TO.N,Net-(D10-A)*%
X197000000Y-129530000D03*
%TD*%
%TO.P,D9,1,K*%
%TO.N,Net-(D9-K)*%
X192000000Y-130470000D03*
%TO.P,D9,2,A*%
%TO.N,Net-(D9-A)*%
X192000000Y-129500000D03*
%TD*%
%TO.P,D8,1,K*%
%TO.N,Net-(D8-K)*%
X187000000Y-130500000D03*
%TO.P,D8,2,A*%
%TO.N,Net-(D8-A)*%
X187000000Y-129530000D03*
%TD*%
%TO.P,D7,1,K*%
%TO.N,Net-(D7-K)*%
X182000000Y-130485000D03*
%TO.P,D7,2,A*%
%TO.N,Net-(D7-A)*%
X182000000Y-129515000D03*
%TD*%
%TO.P,D6,1,K*%
%TO.N,Net-(D6-K)*%
X177000000Y-130470000D03*
%TO.P,D6,2,A*%
%TO.N,Net-(D6-A)*%
X177000000Y-129500000D03*
%TD*%
%TO.P,D5,1,K*%
%TO.N,Net-(D5-K)*%
X172000000Y-130470000D03*
%TO.P,D5,2,A*%
%TO.N,Net-(D5-A)*%
X172000000Y-129500000D03*
%TD*%
%TO.P,D4,1,K*%
%TO.N,Net-(D4-K)*%
X167000000Y-130470000D03*
%TO.P,D4,2,A*%
%TO.N,Net-(D4-A)*%
X167000000Y-129500000D03*
%TD*%
%TO.P,D3,1,K*%
%TO.N,Net-(D3-K)*%
X162000000Y-130485000D03*
%TO.P,D3,2,A*%
%TO.N,Net-(D3-A)*%
X162000000Y-129515000D03*
%TD*%
%TO.P,D2,1,K*%
%TO.N,GND*%
X146000000Y-106000000D03*
%TO.P,D2,2,A*%
%TO.N,Net-(D2-A)*%
X146000000Y-105030000D03*
%TD*%
D14*
%TO.P,C5,1*%
%TO.N,VCC*%
X138000000Y-98225000D03*
%TO.P,C5,2*%
%TO.N,GND*%
X138000000Y-99775000D03*
%TD*%
D15*
%TO.P,C4,1*%
%TO.N,VCC*%
X136500000Y-98000000D03*
%TO.P,C4,2*%
%TO.N,Net-(C4-Pad2)*%
X136500000Y-98960000D03*
%TD*%
D16*
%TO.P,C3,1*%
%TO.N,Net-(BR1-+)*%
X123500000Y-105000000D03*
%TO.P,C3,2*%
%TO.N,GND*%
X123500000Y-103450000D03*
%TD*%
D17*
%TO.P,C2,1*%
%TO.N,VCC*%
X152500000Y-99632300D03*
D18*
%TO.P,C2,2*%
%TO.N,GND*%
X152500000Y-104632300D03*
%TD*%
D19*
%TO.P,U2,1,Input+*%
%TO.N,Net-(D3-K)*%
X162040000Y-132500000D03*
%TO.P,U2,2,Input-*%
%TO.N,GND*%
X159500000Y-132500000D03*
%TO.P,U2,3,Output+*%
%TO.N,AC*%
X162040000Y-138750000D03*
%TO.P,U2,4,Output-*%
%TO.N,Net-(J2-Pin_1)*%
X159500000Y-138750000D03*
%TD*%
%TO.P,U11,1,Input+*%
%TO.N,Net-(D12-K)*%
X207040000Y-132500000D03*
%TO.P,U11,2,Input-*%
%TO.N,GND*%
X204500000Y-132500000D03*
%TO.P,U11,3,Output+*%
%TO.N,AC*%
X207040000Y-138750000D03*
%TO.P,U11,4,Output-*%
%TO.N,Net-(J2-Pin_10)*%
X204500000Y-138750000D03*
%TD*%
D20*
%TO.P,U12,1,VIN*%
%TO.N,Net-(BR1-+)*%
X126700000Y-97775000D03*
%TO.P,U12,2,OUT*%
%TO.N,Net-(D1-K)*%
X128400000Y-97775000D03*
%TO.P,U12,3,GND*%
%TO.N,GND*%
X130100000Y-97775000D03*
D21*
X127325000Y-91050000D03*
X132875000Y-91050000D03*
D22*
X130100000Y-88625000D03*
D21*
X127325000Y-86200000D03*
X132875000Y-86200000D03*
D20*
%TO.P,U12,4,FB*%
%TO.N,Net-(U12-FB)*%
X131800000Y-97775000D03*
%TO.P,U12,5,~{ON}/OFF*%
%TO.N,GND*%
X133500000Y-97775000D03*
%TD*%
D23*
%TO.P,J1,1,Pin_1*%
%TO.N,AC*%
X103980000Y-87000000D03*
D24*
%TO.P,J1,2,Pin_2*%
%TO.N,GNDPWR*%
X103980000Y-92000000D03*
%TD*%
D23*
%TO.P,J2,1,Pin_1*%
%TO.N,Net-(J2-Pin_1)*%
X159000000Y-146500000D03*
D24*
%TO.P,J2,2,Pin_2*%
%TO.N,Net-(J2-Pin_2)*%
X164000000Y-146500000D03*
%TO.P,J2,3,Pin_3*%
%TO.N,Net-(J2-Pin_3)*%
X169000000Y-146500000D03*
%TO.P,J2,4,Pin_4*%
%TO.N,Net-(J2-Pin_4)*%
X174000000Y-146500000D03*
%TO.P,J2,5,Pin_5*%
%TO.N,Net-(J2-Pin_5)*%
X179000000Y-146500000D03*
%TO.P,J2,6,Pin_6*%
%TO.N,Net-(J2-Pin_6)*%
X184000000Y-146500000D03*
%TO.P,J2,7,Pin_7*%
%TO.N,Net-(J2-Pin_7)*%
X189000000Y-146500000D03*
%TO.P,J2,8,Pin_8*%
%TO.N,Net-(J2-Pin_8)*%
X194000000Y-146500000D03*
%TO.P,J2,9,Pin_9*%
%TO.N,Net-(J2-Pin_9)*%
X199000000Y-146500000D03*
%TO.P,J2,10,Pin_10*%
%TO.N,Net-(J2-Pin_10)*%
X204000000Y-146500000D03*
%TO.P,J2,11,Pin_11*%
%TO.N,GNDPWR*%
X209000000Y-146500000D03*
%TD*%
D25*
%TO.P,C1,1*%
%TO.N,Net-(BR1-+)*%
X115000000Y-99275000D03*
D26*
%TO.P,C1,2*%
%TO.N,GND*%
X115000000Y-104275000D03*
%TD*%
D19*
%TO.P,U10,1,Input+*%
%TO.N,Net-(D11-K)*%
X202040000Y-132500000D03*
%TO.P,U10,2,Input-*%
%TO.N,GND*%
X199500000Y-132500000D03*
%TO.P,U10,3,Output+*%
%TO.N,AC*%
X202040000Y-138750000D03*
%TO.P,U10,4,Output-*%
%TO.N,Net-(J2-Pin_9)*%
X199500000Y-138750000D03*
%TD*%
D27*
%TO.P,BR1,1,+*%
%TO.N,Net-(BR1-+)*%
X120850000Y-91550000D03*
%TO.P,BR1,2,-*%
%TO.N,GND*%
X120850000Y-86450000D03*
%TO.P,BR1,3,~_1*%
%TO.N,AC*%
X111800000Y-86450000D03*
%TO.P,BR1,4,~_2*%
%TO.N,GNDPWR*%
X111800000Y-91550000D03*
%TD*%
D28*
%TO.P,L1,1,1*%
%TO.N,Net-(D1-K)*%
X139785000Y-89775000D03*
%TO.P,L1,2,2*%
%TO.N,VCC*%
X151215000Y-89775000D03*
%TD*%
D29*
%TO.P,RN1,1,1*%
%TO.N,unconnected-(RN1-Pad1)*%
X177445000Y-117952000D03*
%TO.P,RN1,2,2*%
%TO.N,Net-(U1-IO13)*%
X176175000Y-117952000D03*
%TO.P,RN1,3,3*%
%TO.N,Net-(U1-IO21)*%
X174905000Y-117952000D03*
%TO.P,RN1,4,4*%
%TO.N,Net-(U1-IO14)*%
X173635000Y-117952000D03*
%TO.P,RN1,5,5*%
%TO.N,Net-(U1-IO27)*%
X172365000Y-117952000D03*
%TO.P,RN1,6,6*%
%TO.N,Net-(U1-IO26)*%
X171095000Y-117952000D03*
%TO.P,RN1,7,7*%
%TO.N,unconnected-(RN1-Pad7)*%
X169825000Y-117952000D03*
%TO.P,RN1,8,8*%
%TO.N,unconnected-(RN1-Pad8)*%
X168555000Y-117952000D03*
%TO.P,RN1,9,9*%
%TO.N,unconnected-(RN1-Pad9)*%
X168555000Y-125048000D03*
%TO.P,RN1,10,10*%
%TO.N,unconnected-(RN1-Pad10)*%
X169825000Y-125048000D03*
%TO.P,RN1,11,11*%
%TO.N,Net-(D7-A)*%
X171095000Y-125048000D03*
%TO.P,RN1,12,12*%
%TO.N,Net-(D6-A)*%
X172365000Y-125048000D03*
%TO.P,RN1,13,13*%
%TO.N,Net-(D5-A)*%
X173635000Y-125048000D03*
%TO.P,RN1,14,14*%
%TO.N,Net-(D4-A)*%
X174905000Y-125048000D03*
%TO.P,RN1,15,15*%
%TO.N,Net-(D3-A)*%
X176175000Y-125048000D03*
%TO.P,RN1,16,16*%
%TO.N,unconnected-(RN1-Pad16)*%
X177445000Y-125048000D03*
%TD*%
D19*
%TO.P,U7,1,Input+*%
%TO.N,Net-(D8-K)*%
X187040000Y-132500000D03*
%TO.P,U7,2,Input-*%
%TO.N,GND*%
X184500000Y-132500000D03*
%TO.P,U7,3,Output+*%
%TO.N,AC*%
X187040000Y-138750000D03*
%TO.P,U7,4,Output-*%
%TO.N,Net-(J2-Pin_6)*%
X184500000Y-138750000D03*
%TD*%
%TO.P,U4,1,Input+*%
%TO.N,Net-(D5-K)*%
X172040000Y-132500000D03*
%TO.P,U4,2,Input-*%
%TO.N,GND*%
X169500000Y-132500000D03*
%TO.P,U4,3,Output+*%
%TO.N,AC*%
X172040000Y-138750000D03*
%TO.P,U4,4,Output-*%
%TO.N,Net-(J2-Pin_3)*%
X169500000Y-138750000D03*
%TD*%
%TO.P,U9,1,Input+*%
%TO.N,Net-(D10-K)*%
X197040000Y-132500000D03*
%TO.P,U9,2,Input-*%
%TO.N,GND*%
X194500000Y-132500000D03*
%TO.P,U9,3,Output+*%
%TO.N,AC*%
X197040000Y-138750000D03*
%TO.P,U9,4,Output-*%
%TO.N,Net-(J2-Pin_8)*%
X194500000Y-138750000D03*
%TD*%
%TO.P,U6,1,Input+*%
%TO.N,Net-(D7-K)*%
X182040000Y-132500000D03*
%TO.P,U6,2,Input-*%
%TO.N,GND*%
X179500000Y-132500000D03*
%TO.P,U6,3,Output+*%
%TO.N,AC*%
X182040000Y-138750000D03*
%TO.P,U6,4,Output-*%
%TO.N,Net-(J2-Pin_5)*%
X179500000Y-138750000D03*
%TD*%
%TO.P,U5,1,Input+*%
%TO.N,Net-(D6-K)*%
X177040000Y-132500000D03*
%TO.P,U5,2,Input-*%
%TO.N,GND*%
X174500000Y-132500000D03*
%TO.P,U5,3,Output+*%
%TO.N,AC*%
X177040000Y-138750000D03*
%TO.P,U5,4,Output-*%
%TO.N,Net-(J2-Pin_4)*%
X174500000Y-138750000D03*
%TD*%
%TO.P,U8,1,Input+*%
%TO.N,Net-(D9-K)*%
X192040000Y-132500000D03*
%TO.P,U8,2,Input-*%
%TO.N,GND*%
X189500000Y-132500000D03*
%TO.P,U8,3,Output+*%
%TO.N,AC*%
X192040000Y-138750000D03*
%TO.P,U8,4,Output-*%
%TO.N,Net-(J2-Pin_7)*%
X189500000Y-138750000D03*
%TD*%
D30*
%TO.P,D1,1,K*%
%TO.N,Net-(D1-K)*%
X129000000Y-103775000D03*
%TO.P,D1,2,A*%
%TO.N,GND*%
X133000000Y-103775000D03*
%TD*%
D19*
%TO.P,U3,1,Input+*%
%TO.N,Net-(D4-K)*%
X167040000Y-132500000D03*
%TO.P,U3,2,Input-*%
%TO.N,GND*%
X164500000Y-132500000D03*
%TO.P,U3,3,Output+*%
%TO.N,AC*%
X167040000Y-138750000D03*
%TO.P,U3,4,Output-*%
%TO.N,Net-(J2-Pin_2)*%
X164500000Y-138750000D03*
%TD*%
D29*
%TO.P,RN2,1,1*%
%TO.N,unconnected-(RN2-Pad1)*%
X201445000Y-117952000D03*
%TO.P,RN2,2,2*%
%TO.N,Net-(U1-IO25)*%
X200175000Y-117952000D03*
%TO.P,RN2,3,3*%
%TO.N,Net-(U1-IO33)*%
X198905000Y-117952000D03*
%TO.P,RN2,4,4*%
%TO.N,Net-(U1-IO32)*%
X197635000Y-117952000D03*
%TO.P,RN2,5,5*%
%TO.N,Net-(U1-IO19)*%
X196365000Y-117952000D03*
%TO.P,RN2,6,6*%
%TO.N,Net-(U1-IO18)*%
X195095000Y-117952000D03*
%TO.P,RN2,7,7*%
%TO.N,unconnected-(RN2-Pad7)*%
X193825000Y-117952000D03*
%TO.P,RN2,8,8*%
%TO.N,unconnected-(RN2-Pad8)*%
X192555000Y-117952000D03*
%TO.P,RN2,9,9*%
%TO.N,unconnected-(RN2-Pad9)*%
X192555000Y-125048000D03*
%TO.P,RN2,10,10*%
%TO.N,unconnected-(RN2-Pad10)*%
X193825000Y-125048000D03*
%TO.P,RN2,11,11*%
%TO.N,Net-(D12-A)*%
X195095000Y-125048000D03*
%TO.P,RN2,12,12*%
%TO.N,Net-(D11-A)*%
X196365000Y-125048000D03*
%TO.P,RN2,13,13*%
%TO.N,Net-(D10-A)*%
X197635000Y-125048000D03*
%TO.P,RN2,14,14*%
%TO.N,Net-(D9-A)*%
X198905000Y-125048000D03*
%TO.P,RN2,15,15*%
%TO.N,Net-(D8-A)*%
X200175000Y-125048000D03*
%TO.P,RN2,16,16*%
%TO.N,unconnected-(RN2-Pad16)*%
X201445000Y-125048000D03*
%TD*%
D31*
%TO.P,U1,30,IO23*%
%TO.N,unconnected-(U1-IO23-Pad30)*%
X164290000Y-84800000D03*
%TO.P,U1,29,IO22*%
%TO.N,unconnected-(U1-IO22-Pad29)*%
X166830000Y-84800000D03*
%TO.P,U1,28,TXD0/IO1*%
%TO.N,unconnected-(U1-TXD0{slash}IO1-Pad28)*%
X169370000Y-84800000D03*
%TO.P,U1,27,RXD0/IO3*%
%TO.N,unconnected-(U1-RXD0{slash}IO3-Pad27)*%
X171910000Y-84800000D03*
%TO.P,U1,26,IO21*%
%TO.N,Net-(U1-IO21)*%
X174450000Y-84800000D03*
%TO.P,U1,25,IO19*%
%TO.N,Net-(U1-IO19)*%
X176990000Y-84800000D03*
%TO.P,U1,24,IO18*%
%TO.N,Net-(U1-IO18)*%
X179530000Y-84800000D03*
%TO.P,U1,23,IO5*%
%TO.N,unconnected-(U1-IO5-Pad23)*%
X182070000Y-84800000D03*
%TO.P,U1,22,IO17*%
%TO.N,unconnected-(U1-IO17-Pad22)*%
X184610000Y-84800000D03*
%TO.P,U1,21,IO16*%
%TO.N,unconnected-(U1-IO16-Pad21)*%
X187150000Y-84800000D03*
%TO.P,U1,20,IO4*%
%TO.N,unconnected-(U1-IO4-Pad20)*%
X189690000Y-84800000D03*
%TO.P,U1,19,IO2*%
%TO.N,unconnected-(U1-IO2-Pad19)*%
X192230000Y-84800000D03*
%TO.P,U1,18,IO15*%
%TO.N,unconnected-(U1-IO15-Pad18)*%
X194770000Y-84800000D03*
%TO.P,U1,17,GND*%
%TO.N,GND*%
X197310000Y-84800000D03*
%TO.P,U1,16,3V3*%
%TO.N,unconnected-(U1-3V3-Pad16)*%
X199850000Y-84800000D03*
%TO.P,U1,15,VIN*%
%TO.N,VCC*%
X199850000Y-110200000D03*
%TO.P,U1,14,GND*%
%TO.N,GND*%
X197310000Y-110200000D03*
%TO.P,U1,13,IO13*%
%TO.N,Net-(U1-IO13)*%
X194770000Y-110200000D03*
%TO.P,U1,12,IO12*%
%TO.N,unconnected-(U1-IO12-Pad12)*%
X192230000Y-110200000D03*
%TO.P,U1,11,IO14*%
%TO.N,Net-(U1-IO14)*%
X189690000Y-110200000D03*
%TO.P,U1,10,IO27*%
%TO.N,Net-(U1-IO27)*%
X187150000Y-110200000D03*
%TO.P,U1,9,IO26*%
%TO.N,Net-(U1-IO26)*%
X184610000Y-110200000D03*
%TO.P,U1,8,IO25*%
%TO.N,Net-(U1-IO25)*%
X182070000Y-110200000D03*
%TO.P,U1,7,IO33*%
%TO.N,Net-(U1-IO33)*%
X179530000Y-110200000D03*
%TO.P,U1,6,IO32*%
%TO.N,Net-(U1-IO32)*%
X176990000Y-110200000D03*
%TO.P,U1,5,IO35*%
%TO.N,unconnected-(U1-IO35-Pad5)*%
X174450000Y-110200000D03*
%TO.P,U1,4,IO34*%
%TO.N,unconnected-(U1-IO34-Pad4)*%
X171910000Y-110200000D03*
%TO.P,U1,3,SENSOR_VN*%
%TO.N,unconnected-(U1-SENSOR_VN-Pad3)*%
X169370000Y-110200000D03*
%TO.P,U1,2,SENSOR_VP*%
%TO.N,unconnected-(U1-SENSOR_VP-Pad2)*%
X166830000Y-110200000D03*
D32*
%TO.P,U1,1,EN*%
%TO.N,unconnected-(U1-EN-Pad1)*%
X164290000Y-110200000D03*
%TD*%
D33*
%TO.N,*%
X210000000Y-83200000D03*
X100400000Y-116400000D03*
X143800000Y-148400000D03*
D34*
%TO.N,GND*%
X139200000Y-99800000D03*
X122200000Y-103200000D03*
X130200000Y-100600000D03*
X134600000Y-98800000D03*
%TO.N,Net-(D6-A)*%
X178600000Y-129713000D03*
X171600000Y-122200000D03*
%TO.N,Net-(D5-A)*%
X173571500Y-122442927D03*
X170600000Y-128379500D03*
%TO.N,Net-(D3-A)*%
X162000000Y-127800000D03*
X174400000Y-127046000D03*
%TO.N,Net-(D11-A)*%
X198388535Y-131389812D03*
X195400000Y-131133500D03*
%TO.N,Net-(D12-A)*%
X193800000Y-129800000D03*
X205800000Y-129800000D03*
%TO.N,Net-(D8-A)*%
X187000000Y-128000000D03*
X199620255Y-123347424D03*
%TO.N,Net-(D9-A)*%
X192000000Y-128200000D03*
X198968500Y-127000000D03*
%TO.N,Net-(U1-IO19)*%
X196000000Y-120066500D03*
X167000000Y-96400000D03*
%TO.N,Net-(U12-FB)*%
X134885000Y-101544000D03*
%TO.N,Net-(U1-IO25)*%
X200174999Y-116768389D03*
%TO.N,Net-(U1-IO18)*%
X194861900Y-116266200D03*
%TO.N,Net-(U1-IO32)*%
X190000000Y-120466500D03*
%TO.N,Net-(U1-IO33)*%
X187600000Y-117800000D03*
%TO.N,Net-(U1-IO14)*%
X187867000Y-114218000D03*
%TO.N,Net-(U1-IO21)*%
X174985000Y-116245000D03*
%TO.N,VCC*%
X191258400Y-101608400D03*
%TO.N,GND*%
X159500000Y-126400000D03*
%TD*%
D35*
%TO.N,GND*%
X134600000Y-98800000D02*
X134525000Y-98800000D01*
X134525000Y-98800000D02*
X133500000Y-97775000D01*
D36*
%TO.N,Net-(D1-K)*%
X139785000Y-89775000D02*
X139785000Y-92125200D01*
X139785000Y-92125200D02*
X137419000Y-94490800D01*
X137419000Y-94490800D02*
X129270464Y-94490800D01*
X129270464Y-94490800D02*
X128400000Y-95361264D01*
X128400000Y-95361264D02*
X128400000Y-97775000D01*
%TO.N,Net-(U12-FB)*%
X134885000Y-101544000D02*
X132744000Y-101544000D01*
X132744000Y-101544000D02*
X131800000Y-100600000D01*
X131800000Y-100600000D02*
X131800000Y-97775000D01*
D35*
%TO.N,VCC*%
X136500000Y-98000000D02*
X136500000Y-97700000D01*
X137000000Y-97200000D02*
X137754000Y-97954000D01*
X136500000Y-97700000D02*
X137000000Y-97200000D01*
X137754000Y-97954000D02*
X137754000Y-97979100D01*
X137754000Y-97979100D02*
X138333100Y-97400000D01*
X138333100Y-97400000D02*
X139440000Y-97400000D01*
X139440000Y-97400000D02*
X142000000Y-99960000D01*
D36*
%TO.N,GND*%
X139200000Y-99800000D02*
X138025000Y-99800000D01*
X138025000Y-99800000D02*
X138000000Y-99775000D01*
%TO.N,Net-(U1-IO13)*%
X176175000Y-116898000D02*
X176175000Y-117952000D01*
%TO.N,GND*%
X123500000Y-103450000D02*
X122450000Y-103450000D01*
X122450000Y-103450000D02*
X122200000Y-103200000D01*
X122200000Y-103200000D02*
X122200000Y-103004000D01*
X122396000Y-103200000D02*
X122200000Y-103200000D01*
D35*
X130200000Y-100600000D02*
X130100000Y-100609000D01*
X134692000Y-98800000D02*
X134564000Y-98672000D01*
X134600000Y-98800000D02*
X134692000Y-98800000D01*
D36*
%TO.N,Net-(BR1-+)*%
X117090000Y-99385400D02*
X117090000Y-100890000D01*
X117090000Y-100890000D02*
X121200000Y-105000000D01*
X121200000Y-105000000D02*
X123500000Y-105000000D01*
D37*
%TO.N,Net-(J2-Pin_10)*%
X204500000Y-146500000D02*
X204500000Y-138750000D01*
D36*
%TO.N,Net-(D6-A)*%
X178600000Y-129713000D02*
X178236500Y-129349500D01*
X178236500Y-129349500D02*
X177000000Y-129349500D01*
%TO.N,Net-(D7-A)*%
X171095000Y-125048000D02*
X171095000Y-126531500D01*
X171095000Y-126531500D02*
X172943000Y-128379500D01*
X180435500Y-127800000D02*
X182000000Y-129364500D01*
X172943000Y-128379500D02*
X175943446Y-128379500D01*
X175943446Y-128379500D02*
X176522946Y-127800000D01*
X176522946Y-127800000D02*
X180435500Y-127800000D01*
%TO.N,Net-(D6-A)*%
X172365000Y-125048000D02*
X172365000Y-123122281D01*
X172365000Y-123122281D02*
X171600000Y-122357281D01*
X171600000Y-122357281D02*
X171600000Y-122200000D01*
%TO.N,Net-(D5-A)*%
X173571500Y-122442927D02*
X173571500Y-123971500D01*
X173571500Y-123971500D02*
X173635000Y-124035000D01*
X173635000Y-124035000D02*
X173635000Y-125048000D01*
%TO.N,Net-(D4-A)*%
X174905000Y-125048000D02*
X174905000Y-121705000D01*
X174905000Y-121705000D02*
X173800000Y-120600000D01*
X173800000Y-120600000D02*
X167000000Y-120600000D01*
X167000000Y-120600000D02*
X167000000Y-129349500D01*
%TO.N,Net-(D5-A)*%
X170600000Y-128379500D02*
X171570000Y-129349500D01*
X171570000Y-129349500D02*
X172000000Y-129349500D01*
%TO.N,Net-(D3-A)*%
X176175000Y-125048000D02*
X176175000Y-126531500D01*
X176175000Y-126531500D02*
X175470000Y-127236500D01*
X175470000Y-127236500D02*
X174590500Y-127236500D01*
X174590500Y-127236500D02*
X174400000Y-127046000D01*
X162000000Y-127800000D02*
X162000000Y-129364500D01*
%TO.N,Net-(D3-K)*%
X162040000Y-132500000D02*
X162040000Y-130675500D01*
X162040000Y-130675500D02*
X162000000Y-130635500D01*
%TO.N,Net-(D4-K)*%
X167040000Y-132500000D02*
X167040000Y-130660500D01*
X167040000Y-130660500D02*
X167000000Y-130620500D01*
%TO.N,Net-(D5-K)*%
X172040000Y-132500000D02*
X172040000Y-130660500D01*
X172040000Y-130660500D02*
X172000000Y-130620500D01*
%TO.N,Net-(D6-K)*%
X177040000Y-132500000D02*
X177040000Y-130660500D01*
X177040000Y-130660500D02*
X177000000Y-130620500D01*
%TO.N,Net-(D7-K)*%
X182040000Y-132500000D02*
X182040000Y-130675500D01*
X182040000Y-130675500D02*
X182000000Y-130635500D01*
%TO.N,GND*%
X159500000Y-132500000D02*
X159500000Y-126400000D01*
X159500000Y-132500000D02*
X160825500Y-133825500D01*
X160825500Y-133825500D02*
X163174500Y-133825500D01*
X163174500Y-133825500D02*
X164500000Y-132500000D01*
X164500000Y-132500000D02*
X165825500Y-133825500D01*
X165825500Y-133825500D02*
X168174500Y-133825500D01*
X168174500Y-133825500D02*
X169500000Y-132500000D01*
X169500000Y-132500000D02*
X170825500Y-133825500D01*
X170825500Y-133825500D02*
X173174500Y-133825500D01*
X173174500Y-133825500D02*
X174500000Y-132500000D01*
X174500000Y-132500000D02*
X175825500Y-133825500D01*
X175825500Y-133825500D02*
X178174500Y-133825500D01*
X178174500Y-133825500D02*
X179500000Y-132500000D01*
X179500000Y-132500000D02*
X180825500Y-133825500D01*
X180825500Y-133825500D02*
X183174500Y-133825500D01*
X183174500Y-133825500D02*
X184500000Y-132500000D01*
X184500000Y-132500000D02*
X185825500Y-133825500D01*
X185825500Y-133825500D02*
X188174500Y-133825500D01*
X188174500Y-133825500D02*
X189500000Y-132500000D01*
%TO.N,Net-(D8-K)*%
X187040000Y-132500000D02*
X187040000Y-130690500D01*
X187040000Y-130690500D02*
X187000000Y-130650500D01*
%TO.N,Net-(D9-K)*%
X192040000Y-132500000D02*
X192040000Y-130660500D01*
X192040000Y-130660500D02*
X192000000Y-130620500D01*
%TO.N,GND*%
X189500000Y-132500000D02*
X190825500Y-133825500D01*
X190825500Y-133825500D02*
X193174500Y-133825500D01*
X193174500Y-133825500D02*
X194500000Y-132500000D01*
X194500000Y-132500000D02*
X195825500Y-133825500D01*
X195825500Y-133825500D02*
X198174500Y-133825500D01*
X198174500Y-133825500D02*
X199500000Y-132500000D01*
X199500000Y-132500000D02*
X200825500Y-133825500D01*
X200825500Y-133825500D02*
X203174500Y-133825500D01*
X203174500Y-133825500D02*
X204500000Y-132500000D01*
D35*
X204466500Y-132466500D02*
X204200000Y-132200000D01*
X204200000Y-132200000D02*
X204200000Y-115133000D01*
X204200000Y-115133000D02*
X204466500Y-114866500D01*
D36*
X204466500Y-114866500D02*
X204400000Y-114800000D01*
X204500000Y-132500000D02*
X204466500Y-132466500D01*
%TO.N,Net-(D12-K)*%
X207040000Y-132500000D02*
X207040000Y-130690500D01*
X207040000Y-130690500D02*
X207000000Y-130650500D01*
%TO.N,Net-(D11-K)*%
X202040000Y-132500000D02*
X202040000Y-130690500D01*
X202040000Y-130690500D02*
X202000000Y-130650500D01*
%TO.N,Net-(D10-K)*%
X197040000Y-132500000D02*
X197040000Y-130690500D01*
X197040000Y-130690500D02*
X197000000Y-130650500D01*
%TO.N,Net-(D11-A)*%
X196365000Y-125048000D02*
X196365000Y-128398054D01*
X196365000Y-128398054D02*
X195400000Y-129363054D01*
X195400000Y-129363054D02*
X195400000Y-131133500D01*
X198388535Y-131389812D02*
X200398847Y-129379500D01*
X200398847Y-129379500D02*
X202000000Y-129379500D01*
%TO.N,Net-(D12-A)*%
X193800000Y-129800000D02*
X193600000Y-129600000D01*
X193600000Y-129600000D02*
X193600000Y-126626000D01*
X193600000Y-126626000D02*
X195000500Y-126626000D01*
X195000500Y-126626000D02*
X195095000Y-126531500D01*
X195095000Y-126531500D02*
X195095000Y-125048000D01*
X206220500Y-129379500D02*
X207000000Y-129379500D01*
X205800000Y-129800000D02*
X206220500Y-129379500D01*
%TO.N,Net-(D8-A)*%
X200175000Y-125048000D02*
X200175000Y-123902169D01*
X200175000Y-123902169D02*
X199620255Y-123347424D01*
X187000000Y-128000000D02*
X187000000Y-129379500D01*
%TO.N,Net-(D9-A)*%
X192000000Y-128200000D02*
X192000000Y-129349500D01*
X198905000Y-125048000D02*
X198905000Y-126936500D01*
X198905000Y-126936500D02*
X198968500Y-127000000D01*
%TO.N,Net-(D10-A)*%
X197635000Y-125048000D02*
X197635000Y-128744500D01*
X197635000Y-128744500D02*
X197000000Y-129379500D01*
%TO.N,Net-(D2-A)*%
X146000000Y-101462500D02*
X146000000Y-104879500D01*
%TO.N,Net-(U1-IO19)*%
X196000000Y-120066500D02*
X196365000Y-119701500D01*
X196365000Y-119701500D02*
X196365000Y-117952000D01*
%TO.N,Net-(U1-IO32)*%
X190000000Y-120466500D02*
X190933500Y-121400000D01*
X190933500Y-121400000D02*
X196800000Y-121400000D01*
X196800000Y-121400000D02*
X197635000Y-120565000D01*
X197635000Y-120565000D02*
X197635000Y-117952000D01*
%TO.N,Net-(U1-IO33)*%
X187600000Y-117800000D02*
X187600000Y-120600000D01*
X187600000Y-120600000D02*
X189600000Y-122600000D01*
X189600000Y-122600000D02*
X197400000Y-122600000D01*
X197400000Y-122600000D02*
X198905000Y-121095000D01*
X198905000Y-121095000D02*
X198905000Y-117952000D01*
%TO.N,Net-(U1-IO25)*%
X200174999Y-116768389D02*
X200175000Y-116768390D01*
X200175000Y-116768390D02*
X200175000Y-117952000D01*
%TO.N,Net-(U1-IO19)*%
X176990000Y-84800000D02*
X176990000Y-86410000D01*
X176990000Y-86410000D02*
X167000000Y-96400000D01*
D35*
%TO.N,GNDPWR*%
X104430000Y-91550000D02*
X103980000Y-92000000D01*
X111800000Y-91550000D02*
X104430000Y-91550000D01*
D36*
%TO.N,Net-(U1-IO18)*%
X195095000Y-117952000D02*
X195095000Y-116499300D01*
X194861900Y-116266200D02*
X195095000Y-116499300D01*
%TO.N,Net-(U1-IO27)*%
X172365000Y-117118000D02*
X172365000Y-117952000D01*
X176803000Y-112680000D02*
X172365000Y-117118000D01*
X184670000Y-112680000D02*
X176803000Y-112680000D01*
X187150000Y-110200000D02*
X184670000Y-112680000D01*
%TO.N,Net-(U1-IO26)*%
X171095000Y-116499000D02*
X171095000Y-117952000D01*
X175932000Y-111662000D02*
X171095000Y-116499000D01*
X183148000Y-111662000D02*
X175932000Y-111662000D01*
X184610000Y-110200000D02*
X183148000Y-111662000D01*
%TO.N,Net-(U1-IO14)*%
X186957000Y-115128000D02*
X187867000Y-114218000D01*
X183688000Y-115128000D02*
X186957000Y-115128000D01*
X179412000Y-119405000D02*
X183688000Y-115128000D01*
X173635000Y-119405000D02*
X179412000Y-119405000D01*
X173635000Y-117952000D02*
X173635000Y-119405000D01*
%TO.N,Net-(U1-IO13)*%
X179375000Y-113698000D02*
X176175000Y-116898000D01*
X186679000Y-113698000D02*
X179375000Y-113698000D01*
X187366000Y-113010000D02*
X186679000Y-113698000D01*
X191960000Y-113010000D02*
X187366000Y-113010000D01*
X194770000Y-110200000D02*
X191960000Y-113010000D01*
%TO.N,Net-(U1-IO21)*%
X174905000Y-116325000D02*
X174905000Y-117952000D01*
X174985000Y-116245000D02*
X174905000Y-116325000D01*
D37*
%TO.N,Net-(J2-Pin_9)*%
X199500000Y-146500000D02*
X199500000Y-138750000D01*
%TO.N,Net-(J2-Pin_7)*%
X189500000Y-146500000D02*
X189500000Y-138750000D01*
%TO.N,Net-(J2-Pin_2)*%
X164500000Y-146500000D02*
X164500000Y-138750000D01*
%TO.N,Net-(J2-Pin_5)*%
X179500000Y-146500000D02*
X179500000Y-138750000D01*
%TO.N,Net-(J2-Pin_4)*%
X174500000Y-146500000D02*
X174500000Y-138750000D01*
%TO.N,Net-(J2-Pin_1)*%
X159500000Y-146500000D02*
X159500000Y-138750000D01*
%TO.N,Net-(J2-Pin_6)*%
X184500000Y-146500000D02*
X184500000Y-138750000D01*
%TO.N,Net-(J2-Pin_8)*%
X194500000Y-146500000D02*
X194500000Y-138750000D01*
%TO.N,Net-(J2-Pin_3)*%
X169500000Y-146500000D02*
X169500000Y-138750000D01*
D36*
%TO.N,Net-(D1-K)*%
X128400000Y-103175000D02*
X128400000Y-97775000D01*
X129000000Y-103775000D02*
X128400000Y-103175000D01*
%TO.N,Net-(BR1-+)*%
X122700000Y-91550000D02*
X122700000Y-93775200D01*
X120850000Y-91550000D02*
X122700000Y-91550000D01*
X122700000Y-93775200D02*
X117090000Y-99385400D01*
X116980000Y-99275000D02*
X117090000Y-99385400D01*
X115000000Y-99275000D02*
X116980000Y-99275000D01*
X122700000Y-93775200D02*
X126700000Y-97775000D01*
D38*
%TO.N,Net-(C4-Pad2)*%
X136232000Y-99228300D02*
X136500000Y-98960000D01*
D36*
X136232000Y-103732000D02*
X137000000Y-104500000D01*
X136232000Y-99228300D02*
X136232000Y-103732000D01*
X137540000Y-105040000D02*
X137000000Y-104500000D01*
X142000000Y-105040000D02*
X137540000Y-105040000D01*
D35*
%TO.N,VCC*%
X151215000Y-93322500D02*
X146000000Y-98537500D01*
X151215000Y-89775000D02*
X151215000Y-93322500D01*
X137754000Y-97979100D02*
X138000000Y-98225000D01*
X147095000Y-99632300D02*
X146000000Y-98537500D01*
X152500000Y-99632300D02*
X147095000Y-99632300D01*
X144578000Y-99960000D02*
X142000000Y-99960000D01*
X146000000Y-98537500D02*
X144578000Y-99960000D01*
X137511000Y-97979100D02*
X137754000Y-97979100D01*
X188729800Y-99632300D02*
X152500000Y-99632300D01*
X190705900Y-101608400D02*
X191258400Y-101608400D01*
X188729800Y-99632300D02*
X190705900Y-101608400D01*
D39*
%TO.N,AC*%
X167040000Y-136964000D02*
X167040000Y-138750000D01*
X192040000Y-136509000D02*
X192040000Y-138750000D01*
X177040000Y-137070000D02*
X177040000Y-138750000D01*
X182040000Y-136883000D02*
X182040000Y-138750000D01*
X197040000Y-136322000D02*
X197040000Y-138750000D01*
X172040000Y-137151000D02*
X172040000Y-138750000D01*
X187040000Y-136696000D02*
X187040000Y-138750000D01*
X202040000Y-136290000D02*
X202040000Y-138750000D01*
X207040000Y-136323000D02*
X207040000Y-138750000D01*
X162040000Y-136777000D02*
X162040000Y-138750000D01*
D35*
%TO.N,GND*%
X130100000Y-97775000D02*
X130200000Y-100600000D01*
%TD*%
%TA.AperFunction,Conductor*%
%TO.N,AC*%
G36*
X115344638Y-80819685D02*
G01*
X115390393Y-80872489D01*
X115401589Y-80922390D01*
X115498379Y-88375188D01*
X115479566Y-88442477D01*
X115427361Y-88488914D01*
X115375179Y-88500795D01*
X105894759Y-88561179D01*
X105827595Y-88541922D01*
X105781505Y-88489411D01*
X105771121Y-88420317D01*
X105773293Y-88408662D01*
X105773599Y-88407366D01*
X105779999Y-88347844D01*
X105780000Y-88347827D01*
X105780000Y-87250000D01*
X104580001Y-87250000D01*
X104605021Y-87189598D01*
X104608354Y-87172844D01*
X110150000Y-87172844D01*
X110156401Y-87232372D01*
X110156403Y-87232379D01*
X110206645Y-87367086D01*
X110206649Y-87367093D01*
X110292809Y-87482187D01*
X110292812Y-87482190D01*
X110407906Y-87568350D01*
X110407913Y-87568354D01*
X110542620Y-87618596D01*
X110542627Y-87618598D01*
X110602155Y-87624999D01*
X110602172Y-87625000D01*
X111550000Y-87625000D01*
X112050000Y-87625000D01*
X112997828Y-87625000D01*
X112997844Y-87624999D01*
X113057372Y-87618598D01*
X113057379Y-87618596D01*
X113192086Y-87568354D01*
X113192093Y-87568350D01*
X113307187Y-87482190D01*
X113307190Y-87482187D01*
X113393350Y-87367093D01*
X113393354Y-87367086D01*
X113443596Y-87232379D01*
X113443598Y-87232372D01*
X113449999Y-87172844D01*
X113450000Y-87172827D01*
X113450000Y-86700000D01*
X112050000Y-86700000D01*
X112050000Y-87625000D01*
X111550000Y-87625000D01*
X111550000Y-86700000D01*
X110150000Y-86700000D01*
X110150000Y-87172844D01*
X104608354Y-87172844D01*
X104630000Y-87064019D01*
X104630000Y-86935981D01*
X104605021Y-86810402D01*
X104580001Y-86750000D01*
X105780000Y-86750000D01*
X105780000Y-85727155D01*
X110150000Y-85727155D01*
X110150000Y-86200000D01*
X111550000Y-86200000D01*
X112050000Y-86200000D01*
X113450000Y-86200000D01*
X113450000Y-85727172D01*
X113449999Y-85727155D01*
X113443598Y-85667627D01*
X113443596Y-85667620D01*
X113393354Y-85532913D01*
X113393350Y-85532906D01*
X113307190Y-85417812D01*
X113307187Y-85417809D01*
X113192093Y-85331649D01*
X113192086Y-85331645D01*
X113057379Y-85281403D01*
X113057372Y-85281401D01*
X112997844Y-85275000D01*
X112050000Y-85275000D01*
X112050000Y-86200000D01*
X111550000Y-86200000D01*
X111550000Y-85275000D01*
X110602155Y-85275000D01*
X110542627Y-85281401D01*
X110542620Y-85281403D01*
X110407913Y-85331645D01*
X110407906Y-85331649D01*
X110292812Y-85417809D01*
X110292809Y-85417812D01*
X110206649Y-85532906D01*
X110206645Y-85532913D01*
X110156403Y-85667620D01*
X110156401Y-85667627D01*
X110150000Y-85727155D01*
X105780000Y-85727155D01*
X105780000Y-85652172D01*
X105779999Y-85652155D01*
X105773598Y-85592627D01*
X105773596Y-85592620D01*
X105723354Y-85457913D01*
X105723350Y-85457906D01*
X105637190Y-85342812D01*
X105637187Y-85342809D01*
X105522093Y-85256649D01*
X105522086Y-85256645D01*
X105387379Y-85206403D01*
X105387372Y-85206401D01*
X105327844Y-85200000D01*
X104230000Y-85200000D01*
X104230000Y-86399998D01*
X104169598Y-86374979D01*
X104044019Y-86350000D01*
X103915981Y-86350000D01*
X103790402Y-86374979D01*
X103730000Y-86399998D01*
X103730000Y-85200000D01*
X102632155Y-85200000D01*
X102572627Y-85206401D01*
X102572620Y-85206403D01*
X102437913Y-85256645D01*
X102437906Y-85256649D01*
X102322812Y-85342809D01*
X102322809Y-85342812D01*
X102236649Y-85457906D01*
X102236645Y-85457913D01*
X102186403Y-85592620D01*
X102186401Y-85592627D01*
X102180000Y-85652155D01*
X102180000Y-86750000D01*
X103379999Y-86750000D01*
X103354979Y-86810402D01*
X103330000Y-86935981D01*
X103330000Y-87064019D01*
X103354979Y-87189598D01*
X103379999Y-87250000D01*
X102180000Y-87250000D01*
X102180000Y-88347844D01*
X102186401Y-88407372D01*
X102186403Y-88407380D01*
X102190430Y-88418176D01*
X102195416Y-88487868D01*
X102161931Y-88549191D01*
X102100608Y-88582677D01*
X102075039Y-88585508D01*
X99800000Y-88599999D01*
X99800000Y-88600000D01*
X99800000Y-97400000D01*
X99800001Y-97400001D01*
X119400000Y-114800000D01*
X145532060Y-114800000D01*
X145599099Y-114819685D01*
X145636567Y-114857260D01*
X158500000Y-135000000D01*
X208876000Y-135000000D01*
X208943039Y-135019685D01*
X208988794Y-135072489D01*
X209000000Y-135124000D01*
X209000000Y-137376000D01*
X208980315Y-137443039D01*
X208927511Y-137488794D01*
X208876000Y-137500000D01*
X158500000Y-137500000D01*
X158161816Y-137516104D01*
X156470881Y-137596624D01*
X156402981Y-137580150D01*
X156361181Y-137540595D01*
X143200001Y-117400000D01*
X143200000Y-117400000D01*
X116849410Y-117400000D01*
X116782371Y-117380315D01*
X116764130Y-117366018D01*
X114055555Y-114800000D01*
X97838720Y-99436682D01*
X97803590Y-99376286D01*
X97800000Y-99346664D01*
X97800000Y-81161795D01*
X97819685Y-81094756D01*
X97824733Y-81087485D01*
X97867487Y-81030372D01*
X97879066Y-81017008D01*
X98017008Y-80879066D01*
X98030369Y-80867489D01*
X98051111Y-80851961D01*
X98087487Y-80824732D01*
X98152951Y-80800316D01*
X98161796Y-80800000D01*
X115277599Y-80800000D01*
X115344638Y-80819685D01*
G37*
%TD.AperFunction*%
%TD*%
%TA.AperFunction,Conductor*%
%TO.N,GND*%
G36*
X156943039Y-100668485D02*
G01*
X156988794Y-100721289D01*
X157000000Y-100772800D01*
X157000000Y-111876000D01*
X156980315Y-111943039D01*
X156927511Y-111988794D01*
X156876000Y-112000000D01*
X131624000Y-112000000D01*
X131556961Y-111980315D01*
X131511206Y-111927511D01*
X131500000Y-111876000D01*
X131500000Y-106637486D01*
X135800001Y-106637486D01*
X135810494Y-106740197D01*
X135865641Y-106906619D01*
X135865643Y-106906624D01*
X135957684Y-107055845D01*
X136081654Y-107179815D01*
X136230875Y-107271856D01*
X136230880Y-107271858D01*
X136397302Y-107327005D01*
X136397309Y-107327006D01*
X136500019Y-107337499D01*
X136749999Y-107337499D01*
X137250000Y-107337499D01*
X137499972Y-107337499D01*
X137499986Y-107337498D01*
X137602697Y-107327005D01*
X137769119Y-107271858D01*
X137769124Y-107271856D01*
X137918345Y-107179815D01*
X138042315Y-107055845D01*
X138134356Y-106906624D01*
X138134358Y-106906619D01*
X138189505Y-106740197D01*
X138189506Y-106740190D01*
X138199999Y-106637486D01*
X138200000Y-106637473D01*
X138200000Y-106575000D01*
X137250000Y-106575000D01*
X137250000Y-107337499D01*
X136749999Y-107337499D01*
X136750000Y-107337498D01*
X136750000Y-106575000D01*
X135800001Y-106575000D01*
X135800001Y-106637486D01*
X131500000Y-106637486D01*
X131500000Y-105219654D01*
X131519685Y-105152615D01*
X131572489Y-105106860D01*
X131641647Y-105096916D01*
X131676403Y-105107271D01*
X131680877Y-105109357D01*
X131847302Y-105164505D01*
X131847309Y-105164506D01*
X131950019Y-105174999D01*
X132749999Y-105174999D01*
X133250000Y-105174999D01*
X134049972Y-105174999D01*
X134049986Y-105174998D01*
X134152697Y-105164505D01*
X134319119Y-105109358D01*
X134319124Y-105109356D01*
X134468345Y-105017315D01*
X134592315Y-104893345D01*
X134684356Y-104744124D01*
X134684358Y-104744119D01*
X134739505Y-104577697D01*
X134739506Y-104577690D01*
X134749999Y-104474986D01*
X134750000Y-104474973D01*
X134750000Y-104025000D01*
X133250000Y-104025000D01*
X133250000Y-105174999D01*
X132749999Y-105174999D01*
X132750000Y-105174998D01*
X132750000Y-103649000D01*
X132769685Y-103581961D01*
X132822489Y-103536206D01*
X132874000Y-103525000D01*
X134749999Y-103525000D01*
X134749999Y-103075028D01*
X134749998Y-103075013D01*
X134739505Y-102972302D01*
X134684358Y-102805880D01*
X134684353Y-102805869D01*
X134644871Y-102741859D01*
X134626430Y-102674467D01*
X134647352Y-102607803D01*
X134700994Y-102563033D01*
X134762562Y-102553359D01*
X134885000Y-102565418D01*
X135084269Y-102545792D01*
X135170332Y-102519685D01*
X135217625Y-102505339D01*
X135253620Y-102500000D01*
X135282000Y-102500000D01*
X135349039Y-102519685D01*
X135394794Y-102572489D01*
X135406000Y-102624000D01*
X135406000Y-103813358D01*
X135437740Y-103972927D01*
X135437742Y-103972935D01*
X135500006Y-104123255D01*
X135500011Y-104123264D01*
X135590403Y-104258544D01*
X135590406Y-104258548D01*
X135709774Y-104377916D01*
X135709796Y-104377936D01*
X135755181Y-104423321D01*
X135788666Y-104484644D01*
X135791500Y-104511002D01*
X135791500Y-104813036D01*
X135791501Y-104813053D01*
X135802113Y-104916927D01*
X135857884Y-105085235D01*
X135857886Y-105085240D01*
X135950971Y-105236153D01*
X135963681Y-105248863D01*
X135997166Y-105310186D01*
X136000000Y-105336544D01*
X136000000Y-105500477D01*
X135980315Y-105567516D01*
X135963681Y-105588158D01*
X135957684Y-105594154D01*
X135865643Y-105743375D01*
X135865641Y-105743380D01*
X135810494Y-105909802D01*
X135810493Y-105909809D01*
X135800000Y-106012513D01*
X135800000Y-106075000D01*
X138199999Y-106075000D01*
X138199999Y-106012528D01*
X138199997Y-106012506D01*
X138198986Y-106002599D01*
X138211757Y-105933907D01*
X138259638Y-105883023D01*
X138322344Y-105866000D01*
X138876000Y-105866000D01*
X138943039Y-105885685D01*
X138988794Y-105938489D01*
X139000000Y-105990000D01*
X139000000Y-108000000D01*
X145000000Y-108000000D01*
X145000000Y-106473539D01*
X145019685Y-106406500D01*
X145072489Y-106360745D01*
X145141647Y-106350801D01*
X145205203Y-106379826D01*
X145230732Y-106410418D01*
X145311806Y-106547508D01*
X145311812Y-106547516D01*
X145427483Y-106663187D01*
X145427491Y-106663193D01*
X145568302Y-106746468D01*
X145568307Y-106746470D01*
X145725402Y-106792110D01*
X145750000Y-106794045D01*
X145750000Y-106794044D01*
X146250000Y-106794044D01*
X146250001Y-106794045D01*
X146274592Y-106792112D01*
X146274599Y-106792110D01*
X146431691Y-106746470D01*
X146431697Y-106746468D01*
X146572508Y-106663193D01*
X146572516Y-106663187D01*
X146688187Y-106547516D01*
X146688193Y-106547508D01*
X146771469Y-106406695D01*
X146771471Y-106406692D01*
X146816994Y-106250001D01*
X146816993Y-106250000D01*
X146250000Y-106250000D01*
X146250000Y-106794044D01*
X145750000Y-106794044D01*
X145750000Y-105957499D01*
X145769685Y-105890460D01*
X145822489Y-105844705D01*
X145873996Y-105833499D01*
X146238746Y-105833499D01*
X146275937Y-105830573D01*
X146435100Y-105784332D01*
X146442414Y-105780006D01*
X146463955Y-105767268D01*
X146527076Y-105750000D01*
X146816993Y-105750000D01*
X146816994Y-105749998D01*
X146790439Y-105658595D01*
X146790638Y-105588726D01*
X146828580Y-105530056D01*
X146892218Y-105501212D01*
X146909515Y-105500000D01*
X149000000Y-105500000D01*
X149000000Y-104632294D01*
X150994859Y-104632294D01*
X150994859Y-104632305D01*
X151015385Y-104880029D01*
X151015387Y-104880038D01*
X151076412Y-105121017D01*
X151176266Y-105348664D01*
X151276564Y-105502182D01*
X152017037Y-104761709D01*
X152034075Y-104825293D01*
X152099901Y-104939307D01*
X152192993Y-105032399D01*
X152307007Y-105098225D01*
X152370590Y-105115262D01*
X151629942Y-105855909D01*
X151676768Y-105892355D01*
X151676770Y-105892356D01*
X151895385Y-106010664D01*
X151895396Y-106010669D01*
X152130506Y-106091383D01*
X152375707Y-106132300D01*
X152624293Y-106132300D01*
X152869493Y-106091383D01*
X153104603Y-106010669D01*
X153104614Y-106010664D01*
X153323228Y-105892357D01*
X153323231Y-105892355D01*
X153370056Y-105855909D01*
X152629409Y-105115262D01*
X152692993Y-105098225D01*
X152807007Y-105032399D01*
X152900099Y-104939307D01*
X152965925Y-104825293D01*
X152982962Y-104761710D01*
X153723434Y-105502182D01*
X153823731Y-105348669D01*
X153923587Y-105121017D01*
X153984612Y-104880038D01*
X153984614Y-104880029D01*
X154005141Y-104632305D01*
X154005141Y-104632294D01*
X153984614Y-104384570D01*
X153984612Y-104384561D01*
X153923587Y-104143582D01*
X153823731Y-103915930D01*
X153723434Y-103762416D01*
X152982962Y-104502889D01*
X152965925Y-104439307D01*
X152900099Y-104325293D01*
X152807007Y-104232201D01*
X152692993Y-104166375D01*
X152629410Y-104149337D01*
X153370057Y-103408690D01*
X153370056Y-103408689D01*
X153323229Y-103372243D01*
X153104614Y-103253935D01*
X153104603Y-103253930D01*
X152869493Y-103173216D01*
X152624293Y-103132300D01*
X152375707Y-103132300D01*
X152130506Y-103173216D01*
X151895396Y-103253930D01*
X151895390Y-103253932D01*
X151676761Y-103372249D01*
X151629942Y-103408688D01*
X151629942Y-103408690D01*
X152370590Y-104149337D01*
X152307007Y-104166375D01*
X152192993Y-104232201D01*
X152099901Y-104325293D01*
X152034075Y-104439307D01*
X152017037Y-104502889D01*
X151276564Y-103762416D01*
X151176267Y-103915932D01*
X151076412Y-104143582D01*
X151015387Y-104384561D01*
X151015385Y-104384570D01*
X150994859Y-104632294D01*
X149000000Y-104632294D01*
X149000000Y-102124000D01*
X149019685Y-102056961D01*
X149072489Y-102011206D01*
X149124000Y-102000000D01*
X155000000Y-102000000D01*
X155000000Y-100772800D01*
X155019685Y-100705761D01*
X155072489Y-100660006D01*
X155124000Y-100648800D01*
X156876000Y-100648800D01*
X156943039Y-100668485D01*
G37*
%TD.AperFunction*%
%TA.AperFunction,Conductor*%
G36*
X157000000Y-82500000D02*
G01*
X157000000Y-98491800D01*
X156980315Y-98558839D01*
X156927511Y-98604594D01*
X156876000Y-98615800D01*
X155124000Y-98615800D01*
X155056961Y-98596115D01*
X155011206Y-98543311D01*
X155000000Y-98491800D01*
X155000000Y-82000000D01*
X137000000Y-82000000D01*
X137000000Y-93540800D01*
X136980315Y-93607839D01*
X136927511Y-93653594D01*
X136876000Y-93664800D01*
X135989577Y-93664800D01*
X135922538Y-93645115D01*
X135876783Y-93592311D01*
X135866839Y-93523153D01*
X135884038Y-93475703D01*
X135934356Y-93394124D01*
X135934358Y-93394119D01*
X135989505Y-93227697D01*
X135989506Y-93227690D01*
X135999999Y-93124986D01*
X136000000Y-93124973D01*
X136000000Y-91300000D01*
X127575000Y-91300000D01*
X127575000Y-93824999D01*
X128468762Y-93824999D01*
X128535801Y-93844684D01*
X128581556Y-93897488D01*
X128591500Y-93966646D01*
X128562475Y-94030202D01*
X128556443Y-94036680D01*
X128129442Y-94463681D01*
X128068119Y-94497166D01*
X128041761Y-94500000D01*
X124644366Y-94500000D01*
X124577327Y-94480315D01*
X124556687Y-94463683D01*
X123562321Y-93469367D01*
X123528834Y-93408045D01*
X123526000Y-93381684D01*
X123526000Y-93124986D01*
X124200001Y-93124986D01*
X124210494Y-93227697D01*
X124265641Y-93394119D01*
X124265643Y-93394124D01*
X124357684Y-93543345D01*
X124481654Y-93667315D01*
X124630875Y-93759356D01*
X124630880Y-93759358D01*
X124797302Y-93814505D01*
X124797310Y-93814506D01*
X124881954Y-93823154D01*
X124889263Y-93824999D01*
X124893695Y-93824999D01*
X124906310Y-93825642D01*
X124913462Y-93826373D01*
X124921420Y-93824999D01*
X127074999Y-93824999D01*
X127075000Y-93824998D01*
X127075000Y-91300000D01*
X124200001Y-91300000D01*
X124200001Y-93124986D01*
X123526000Y-93124986D01*
X123526000Y-91468645D01*
X123525999Y-91468641D01*
X123502383Y-91349912D01*
X123500000Y-91325721D01*
X123500000Y-90800000D01*
X124200000Y-90800000D01*
X127075000Y-90800000D01*
X127575000Y-90800000D01*
X132625000Y-90800000D01*
X133125000Y-90800000D01*
X135999999Y-90800000D01*
X135999999Y-88875000D01*
X133125000Y-88875000D01*
X133125000Y-90800000D01*
X132625000Y-90800000D01*
X132625000Y-88875000D01*
X127575000Y-88875000D01*
X127575000Y-90800000D01*
X127075000Y-90800000D01*
X127075000Y-88875000D01*
X124200000Y-88875000D01*
X124200000Y-90800000D01*
X123500000Y-90800000D01*
X123500000Y-88500000D01*
X117124000Y-88500000D01*
X117056961Y-88480315D01*
X117011206Y-88427511D01*
X117000000Y-88376000D01*
X117000000Y-88375000D01*
X124200000Y-88375000D01*
X127075000Y-88375000D01*
X127575000Y-88375000D01*
X129850000Y-88375000D01*
X130350000Y-88375000D01*
X132625000Y-88375000D01*
X133125000Y-88375000D01*
X135999999Y-88375000D01*
X135999999Y-88281113D01*
X136000000Y-88281092D01*
X136000000Y-86450000D01*
X133125000Y-86450000D01*
X133125000Y-88375000D01*
X132625000Y-88375000D01*
X132625000Y-86450000D01*
X130350000Y-86450000D01*
X130350000Y-88375000D01*
X129850000Y-88375000D01*
X129850000Y-86450000D01*
X127575000Y-86450000D01*
X127575000Y-88375000D01*
X127075000Y-88375000D01*
X127075000Y-86450000D01*
X124200000Y-86450000D01*
X124200000Y-88375000D01*
X117000000Y-88375000D01*
X117000000Y-87172844D01*
X119200000Y-87172844D01*
X119206401Y-87232372D01*
X119206403Y-87232379D01*
X119256645Y-87367086D01*
X119256649Y-87367093D01*
X119342809Y-87482187D01*
X119342812Y-87482190D01*
X119457906Y-87568350D01*
X119457913Y-87568354D01*
X119592620Y-87618596D01*
X119592627Y-87618598D01*
X119652155Y-87624999D01*
X119652172Y-87625000D01*
X120600000Y-87625000D01*
X121100000Y-87625000D01*
X122047828Y-87625000D01*
X122047844Y-87624999D01*
X122107372Y-87618598D01*
X122107379Y-87618596D01*
X122242086Y-87568354D01*
X122242093Y-87568350D01*
X122357187Y-87482190D01*
X122357190Y-87482187D01*
X122443350Y-87367093D01*
X122443354Y-87367086D01*
X122493596Y-87232379D01*
X122493598Y-87232372D01*
X122499999Y-87172844D01*
X122500000Y-87172827D01*
X122500000Y-86700000D01*
X121100000Y-86700000D01*
X121100000Y-87625000D01*
X120600000Y-87625000D01*
X120600000Y-86700000D01*
X119200000Y-86700000D01*
X119200000Y-87172844D01*
X117000000Y-87172844D01*
X117000000Y-85727155D01*
X119200000Y-85727155D01*
X119200000Y-86200000D01*
X120600000Y-86200000D01*
X121100000Y-86200000D01*
X122500000Y-86200000D01*
X122500000Y-85727172D01*
X122499999Y-85727155D01*
X122493598Y-85667627D01*
X122493596Y-85667620D01*
X122443354Y-85532913D01*
X122443350Y-85532906D01*
X122357190Y-85417812D01*
X122357187Y-85417809D01*
X122242093Y-85331649D01*
X122242086Y-85331645D01*
X122107379Y-85281403D01*
X122107372Y-85281401D01*
X122047844Y-85275000D01*
X121100000Y-85275000D01*
X121100000Y-86200000D01*
X120600000Y-86200000D01*
X120600000Y-85275000D01*
X119652155Y-85275000D01*
X119592627Y-85281401D01*
X119592620Y-85281403D01*
X119457913Y-85331645D01*
X119457906Y-85331649D01*
X119342812Y-85417809D01*
X119342809Y-85417812D01*
X119256649Y-85532906D01*
X119256645Y-85532913D01*
X119206403Y-85667620D01*
X119206401Y-85667627D01*
X119200000Y-85727155D01*
X117000000Y-85727155D01*
X117000000Y-84125015D01*
X124200000Y-84125015D01*
X124200000Y-85950000D01*
X127075000Y-85950000D01*
X127575000Y-85950000D01*
X129850000Y-85950000D01*
X130350000Y-85950000D01*
X132625000Y-85950000D01*
X133125000Y-85950000D01*
X135999999Y-85950000D01*
X135999999Y-84125028D01*
X135999998Y-84125013D01*
X135989505Y-84022302D01*
X135934358Y-83855880D01*
X135934356Y-83855875D01*
X135842315Y-83706654D01*
X135718345Y-83582684D01*
X135569124Y-83490643D01*
X135569119Y-83490641D01*
X135402697Y-83435494D01*
X135402690Y-83435493D01*
X135299986Y-83425000D01*
X133125000Y-83425000D01*
X133125000Y-85950000D01*
X132625000Y-85950000D01*
X132625000Y-83425000D01*
X130350000Y-83425000D01*
X130350000Y-85950000D01*
X129850000Y-85950000D01*
X129850000Y-83425000D01*
X127575000Y-83425000D01*
X127575000Y-85950000D01*
X127075000Y-85950000D01*
X127075000Y-83425000D01*
X124900028Y-83425000D01*
X124900012Y-83425001D01*
X124797302Y-83435494D01*
X124630880Y-83490641D01*
X124630875Y-83490643D01*
X124481654Y-83582684D01*
X124357684Y-83706654D01*
X124265643Y-83855875D01*
X124265641Y-83855880D01*
X124210494Y-84022301D01*
X124210023Y-84025221D01*
X124209852Y-84028589D01*
X124200000Y-84125015D01*
X117000000Y-84125015D01*
X117000000Y-80632500D01*
X117019685Y-80565461D01*
X117072489Y-80519706D01*
X117124000Y-80508500D01*
X157000000Y-80508500D01*
X157000000Y-82500000D01*
G37*
%TD.AperFunction*%
%TD*%
%TA.AperFunction,Conductor*%
%TO.N,GND*%
G36*
X198361740Y-110898187D02*
G01*
X198378076Y-110874859D01*
X198432653Y-110831234D01*
X198502151Y-110824040D01*
X198564506Y-110855563D01*
X198599920Y-110915793D01*
X198603650Y-110946374D01*
X198599999Y-112099998D01*
X198600000Y-112099999D01*
X198600000Y-112100000D01*
X209576000Y-112100000D01*
X209643039Y-112119685D01*
X209688794Y-112172489D01*
X209700000Y-112224000D01*
X209700000Y-115775091D01*
X209680315Y-115842130D01*
X209627511Y-115887885D01*
X209575095Y-115899088D01*
X200611218Y-115833657D01*
X200571946Y-115825699D01*
X200571707Y-115826490D01*
X200374270Y-115766597D01*
X200174999Y-115746971D01*
X199975731Y-115766596D01*
X199792831Y-115822079D01*
X199755931Y-115827415D01*
X196123095Y-115800898D01*
X196056201Y-115780724D01*
X196010833Y-115727588D01*
X196000000Y-115676901D01*
X196000000Y-110922634D01*
X196019685Y-110855595D01*
X196072489Y-110809840D01*
X196141647Y-110799896D01*
X196205203Y-110828921D01*
X196225575Y-110851511D01*
X196258258Y-110898187D01*
X196258259Y-110898188D01*
X196929000Y-110227447D01*
X196929000Y-110250160D01*
X196954964Y-110347061D01*
X197005124Y-110433940D01*
X197076060Y-110504876D01*
X197162939Y-110555036D01*
X197259840Y-110581000D01*
X197282553Y-110581000D01*
X196611810Y-111251740D01*
X196676590Y-111297099D01*
X196676592Y-111297100D01*
X196876715Y-111390419D01*
X196876729Y-111390424D01*
X197090013Y-111447573D01*
X197090023Y-111447575D01*
X197309999Y-111466821D01*
X197310001Y-111466821D01*
X197529976Y-111447575D01*
X197529986Y-111447573D01*
X197743270Y-111390424D01*
X197743284Y-111390419D01*
X197943407Y-111297100D01*
X197943417Y-111297094D01*
X198008188Y-111251741D01*
X197337448Y-110581000D01*
X197360160Y-110581000D01*
X197457061Y-110555036D01*
X197543940Y-110504876D01*
X197614876Y-110433940D01*
X197665036Y-110347061D01*
X197691000Y-110250160D01*
X197691000Y-110227447D01*
X198361740Y-110898187D01*
G37*
%TD.AperFunction*%
%TA.AperFunction,Conductor*%
G36*
X198361741Y-85498188D02*
G01*
X198407094Y-85433417D01*
X198407095Y-85433416D01*
X198448116Y-85345446D01*
X198494288Y-85293007D01*
X198561482Y-85273854D01*
X198628363Y-85294069D01*
X198673698Y-85347234D01*
X198684498Y-85398242D01*
X198608350Y-109461122D01*
X198588454Y-109528099D01*
X198535505Y-109573687D01*
X198466316Y-109583411D01*
X198402852Y-109554186D01*
X198382776Y-109531853D01*
X198361740Y-109501811D01*
X198361740Y-109501810D01*
X197691000Y-110172551D01*
X197691000Y-110149840D01*
X197665036Y-110052939D01*
X197614876Y-109966060D01*
X197543940Y-109895124D01*
X197457061Y-109844964D01*
X197360160Y-109819000D01*
X197337448Y-109819000D01*
X198008188Y-109148259D01*
X198008187Y-109148258D01*
X197943411Y-109102901D01*
X197943405Y-109102898D01*
X197743284Y-109009580D01*
X197743270Y-109009575D01*
X197529986Y-108952426D01*
X197529976Y-108952424D01*
X197310001Y-108933179D01*
X197309999Y-108933179D01*
X197090023Y-108952424D01*
X197090013Y-108952426D01*
X196876729Y-109009575D01*
X196876720Y-109009579D01*
X196676590Y-109102901D01*
X196611811Y-109148258D01*
X197282553Y-109819000D01*
X197259840Y-109819000D01*
X197162939Y-109844964D01*
X197076060Y-109895124D01*
X197005124Y-109966060D01*
X196954964Y-110052939D01*
X196929000Y-110149840D01*
X196929000Y-110172553D01*
X196258257Y-109501810D01*
X196225576Y-109548487D01*
X196171000Y-109592113D01*
X196101501Y-109599307D01*
X196039146Y-109567785D01*
X196003731Y-109507556D01*
X196000000Y-109477365D01*
X196000000Y-85522634D01*
X196019685Y-85455595D01*
X196072489Y-85409840D01*
X196141647Y-85399896D01*
X196205203Y-85428921D01*
X196225575Y-85451511D01*
X196258258Y-85498187D01*
X196258259Y-85498188D01*
X196929000Y-84827447D01*
X196929000Y-84850160D01*
X196954964Y-84947061D01*
X197005124Y-85033940D01*
X197076060Y-85104876D01*
X197162939Y-85155036D01*
X197259840Y-85181000D01*
X197282553Y-85181000D01*
X196611810Y-85851740D01*
X196676590Y-85897099D01*
X196676592Y-85897100D01*
X196876715Y-85990419D01*
X196876729Y-85990424D01*
X197090013Y-86047573D01*
X197090023Y-86047575D01*
X197309999Y-86066821D01*
X197310001Y-86066821D01*
X197529976Y-86047575D01*
X197529986Y-86047573D01*
X197743270Y-85990424D01*
X197743284Y-85990419D01*
X197943407Y-85897100D01*
X197943417Y-85897094D01*
X198008188Y-85851741D01*
X197337448Y-85181000D01*
X197360160Y-85181000D01*
X197457061Y-85155036D01*
X197543940Y-85104876D01*
X197614876Y-85033940D01*
X197665036Y-84947061D01*
X197691000Y-84850160D01*
X197691000Y-84827447D01*
X198361741Y-85498188D01*
G37*
%TD.AperFunction*%
%TA.AperFunction,Conductor*%
G36*
X198642619Y-80528185D02*
G01*
X198688374Y-80580989D01*
X198699579Y-80632892D01*
X198688257Y-84210602D01*
X198668361Y-84277579D01*
X198615412Y-84323167D01*
X198546223Y-84332891D01*
X198482759Y-84303666D01*
X198451876Y-84262615D01*
X198407096Y-84166586D01*
X198361741Y-84101811D01*
X198361740Y-84101810D01*
X197691000Y-84772551D01*
X197691000Y-84749840D01*
X197665036Y-84652939D01*
X197614876Y-84566060D01*
X197543940Y-84495124D01*
X197457061Y-84444964D01*
X197360160Y-84419000D01*
X197337448Y-84419000D01*
X198008188Y-83748259D01*
X198008187Y-83748258D01*
X197943411Y-83702901D01*
X197943405Y-83702898D01*
X197743284Y-83609580D01*
X197743270Y-83609575D01*
X197529986Y-83552426D01*
X197529976Y-83552424D01*
X197310001Y-83533179D01*
X197309999Y-83533179D01*
X197090023Y-83552424D01*
X197090013Y-83552426D01*
X196876729Y-83609575D01*
X196876720Y-83609579D01*
X196676590Y-83702901D01*
X196611811Y-83748258D01*
X197282553Y-84419000D01*
X197259840Y-84419000D01*
X197162939Y-84444964D01*
X197076060Y-84495124D01*
X197005124Y-84566060D01*
X196954964Y-84652939D01*
X196929000Y-84749840D01*
X196929000Y-84772553D01*
X196258257Y-84101810D01*
X196225576Y-84148487D01*
X196171000Y-84192113D01*
X196101501Y-84199307D01*
X196039146Y-84167785D01*
X196003731Y-84107556D01*
X196000000Y-84077365D01*
X196000000Y-82500000D01*
X157000000Y-82500000D01*
X157000000Y-80508500D01*
X198575580Y-80508500D01*
X198642619Y-80528185D01*
G37*
%TD.AperFunction*%
%TD*%
M02*
