M48
; DRILL file {KiCad 8.0.4-8.0.4-0~ubuntu22.04.1} date 2024-08-07T11:40:38-0600
; FORMAT={-:-/ absolute / inch / decimal}
; #@! TF.CreationDate,2024-08-07T11:40:38-06:00
; #@! TF.GenerationSoftware,Kicad,Pcbnew,8.0.4-8.0.4-0~ubuntu22.04.1
; #@! TF.FileFunction,Plated,1,2,PTH
FMAT,2
INCH
; #@! TA.AperFunction,Plated,PTH,ViaDrill
T1C0.0200
; #@! TA.AperFunction,Plated,PTH,ComponentDrill
T2C0.0300
; #@! TA.AperFunction,Plated,PTH,ComponentDrill
T3C0.0394
; #@! TA.AperFunction,Plated,PTH,ComponentDrill
T4C0.0472
; #@! TA.AperFunction,Plated,PTH,ComponentDrill
T5C0.0512
; #@! TA.AperFunction,Plated,PTH,ComponentDrill
T6C0.0640
; #@! TA.AperFunction,Plated,PTH,ViaDrill
T7C0.1200
%
G90
G05
T1
X4.811Y-4.063
X5.126Y-3.9606
X5.2992Y-3.8898
X5.3104Y-3.9978
X5.4803Y-3.9291
X6.2795Y-4.9764
X6.378Y-5.0315
X6.5748Y-3.7953
X6.7165Y-5.0543
X6.7559Y-4.811
X6.8335Y-4.8206
X6.8661Y-5.0018
X6.8892Y-4.5766
X7.0315Y-5.1068
X7.3622Y-5.0394
X7.3858Y-4.6378
X7.3963Y-4.4968
X7.4803Y-4.7428
X7.5299Y-4.0003
X7.5591Y-5.0472
X7.6299Y-5.1102
X7.6717Y-4.5774
X7.6929Y-5.1627
X7.7165Y-4.727
X7.8106Y-5.1728
X7.8334Y-5.0
X7.8591Y-4.8562
X7.8809Y-4.5972
X8.1024Y-5.1102
T2
X6.4681Y-3.3386
X6.4681Y-4.3386
X6.5681Y-3.3386
X6.5681Y-4.3386
X6.6681Y-3.3386
X6.6681Y-4.3386
X6.7681Y-3.3386
X6.7681Y-4.3386
X6.8681Y-3.3386
X6.8681Y-4.3386
X6.9681Y-3.3386
X6.9681Y-4.3386
X7.0681Y-3.3386
X7.0681Y-4.3386
X7.1681Y-3.3386
X7.1681Y-4.3386
X7.2681Y-3.3386
X7.2681Y-4.3386
X7.3681Y-3.3386
X7.3681Y-4.3386
X7.4681Y-3.3386
X7.4681Y-4.3386
X7.5681Y-3.3386
X7.5681Y-4.3386
X7.6681Y-3.3386
X7.6681Y-4.3386
X7.7681Y-3.3386
X7.7681Y-4.3386
X7.8681Y-3.3386
X7.8681Y-4.3386
T3
X6.0039Y-3.9225
X6.0039Y-4.1194
T4
X4.5276Y-3.9085
X4.5276Y-4.1053
T5
X4.0937Y-3.4252
X4.0937Y-3.622
X6.2598Y-5.7677
X6.4567Y-5.7677
X6.6535Y-5.7677
X6.8504Y-5.7677
X7.0472Y-5.7677
X7.2441Y-5.7677
X7.4409Y-5.7677
X7.6378Y-5.7677
X7.8346Y-5.7677
X8.0315Y-5.7677
X8.2283Y-5.7677
T6
X5.5906Y-3.9354
X5.5906Y-4.0354
X5.5906Y-4.1354
T7
X3.9528Y-4.5827
X5.6614Y-5.8425
X8.2677Y-3.2756
M30
