M48
; DRILL file {KiCad 8.0.9-8.0.9-0~ubuntu24.04.1} date 2025-04-16T22:09:21-0600
; FORMAT={-:-/ absolute / inch / decimal}
; #@! TF.CreationDate,2025-04-16T22:09:21-06:00
; #@! TF.GenerationSoftware,Kicad,Pcbnew,8.0.9-8.0.9-0~ubuntu24.04.1
; #@! TF.FileFunction,Plated,1,2,PTH
FMAT,2
INCH
; #@! TA.AperFunction,Plated,PTH,ViaDrill
T1C0.0118
; #@! TA.AperFunction,Plated,PTH,ViaDrill
T2C0.0200
; #@! TA.AperFunction,Plated,PTH,ViaDrill
T3C0.0250
; #@! TA.AperFunction,Plated,PTH,ComponentDrill
T4C0.0300
; #@! TA.AperFunction,Plated,PTH,ComponentDrill
T5C0.0394
; #@! TA.AperFunction,Plated,PTH,ComponentDrill
T6C0.0400
; #@! TA.AperFunction,Plated,PTH,ComponentDrill
T7C0.0512
; #@! TA.AperFunction,Plated,PTH,ComponentDrill
T8C0.0640
; #@! TA.AperFunction,Plated,PTH,ViaDrill
T9C0.1200
%
G90
G05
T1
X5.0709Y-3.3228
X5.3307Y-3.5433
X5.3622Y-3.5433
X5.3937Y-3.5433
X5.4252Y-3.5433
X5.4567Y-3.5433
X5.4882Y-3.5433
X5.5197Y-3.5433
X5.5512Y-3.5433
X5.5827Y-3.5433
X5.6142Y-3.5433
X5.6457Y-3.5433
X5.685Y-4.0394
X5.685Y-4.0709
X5.7087Y-4.0394
X5.7087Y-4.0709
X5.7323Y-4.0394
X5.7323Y-4.0709
X5.7717Y-3.7717
X5.7717Y-3.7953
X5.7717Y-3.8268
X5.8031Y-3.7717
X5.8031Y-3.7953
X5.8031Y-3.8268
X5.811Y-3.937
X5.8189Y-3.9055
X5.8346Y-3.7717
X5.8346Y-3.7953
X5.8346Y-3.8268
X5.8425Y-3.937
X5.8504Y-3.9055
X5.8583Y-4.1181
X5.8583Y-4.3622
X5.8583Y-4.3937
X5.874Y-3.937
X5.8819Y-3.9055
X5.8898Y-4.1181
X5.8898Y-4.3622
X5.8898Y-4.3937
X5.9055Y-3.937
X5.9134Y-4.1181
X5.9213Y-4.3622
X5.9213Y-4.3937
X5.9449Y-3.9764
X5.9449Y-4.0157
X5.9449Y-4.0551
X5.9449Y-4.1181
X5.9528Y-4.3622
X5.9528Y-4.3937
X6.189Y-3.9685
X6.7874Y-4.4567
X6.9213Y-4.5591
X7.5197Y-4.2992
X7.6535Y-4.4882
T2
X6.4076Y-5.0018
X6.6732Y-5.0422
X6.7559Y-4.811
X6.8335Y-4.8206
X6.8661Y-5.0018
X7.0315Y-5.1068
X7.3622Y-5.0394
X7.3858Y-4.6378
X7.3963Y-4.4968
X7.4803Y-4.7428
X7.5817Y-5.0236
X7.6299Y-5.1102
X7.6929Y-5.1627
X7.8325Y-5.1509
X7.8334Y-5.0
X7.8591Y-4.8562
X7.8809Y-4.5972
X8.0872Y-5.1398
T3
X3.8976Y-4.4252
T4
X6.4681Y-3.3386
X6.4681Y-4.3386
X6.5681Y-3.3386
X6.5681Y-4.3386
X6.6681Y-3.3386
X6.6681Y-4.3386
X6.7681Y-3.3386
X6.7681Y-4.3386
X6.8681Y-3.3386
X6.8681Y-4.3386
X6.9681Y-3.3386
X6.9681Y-4.3386
X7.0681Y-3.3386
X7.0681Y-4.3386
X7.1681Y-3.3386
X7.1681Y-4.3386
X7.2681Y-3.3386
X7.2681Y-4.3386
X7.3681Y-3.3386
X7.3681Y-4.3386
X7.4681Y-3.3386
X7.4681Y-4.3386
X7.5681Y-3.3386
X7.5681Y-4.3386
X7.6681Y-3.3386
X7.6681Y-4.3386
X7.7681Y-3.3386
X7.7681Y-4.3386
X7.8681Y-3.3386
X7.8681Y-4.3386
T5
X3.9213Y-3.4567
X4.0213Y-3.4567
T6
X4.6654Y-4.1339
X4.6654Y-4.3509
X5.3228Y-4.1437
X5.3228Y-4.3607
T7
X4.0333Y-3.7283
X4.0333Y-3.9252
X6.2598Y-5.7677
X6.4567Y-5.7677
X6.6535Y-5.7677
X6.8504Y-5.7677
X7.0472Y-5.7677
X7.2441Y-5.7677
X7.4409Y-5.7677
X7.6378Y-5.7677
X7.8346Y-5.7677
X8.0315Y-5.7677
X8.2283Y-5.7677
T8
X5.9417Y-4.2362
X6.0417Y-4.2362
X6.1417Y-4.2362
T9
X3.9528Y-4.5827
X3.9606Y-3.2835
X5.6614Y-5.8425
X8.2362Y-4.8976
X8.2598Y-3.2756
M30
