%TF.GenerationSoftware,KiCad,Pcbnew,8.0.6-8.0.6-0~ubuntu24.04.1*%
%TF.CreationDate,2024-10-17T09:08:11-06:00*%
%TF.ProjectId,Sprinkler_Controller_V2,53707269-6e6b-46c6-9572-5f436f6e7472,rev?*%
%TF.SameCoordinates,Original*%
%TF.FileFunction,Copper,L1,Top*%
%TF.FilePolarity,Positive*%
%FSLAX46Y46*%
G04 Gerber Fmt 4.6, Leading zero omitted, Abs format (unit mm)*
G04 Created by KiCad (PCBNEW 8.0.6-8.0.6-0~ubuntu24.04.1) date 2024-10-17 09:08:11*
%MOMM*%
%LPD*%
G01*
G04 APERTURE LIST*
G04 Aperture macros list*
%AMRoundRect*
0 Rectangle with rounded corners*
0 $1 Rounding radius*
0 $2 $3 $4 $5 $6 $7 $8 $9 X,Y pos of 4 corners*
0 Add a 4 corners polygon primitive as box body*
4,1,4,$2,$3,$4,$5,$6,$7,$8,$9,$2,$3,0*
0 Add four circle primitives for the rounded corners*
1,1,$1+$1,$2,$3*
1,1,$1+$1,$4,$5*
1,1,$1+$1,$6,$7*
1,1,$1+$1,$8,$9*
0 Add four rect primitives between the rounded corners*
20,1,$1+$1,$2,$3,$4,$5,0*
20,1,$1+$1,$4,$5,$6,$7,0*
20,1,$1+$1,$6,$7,$8,$9,0*
20,1,$1+$1,$8,$9,$2,$3,0*%
G04 Aperture macros list end*
%TA.AperFunction,SMDPad,CuDef*%
%ADD10RoundRect,0.250000X0.475000X-0.250000X0.475000X0.250000X-0.475000X0.250000X-0.475000X-0.250000X0*%
%TD*%
%TA.AperFunction,ComponentPad*%
%ADD11R,1.524000X1.524000*%
%TD*%
%TA.AperFunction,ComponentPad*%
%ADD12C,1.524000*%
%TD*%
%TA.AperFunction,SMDPad,CuDef*%
%ADD13RoundRect,0.250000X0.250000X0.475000X-0.250000X0.475000X-0.250000X-0.475000X0.250000X-0.475000X0*%
%TD*%
%TA.AperFunction,SMDPad,CuDef*%
%ADD14RoundRect,0.147500X0.172500X-0.147500X0.172500X0.147500X-0.172500X0.147500X-0.172500X-0.147500X0*%
%TD*%
%TA.AperFunction,SMDPad,CuDef*%
%ADD15RoundRect,0.200000X-0.200000X0.300000X-0.200000X-0.300000X0.200000X-0.300000X0.200000X0.300000X0*%
%TD*%
%TA.AperFunction,ComponentPad*%
%ADD16R,1.700000X1.700000*%
%TD*%
%TA.AperFunction,ComponentPad*%
%ADD17O,1.700000X1.700000*%
%TD*%
%TA.AperFunction,ComponentPad*%
%ADD18C,2.133600*%
%TD*%
%TA.AperFunction,SMDPad,CuDef*%
%ADD19RoundRect,0.250000X-0.475000X0.250000X-0.475000X-0.250000X0.475000X-0.250000X0.475000X0.250000X0*%
%TD*%
%TA.AperFunction,SMDPad,CuDef*%
%ADD20R,2.300000X1.350000*%
%TD*%
%TA.AperFunction,ComponentPad*%
%ADD21R,2.600000X2.600000*%
%TD*%
%TA.AperFunction,ComponentPad*%
%ADD22C,2.600000*%
%TD*%
%TA.AperFunction,SMDPad,CuDef*%
%ADD23R,0.700000X1.505000*%
%TD*%
%TA.AperFunction,SMDPad,CuDef*%
%ADD24RoundRect,0.250000X-0.450000X0.262500X-0.450000X-0.262500X0.450000X-0.262500X0.450000X0.262500X0*%
%TD*%
%TA.AperFunction,SMDPad,CuDef*%
%ADD25R,3.300000X3.175000*%
%TD*%
%TA.AperFunction,SMDPad,CuDef*%
%ADD26R,1.003300X0.558800*%
%TD*%
%TA.AperFunction,SMDPad,CuDef*%
%ADD27RoundRect,0.250000X0.262500X0.450000X-0.262500X0.450000X-0.262500X-0.450000X0.262500X-0.450000X0*%
%TD*%
%TA.AperFunction,ComponentPad*%
%ADD28R,2.400000X2.400000*%
%TD*%
%TA.AperFunction,ComponentPad*%
%ADD29C,2.400000*%
%TD*%
%TA.AperFunction,ViaPad*%
%ADD30C,5.080000*%
%TD*%
%TA.AperFunction,ViaPad*%
%ADD31C,0.600000*%
%TD*%
%TA.AperFunction,ViaPad*%
%ADD32C,1.016000*%
%TD*%
%TA.AperFunction,ViaPad*%
%ADD33C,1.905000*%
%TD*%
%TA.AperFunction,Conductor*%
%ADD34C,0.381000*%
%TD*%
%TA.AperFunction,Conductor*%
%ADD35C,0.635000*%
%TD*%
%TA.AperFunction,Conductor*%
%ADD36C,1.270000*%
%TD*%
%TA.AperFunction,Conductor*%
%ADD37C,0.558800*%
%TD*%
%TA.AperFunction,Conductor*%
%ADD38C,0.508000*%
%TD*%
%TA.AperFunction,Conductor*%
%ADD39C,1.016000*%
%TD*%
%TA.AperFunction,Conductor*%
%ADD40C,0.457200*%
%TD*%
%TA.AperFunction,Conductor*%
%ADD41C,1.905000*%
%TD*%
%TA.AperFunction,Conductor*%
%ADD42C,0.889000*%
%TD*%
G04 APERTURE END LIST*
D10*
%TO.P,C4,1*%
%TO.N,/Vin*%
X147600000Y-103150000D03*
%TO.P,C4,2*%
%TO.N,GND*%
X147600000Y-101250000D03*
%TD*%
D11*
%TO.P,U1,1,EN*%
%TO.N,unconnected-(U1-EN-Pad1)*%
X164290000Y-110200000D03*
D12*
%TO.P,U1,2,SENSOR_VP*%
%TO.N,unconnected-(U1-SENSOR_VP-Pad2)*%
X166830000Y-110200000D03*
%TO.P,U1,3,SENSOR_VN*%
%TO.N,unconnected-(U1-SENSOR_VN-Pad3)*%
X169370000Y-110200000D03*
%TO.P,U1,4,IO34*%
%TO.N,unconnected-(U1-IO34-Pad4)*%
X171910000Y-110200000D03*
%TO.P,U1,5,IO35*%
%TO.N,unconnected-(U1-IO35-Pad5)*%
X174450000Y-110200000D03*
%TO.P,U1,6,IO32*%
%TO.N,Net-(U1-IO32)*%
X176990000Y-110200000D03*
%TO.P,U1,7,IO33*%
%TO.N,Net-(U1-IO33)*%
X179530000Y-110200000D03*
%TO.P,U1,8,IO25*%
%TO.N,Net-(U1-IO25)*%
X182070000Y-110200000D03*
%TO.P,U1,9,IO26*%
%TO.N,Net-(U1-IO26)*%
X184610000Y-110200000D03*
%TO.P,U1,10,IO27*%
%TO.N,Net-(U1-IO27)*%
X187150000Y-110200000D03*
%TO.P,U1,11,IO14*%
%TO.N,Net-(U1-IO14)*%
X189690000Y-110200000D03*
%TO.P,U1,12,IO12*%
%TO.N,unconnected-(U1-IO12-Pad12)*%
X192230000Y-110200000D03*
%TO.P,U1,13,IO13*%
%TO.N,Net-(U1-IO13)*%
X194770000Y-110200000D03*
%TO.P,U1,14,GND*%
%TO.N,GND*%
X197310000Y-110200000D03*
%TO.P,U1,15,VIN*%
%TO.N,VCC*%
X199850000Y-110200000D03*
%TO.P,U1,16,3V3*%
%TO.N,unconnected-(U1-3V3-Pad16)*%
X199850000Y-84800000D03*
%TO.P,U1,17,GND*%
%TO.N,GND*%
X197310000Y-84800000D03*
%TO.P,U1,18,IO15*%
%TO.N,unconnected-(U1-IO15-Pad18)*%
X194770000Y-84800000D03*
%TO.P,U1,19,IO2*%
%TO.N,unconnected-(U1-IO2-Pad19)*%
X192230000Y-84800000D03*
%TO.P,U1,20,IO4*%
%TO.N,unconnected-(U1-IO4-Pad20)*%
X189690000Y-84800000D03*
%TO.P,U1,21,IO16*%
%TO.N,unconnected-(U1-IO16-Pad21)*%
X187150000Y-84800000D03*
%TO.P,U1,22,IO17*%
%TO.N,unconnected-(U1-IO17-Pad22)*%
X184610000Y-84800000D03*
%TO.P,U1,23,IO5*%
%TO.N,unconnected-(U1-IO5-Pad23)*%
X182070000Y-84800000D03*
%TO.P,U1,24,IO18*%
%TO.N,Net-(U1-IO18)*%
X179530000Y-84800000D03*
%TO.P,U1,25,IO19*%
%TO.N,Net-(U1-IO19)*%
X176990000Y-84800000D03*
%TO.P,U1,26,IO21*%
%TO.N,Net-(U1-IO21)*%
X174450000Y-84800000D03*
%TO.P,U1,27,RXD0/IO3*%
%TO.N,unconnected-(U1-RXD0{slash}IO3-Pad27)*%
X171910000Y-84800000D03*
%TO.P,U1,28,TXD0/IO1*%
%TO.N,unconnected-(U1-TXD0{slash}IO1-Pad28)*%
X169370000Y-84800000D03*
%TO.P,U1,29,IO22*%
%TO.N,unconnected-(U1-IO22-Pad29)*%
X166830000Y-84800000D03*
%TO.P,U1,30,IO23*%
%TO.N,unconnected-(U1-IO23-Pad30)*%
X164290000Y-84800000D03*
%TD*%
D13*
%TO.P,C3,1*%
%TO.N,/Vin*%
X146950000Y-105800000D03*
%TO.P,C3,2*%
%TO.N,GND*%
X145050000Y-105800000D03*
%TD*%
D14*
%TO.P,D3,1,K*%
%TO.N,Net-(D3-K)*%
X162000000Y-130485000D03*
%TO.P,D3,2,A*%
%TO.N,Net-(D3-A)*%
X162000000Y-129515000D03*
%TD*%
D15*
%TO.P,U2,1,Input+*%
%TO.N,Net-(D3-K)*%
X162040000Y-132500000D03*
%TO.P,U2,2,Input-*%
%TO.N,GND*%
X159500000Y-132500000D03*
%TO.P,U2,3,Output+*%
%TO.N,AC*%
X162040000Y-138750000D03*
%TO.P,U2,4,Output-*%
%TO.N,Net-(J2-Pin_1)*%
X159500000Y-138750000D03*
%TD*%
D14*
%TO.P,D9,1,K*%
%TO.N,Net-(D9-K)*%
X192000000Y-130470000D03*
%TO.P,D9,2,A*%
%TO.N,Net-(D9-A)*%
X192000000Y-129500000D03*
%TD*%
D15*
%TO.P,U11,1,Input+*%
%TO.N,Net-(D12-K)*%
X207040000Y-132500000D03*
%TO.P,U11,2,Input-*%
%TO.N,GND*%
X204500000Y-132500000D03*
%TO.P,U11,3,Output+*%
%TO.N,AC*%
X207040000Y-138750000D03*
%TO.P,U11,4,Output-*%
%TO.N,Net-(J2-Pin_10)*%
X204500000Y-138750000D03*
%TD*%
D13*
%TO.P,C5,1*%
%TO.N,Net-(C5-Pad1)*%
X156350000Y-112200000D03*
%TO.P,C5,2*%
%TO.N,FB*%
X154450000Y-112200000D03*
%TD*%
D16*
%TO.P,SW1,1,A*%
%TO.N,AC_to_SW*%
X102140000Y-87800000D03*
D17*
%TO.P,SW1,2,B*%
%TO.N,AC*%
X99600000Y-87800000D03*
%TD*%
D18*
%TO.P,RV1,1,1*%
%TO.N,GND*%
X150920000Y-107600000D03*
%TO.P,RV1,2,2*%
%TO.N,FB*%
X153460000Y-107600000D03*
%TO.P,RV1,3,3*%
%TO.N,Net-(C5-Pad1)*%
X156000000Y-107600000D03*
%TD*%
D19*
%TO.P,C9,1*%
%TO.N,VCC*%
X136000000Y-86600000D03*
%TO.P,C9,2*%
%TO.N,GND*%
X136000000Y-88500000D03*
%TD*%
D14*
%TO.P,D7,1,K*%
%TO.N,Net-(D7-K)*%
X182000000Y-130485000D03*
%TO.P,D7,2,A*%
%TO.N,Net-(D7-A)*%
X182000000Y-129515000D03*
%TD*%
D20*
%TO.P,BR1,1,+*%
%TO.N,/Vin*%
X108325000Y-110350000D03*
%TO.P,BR1,2,-*%
%TO.N,GND*%
X108325000Y-105250000D03*
%TO.P,BR1,3,~_1*%
%TO.N,AC*%
X99275000Y-105250000D03*
%TO.P,BR1,4,~_2*%
%TO.N,GNDPWR*%
X99275000Y-110350000D03*
%TD*%
D19*
%TO.P,C8,1*%
%TO.N,VCC*%
X139400000Y-86550000D03*
%TO.P,C8,2*%
%TO.N,GND*%
X139400000Y-88450000D03*
%TD*%
D21*
%TO.P,J2,1,Pin_1*%
%TO.N,Net-(J2-Pin_1)*%
X159000000Y-146500000D03*
D22*
%TO.P,J2,2,Pin_2*%
%TO.N,Net-(J2-Pin_2)*%
X164000000Y-146500000D03*
%TO.P,J2,3,Pin_3*%
%TO.N,Net-(J2-Pin_3)*%
X169000000Y-146500000D03*
%TO.P,J2,4,Pin_4*%
%TO.N,Net-(J2-Pin_4)*%
X174000000Y-146500000D03*
%TO.P,J2,5,Pin_5*%
%TO.N,Net-(J2-Pin_5)*%
X179000000Y-146500000D03*
%TO.P,J2,6,Pin_6*%
%TO.N,Net-(J2-Pin_6)*%
X184000000Y-146500000D03*
%TO.P,J2,7,Pin_7*%
%TO.N,Net-(J2-Pin_7)*%
X189000000Y-146500000D03*
%TO.P,J2,8,Pin_8*%
%TO.N,Net-(J2-Pin_8)*%
X194000000Y-146500000D03*
%TO.P,J2,9,Pin_9*%
%TO.N,Net-(J2-Pin_9)*%
X199000000Y-146500000D03*
%TO.P,J2,10,Pin_10*%
%TO.N,Net-(J2-Pin_10)*%
X204000000Y-146500000D03*
%TO.P,J2,11,Pin_11*%
%TO.N,GNDPWR*%
X209000000Y-146500000D03*
%TD*%
D15*
%TO.P,U10,1,Input+*%
%TO.N,Net-(D11-K)*%
X202040000Y-132500000D03*
%TO.P,U10,2,Input-*%
%TO.N,GND*%
X199500000Y-132500000D03*
%TO.P,U10,3,Output+*%
%TO.N,AC*%
X202040000Y-138750000D03*
%TO.P,U10,4,Output-*%
%TO.N,Net-(J2-Pin_9)*%
X199500000Y-138750000D03*
%TD*%
D14*
%TO.P,D4,1,K*%
%TO.N,Net-(D4-K)*%
X167000000Y-130470000D03*
%TO.P,D4,2,A*%
%TO.N,Net-(D4-A)*%
X167000000Y-129500000D03*
%TD*%
%TO.P,D8,1,K*%
%TO.N,Net-(D8-K)*%
X187000000Y-130500000D03*
%TO.P,D8,2,A*%
%TO.N,Net-(D8-A)*%
X187000000Y-129530000D03*
%TD*%
%TO.P,D6,1,K*%
%TO.N,Net-(D6-K)*%
X177000000Y-130470000D03*
%TO.P,D6,2,A*%
%TO.N,Net-(D6-A)*%
X177000000Y-129500000D03*
%TD*%
%TO.P,D12,1,K*%
%TO.N,Net-(D12-K)*%
X207000000Y-130500000D03*
%TO.P,D12,2,A*%
%TO.N,Net-(D12-A)*%
X207000000Y-129530000D03*
%TD*%
D23*
%TO.P,RN2,1,1*%
%TO.N,unconnected-(RN2-Pad1)*%
X201445000Y-117952000D03*
%TO.P,RN2,2,2*%
%TO.N,Net-(U1-IO25)*%
X200175000Y-117952000D03*
%TO.P,RN2,3,3*%
%TO.N,Net-(U1-IO33)*%
X198905000Y-117952000D03*
%TO.P,RN2,4,4*%
%TO.N,Net-(U1-IO32)*%
X197635000Y-117952000D03*
%TO.P,RN2,5,5*%
%TO.N,Net-(U1-IO19)*%
X196365000Y-117952000D03*
%TO.P,RN2,6,6*%
%TO.N,Net-(U1-IO18)*%
X195095000Y-117952000D03*
%TO.P,RN2,7,7*%
%TO.N,unconnected-(RN2-Pad7)*%
X193825000Y-117952000D03*
%TO.P,RN2,8,8*%
%TO.N,unconnected-(RN2-Pad8)*%
X192555000Y-117952000D03*
%TO.P,RN2,9,9*%
%TO.N,unconnected-(RN2-Pad9)*%
X192555000Y-125048000D03*
%TO.P,RN2,10,10*%
%TO.N,unconnected-(RN2-Pad10)*%
X193825000Y-125048000D03*
%TO.P,RN2,11,11*%
%TO.N,Net-(D12-A)*%
X195095000Y-125048000D03*
%TO.P,RN2,12,12*%
%TO.N,Net-(D11-A)*%
X196365000Y-125048000D03*
%TO.P,RN2,13,13*%
%TO.N,Net-(D10-A)*%
X197635000Y-125048000D03*
%TO.P,RN2,14,14*%
%TO.N,Net-(D9-A)*%
X198905000Y-125048000D03*
%TO.P,RN2,15,15*%
%TO.N,Net-(D8-A)*%
X200175000Y-125048000D03*
%TO.P,RN2,16,16*%
%TO.N,unconnected-(RN2-Pad16)*%
X201445000Y-125048000D03*
%TD*%
D14*
%TO.P,D11,1,K*%
%TO.N,Net-(D11-K)*%
X202000000Y-130500000D03*
%TO.P,D11,2,A*%
%TO.N,Net-(D11-A)*%
X202000000Y-129530000D03*
%TD*%
D23*
%TO.P,RN1,1,1*%
%TO.N,unconnected-(RN1-Pad1)*%
X177445000Y-117952000D03*
%TO.P,RN1,2,2*%
%TO.N,Net-(U1-IO13)*%
X176175000Y-117952000D03*
%TO.P,RN1,3,3*%
%TO.N,Net-(U1-IO21)*%
X174905000Y-117952000D03*
%TO.P,RN1,4,4*%
%TO.N,Net-(U1-IO14)*%
X173635000Y-117952000D03*
%TO.P,RN1,5,5*%
%TO.N,Net-(U1-IO27)*%
X172365000Y-117952000D03*
%TO.P,RN1,6,6*%
%TO.N,Net-(U1-IO26)*%
X171095000Y-117952000D03*
%TO.P,RN1,7,7*%
%TO.N,unconnected-(RN1-Pad7)*%
X169825000Y-117952000D03*
%TO.P,RN1,8,8*%
%TO.N,unconnected-(RN1-Pad8)*%
X168555000Y-117952000D03*
%TO.P,RN1,9,9*%
%TO.N,unconnected-(RN1-Pad9)*%
X168555000Y-125048000D03*
%TO.P,RN1,10,10*%
%TO.N,unconnected-(RN1-Pad10)*%
X169825000Y-125048000D03*
%TO.P,RN1,11,11*%
%TO.N,Net-(D7-A)*%
X171095000Y-125048000D03*
%TO.P,RN1,12,12*%
%TO.N,Net-(D6-A)*%
X172365000Y-125048000D03*
%TO.P,RN1,13,13*%
%TO.N,Net-(D5-A)*%
X173635000Y-125048000D03*
%TO.P,RN1,14,14*%
%TO.N,Net-(D4-A)*%
X174905000Y-125048000D03*
%TO.P,RN1,15,15*%
%TO.N,Net-(D3-A)*%
X176175000Y-125048000D03*
%TO.P,RN1,16,16*%
%TO.N,unconnected-(RN1-Pad16)*%
X177445000Y-125048000D03*
%TD*%
D24*
%TO.P,R3,1*%
%TO.N,VCC*%
X131800000Y-85525000D03*
%TO.P,R3,2*%
%TO.N,Net-(D2-A)*%
X131800000Y-87350000D03*
%TD*%
D14*
%TO.P,D10,1,K*%
%TO.N,Net-(D10-K)*%
X197000000Y-130500000D03*
%TO.P,D10,2,A*%
%TO.N,Net-(D10-A)*%
X197000000Y-129530000D03*
%TD*%
D19*
%TO.P,C6,1*%
%TO.N,SW*%
X151600000Y-96900000D03*
%TO.P,C6,2*%
%TO.N,Net-(C6-Pad2)*%
X151600000Y-98800000D03*
%TD*%
%TO.P,C7,1*%
%TO.N,VCC*%
X142800000Y-86650000D03*
%TO.P,C7,2*%
%TO.N,GND*%
X142800000Y-88550000D03*
%TD*%
D15*
%TO.P,U7,1,Input+*%
%TO.N,Net-(D8-K)*%
X187040000Y-132500000D03*
%TO.P,U7,2,Input-*%
%TO.N,GND*%
X184500000Y-132500000D03*
%TO.P,U7,3,Output+*%
%TO.N,AC*%
X187040000Y-138750000D03*
%TO.P,U7,4,Output-*%
%TO.N,Net-(J2-Pin_6)*%
X184500000Y-138750000D03*
%TD*%
%TO.P,U4,1,Input+*%
%TO.N,Net-(D5-K)*%
X172040000Y-132500000D03*
%TO.P,U4,2,Input-*%
%TO.N,GND*%
X169500000Y-132500000D03*
%TO.P,U4,3,Output+*%
%TO.N,AC*%
X172040000Y-138750000D03*
%TO.P,U4,4,Output-*%
%TO.N,Net-(J2-Pin_3)*%
X169500000Y-138750000D03*
%TD*%
D25*
%TO.P,L1,1,1*%
%TO.N,SW*%
X151400000Y-93715000D03*
%TO.P,L1,2,2*%
%TO.N,VCC*%
X151400000Y-82285000D03*
%TD*%
D15*
%TO.P,U9,1,Input+*%
%TO.N,Net-(D10-K)*%
X197040000Y-132500000D03*
%TO.P,U9,2,Input-*%
%TO.N,GND*%
X194500000Y-132500000D03*
%TO.P,U9,3,Output+*%
%TO.N,AC*%
X197040000Y-138750000D03*
%TO.P,U9,4,Output-*%
%TO.N,Net-(J2-Pin_8)*%
X194500000Y-138750000D03*
%TD*%
%TO.P,U6,1,Input+*%
%TO.N,Net-(D7-K)*%
X182040000Y-132500000D03*
%TO.P,U6,2,Input-*%
%TO.N,GND*%
X179500000Y-132500000D03*
%TO.P,U6,3,Output+*%
%TO.N,AC*%
X182040000Y-138750000D03*
%TO.P,U6,4,Output-*%
%TO.N,Net-(J2-Pin_5)*%
X179500000Y-138750000D03*
%TD*%
D14*
%TO.P,D2,1,K*%
%TO.N,GND*%
X131800000Y-89950000D03*
%TO.P,D2,2,A*%
%TO.N,Net-(D2-A)*%
X131800000Y-88980000D03*
%TD*%
D15*
%TO.P,U5,1,Input+*%
%TO.N,Net-(D6-K)*%
X177040000Y-132500000D03*
%TO.P,U5,2,Input-*%
%TO.N,GND*%
X174500000Y-132500000D03*
%TO.P,U5,3,Output+*%
%TO.N,AC*%
X177040000Y-138750000D03*
%TO.P,U5,4,Output-*%
%TO.N,Net-(J2-Pin_4)*%
X174500000Y-138750000D03*
%TD*%
D26*
%TO.P,U12,1,GND*%
%TO.N,GND*%
X149647450Y-101249999D03*
%TO.P,U12,2,SW*%
%TO.N,SW*%
X149647450Y-102200000D03*
%TO.P,U12,3,VIN*%
%TO.N,/Vin*%
X149647450Y-103150001D03*
%TO.P,U12,4,VFB*%
%TO.N,FB*%
X152352550Y-103150001D03*
%TO.P,U12,5,EN*%
%TO.N,unconnected-(U12-EN-Pad5)*%
X152352550Y-102200000D03*
%TO.P,U12,6,VBST*%
%TO.N,BOOT*%
X152352550Y-101249999D03*
%TD*%
D27*
%TO.P,R2,1*%
%TO.N,VCC*%
X157312500Y-103200000D03*
%TO.P,R2,2*%
%TO.N,Net-(C5-Pad1)*%
X155487500Y-103200000D03*
%TD*%
D15*
%TO.P,U8,1,Input+*%
%TO.N,Net-(D9-K)*%
X192040000Y-132500000D03*
%TO.P,U8,2,Input-*%
%TO.N,GND*%
X189500000Y-132500000D03*
%TO.P,U8,3,Output+*%
%TO.N,AC*%
X192040000Y-138750000D03*
%TO.P,U8,4,Output-*%
%TO.N,Net-(J2-Pin_7)*%
X189500000Y-138750000D03*
%TD*%
D28*
%TO.P,C1,1*%
%TO.N,/Vin*%
X118400000Y-111512755D03*
D29*
%TO.P,C1,2*%
%TO.N,GND*%
X118400000Y-104012755D03*
%TD*%
D24*
%TO.P,R1,1*%
%TO.N,Net-(C6-Pad2)*%
X154200000Y-99287500D03*
%TO.P,R1,2*%
%TO.N,BOOT*%
X154200000Y-101112500D03*
%TD*%
D14*
%TO.P,D5,1,K*%
%TO.N,Net-(D5-K)*%
X172000000Y-130470000D03*
%TO.P,D5,2,A*%
%TO.N,Net-(D5-A)*%
X172000000Y-129500000D03*
%TD*%
D15*
%TO.P,U3,1,Input+*%
%TO.N,Net-(D4-K)*%
X167040000Y-132500000D03*
%TO.P,U3,2,Input-*%
%TO.N,GND*%
X164500000Y-132500000D03*
%TO.P,U3,3,Output+*%
%TO.N,AC*%
X167040000Y-138750000D03*
%TO.P,U3,4,Output-*%
%TO.N,Net-(J2-Pin_2)*%
X164500000Y-138750000D03*
%TD*%
D28*
%TO.P,C2,1*%
%TO.N,/Vin*%
X135200000Y-111512755D03*
D29*
%TO.P,C2,2*%
%TO.N,GND*%
X135200000Y-104012755D03*
%TD*%
D21*
%TO.P,J1,1,Pin_1*%
%TO.N,AC_to_SW*%
X102445000Y-94700000D03*
D22*
%TO.P,J1,2,Pin_2*%
%TO.N,GNDPWR*%
X102445000Y-99700000D03*
%TD*%
D30*
%TO.N,*%
X100600000Y-83400000D03*
X143800000Y-148400000D03*
X209200000Y-124400000D03*
X100400000Y-116400000D03*
X209800000Y-83200000D03*
D31*
%TO.N,VCC*%
X128800000Y-84400000D03*
X157200000Y-100800000D03*
D32*
%TO.N,Net-(D3-A)*%
X174400000Y-127046000D03*
X162000000Y-127800000D03*
D31*
%TO.N,Net-(U1-IO21)*%
X175800000Y-115800000D03*
X172400000Y-113200000D03*
D32*
%TO.N,Net-(U1-IO14)*%
X187867000Y-114218000D03*
%TO.N,Net-(D5-A)*%
X170600000Y-128379500D03*
X173571500Y-122442927D03*
%TO.N,Net-(D6-A)*%
X178600000Y-129713000D03*
X171600000Y-122200000D03*
%TO.N,Net-(U1-IO33)*%
X187600000Y-117800000D03*
%TO.N,Net-(U1-IO32)*%
X190000000Y-120466500D03*
D31*
%TO.N,Net-(U1-IO18)*%
X191000000Y-109200000D03*
X194400000Y-114000000D03*
D32*
%TO.N,Net-(D8-A)*%
X199620255Y-123347424D03*
X187000000Y-128000000D03*
%TO.N,Net-(U1-IO25)*%
X200174999Y-116768389D03*
D31*
%TO.N,GND*%
X149600000Y-111600000D03*
X151200000Y-110800000D03*
X151000000Y-103000000D03*
X143400000Y-90000000D03*
X137800000Y-90000000D03*
X149600000Y-104600000D03*
X148800000Y-111600000D03*
X147800000Y-99200000D03*
X148600000Y-99200000D03*
X141000000Y-90000000D03*
X142600000Y-90000000D03*
X150400000Y-111600000D03*
X149600000Y-110800000D03*
X135400000Y-90000000D03*
X141800000Y-90000000D03*
X150400000Y-110800000D03*
X140200000Y-90000000D03*
X151000000Y-104600000D03*
X150000000Y-100000000D03*
X147600000Y-100000000D03*
X149400000Y-99200000D03*
X148400000Y-100000000D03*
X150200000Y-104600000D03*
X148800000Y-104600000D03*
X139400000Y-90000000D03*
X148800000Y-110800000D03*
X151200000Y-111600000D03*
X151000000Y-102000000D03*
X151000000Y-101000000D03*
X137000000Y-90000000D03*
X138600000Y-90000000D03*
X136200000Y-90000000D03*
X149200000Y-100000000D03*
D32*
%TO.N,Net-(D9-A)*%
X198968500Y-127000000D03*
X192000000Y-128200000D03*
%TO.N,Net-(D11-A)*%
X198388535Y-131389812D03*
X195400000Y-131133500D03*
%TO.N,Net-(D12-A)*%
X193800000Y-129800000D03*
X205800000Y-129800000D03*
D31*
%TO.N,SW*%
X148200000Y-97200000D03*
X144400000Y-102600000D03*
X148200000Y-96400000D03*
X145600000Y-102600000D03*
X145000000Y-102600000D03*
X148200000Y-95800000D03*
X147400000Y-97200000D03*
X147400000Y-95800000D03*
X146600000Y-96400000D03*
X146600000Y-95800000D03*
X147400000Y-96400000D03*
X144400000Y-103400000D03*
X145600000Y-103400000D03*
X145000000Y-103400000D03*
X146600000Y-97200000D03*
D33*
%TO.N,GNDPWR*%
X99000000Y-112400000D03*
%TD*%
D34*
%TO.N,VCC*%
X157312500Y-100912500D02*
X157200000Y-100800000D01*
X157312500Y-103200000D02*
X157312500Y-100912500D01*
%TO.N,Net-(D2-A)*%
X131800000Y-87350000D02*
X131800000Y-88980000D01*
%TO.N,FB*%
X153460000Y-104257451D02*
X152352550Y-103150001D01*
X153460000Y-107600000D02*
X153460000Y-104257451D01*
X154450000Y-112200000D02*
X154450000Y-108590000D01*
X154450000Y-108590000D02*
X153460000Y-107600000D01*
D35*
%TO.N,Net-(D3-A)*%
X174590500Y-127236500D02*
X174400000Y-127046000D01*
X175470000Y-127236500D02*
X174590500Y-127236500D01*
X162000000Y-127800000D02*
X162000000Y-129364500D01*
X176175000Y-126531500D02*
X175470000Y-127236500D01*
X176175000Y-125048000D02*
X176175000Y-126531500D01*
D34*
%TO.N,Net-(C5-Pad1)*%
X156000000Y-103712500D02*
X155487500Y-103200000D01*
X156350000Y-107950000D02*
X156000000Y-107600000D01*
X156000000Y-107600000D02*
X156000000Y-103712500D01*
X156350000Y-112200000D02*
X156350000Y-107950000D01*
D36*
%TO.N,Net-(J2-Pin_3)*%
X169500000Y-146500000D02*
X169500000Y-138750000D01*
%TO.N,Net-(J2-Pin_8)*%
X194500000Y-146500000D02*
X194500000Y-138750000D01*
%TO.N,Net-(J2-Pin_6)*%
X184500000Y-146500000D02*
X184500000Y-138750000D01*
%TO.N,Net-(J2-Pin_1)*%
X159500000Y-146500000D02*
X159500000Y-138750000D01*
%TO.N,Net-(J2-Pin_4)*%
X174500000Y-146500000D02*
X174500000Y-138750000D01*
%TO.N,Net-(J2-Pin_5)*%
X179500000Y-146500000D02*
X179500000Y-138750000D01*
%TO.N,Net-(J2-Pin_2)*%
X164500000Y-146500000D02*
X164500000Y-138750000D01*
%TO.N,Net-(J2-Pin_7)*%
X189500000Y-146500000D02*
X189500000Y-138750000D01*
%TO.N,Net-(J2-Pin_10)*%
X204500000Y-146500000D02*
X204500000Y-138750000D01*
%TO.N,Net-(J2-Pin_9)*%
X199500000Y-146500000D02*
X199500000Y-138750000D01*
D35*
%TO.N,Net-(D3-K)*%
X162040000Y-130675500D02*
X162000000Y-130635500D01*
X162040000Y-132500000D02*
X162040000Y-130675500D01*
%TO.N,Net-(D4-A)*%
X167000000Y-120600000D02*
X167000000Y-129349500D01*
X174905000Y-121705000D02*
X173800000Y-120600000D01*
X173800000Y-120600000D02*
X167000000Y-120600000D01*
X174905000Y-125048000D02*
X174905000Y-121705000D01*
%TO.N,Net-(U1-IO21)*%
X175000000Y-117857000D02*
X174905000Y-117952000D01*
D37*
X173200000Y-86050000D02*
X173200000Y-112400000D01*
D35*
X175800000Y-115800000D02*
X175000000Y-116600000D01*
X174450000Y-84800000D02*
X173200000Y-86050000D01*
X173200000Y-112400000D02*
X172400000Y-113200000D01*
X175000000Y-116600000D02*
X175000000Y-117857000D01*
%TO.N,Net-(U1-IO13)*%
X179375000Y-113698000D02*
X176175000Y-116898000D01*
X191960000Y-113010000D02*
X187366000Y-113010000D01*
X187366000Y-113010000D02*
X186679000Y-113698000D01*
X194770000Y-110200000D02*
X191960000Y-113010000D01*
X186679000Y-113698000D02*
X179375000Y-113698000D01*
X176175000Y-116898000D02*
X176175000Y-117952000D01*
%TO.N,Net-(U1-IO14)*%
X183688000Y-115128000D02*
X186957000Y-115128000D01*
X186957000Y-115128000D02*
X187867000Y-114218000D01*
X173635000Y-117952000D02*
X173635000Y-119405000D01*
X179412000Y-119405000D02*
X183688000Y-115128000D01*
X173635000Y-119405000D02*
X179412000Y-119405000D01*
%TO.N,Net-(U1-IO26)*%
X183148000Y-111662000D02*
X175932000Y-111662000D01*
X175932000Y-111662000D02*
X171095000Y-116499000D01*
X171095000Y-116499000D02*
X171095000Y-117952000D01*
X184610000Y-110200000D02*
X183148000Y-111662000D01*
%TO.N,Net-(U1-IO27)*%
X187150000Y-110200000D02*
X184670000Y-112680000D01*
X176803000Y-112680000D02*
X172365000Y-117118000D01*
X184670000Y-112680000D02*
X176803000Y-112680000D01*
X172365000Y-117118000D02*
X172365000Y-117952000D01*
%TO.N,Net-(D4-K)*%
X167040000Y-130660500D02*
X167000000Y-130620500D01*
X167040000Y-132500000D02*
X167040000Y-130660500D01*
%TO.N,Net-(D5-K)*%
X172040000Y-130660500D02*
X172000000Y-130620500D01*
X172040000Y-132500000D02*
X172040000Y-130660500D01*
%TO.N,Net-(D5-A)*%
X173571500Y-122442927D02*
X173571500Y-123971500D01*
X173571500Y-123971500D02*
X173635000Y-124035000D01*
X170600000Y-128379500D02*
X171570000Y-129349500D01*
X173635000Y-124035000D02*
X173635000Y-125048000D01*
X171570000Y-129349500D02*
X172000000Y-129349500D01*
%TO.N,Net-(D6-K)*%
X177040000Y-130660500D02*
X177000000Y-130620500D01*
X177040000Y-132500000D02*
X177040000Y-130660500D01*
%TO.N,Net-(D6-A)*%
X178236500Y-129349500D02*
X177000000Y-129349500D01*
X172365000Y-125048000D02*
X172365000Y-123122281D01*
X178600000Y-129713000D02*
X178236500Y-129349500D01*
X171600000Y-122357281D02*
X171600000Y-122200000D01*
X172365000Y-123122281D02*
X171600000Y-122357281D01*
%TO.N,Net-(D7-K)*%
X182040000Y-130675500D02*
X182000000Y-130635500D01*
X182040000Y-132500000D02*
X182040000Y-130675500D01*
%TO.N,Net-(U1-IO33)*%
X187600000Y-117800000D02*
X187600000Y-120600000D01*
X197400000Y-122600000D02*
X198905000Y-121095000D01*
X187600000Y-120600000D02*
X189600000Y-122600000D01*
X198905000Y-121095000D02*
X198905000Y-117952000D01*
X189600000Y-122600000D02*
X197400000Y-122600000D01*
%TO.N,Net-(U1-IO32)*%
X197635000Y-120565000D02*
X197635000Y-117952000D01*
X196800000Y-121400000D02*
X197635000Y-120565000D01*
X190933500Y-121400000D02*
X196800000Y-121400000D01*
X190000000Y-120466500D02*
X190933500Y-121400000D01*
%TO.N,Net-(D7-A)*%
X171095000Y-126531500D02*
X172943000Y-128379500D01*
X180435500Y-127800000D02*
X182000000Y-129364500D01*
X175943446Y-128379500D02*
X176522946Y-127800000D01*
X171095000Y-125048000D02*
X171095000Y-126531500D01*
X172943000Y-128379500D02*
X175943446Y-128379500D01*
X176522946Y-127800000D02*
X180435500Y-127800000D01*
%TO.N,Net-(U1-IO18)*%
X195095000Y-116295000D02*
X195095000Y-117952000D01*
X194400000Y-115600000D02*
X195095000Y-116295000D01*
X175602500Y-93802500D02*
X191000000Y-109200000D01*
X194400000Y-114000000D02*
X194400000Y-115600000D01*
D34*
X176837500Y-83000000D02*
X175602500Y-84235000D01*
X175602500Y-84235000D02*
X175602500Y-93802500D01*
D35*
X179530000Y-84800000D02*
X177730000Y-83000000D01*
X177730000Y-83000000D02*
X176837500Y-83000000D01*
%TO.N,Net-(D8-A)*%
X200175000Y-123902169D02*
X199620255Y-123347424D01*
X187000000Y-128000000D02*
X187000000Y-129379500D01*
X200175000Y-125048000D02*
X200175000Y-123902169D01*
%TO.N,Net-(U1-IO25)*%
X200175000Y-116768390D02*
X200175000Y-117952000D01*
X200174999Y-116768389D02*
X200175000Y-116768390D01*
%TO.N,Net-(D8-K)*%
X187040000Y-132500000D02*
X187040000Y-130690500D01*
X187040000Y-130690500D02*
X187000000Y-130650500D01*
D38*
%TO.N,Net-(U1-IO19)*%
X196365000Y-116365000D02*
X196365000Y-117952000D01*
X196000000Y-116000000D02*
X196365000Y-116365000D01*
X195922500Y-103732500D02*
X196000000Y-103810000D01*
X196000000Y-103810000D02*
X196000000Y-116000000D01*
D35*
X176990000Y-84800000D02*
X195922500Y-103732500D01*
%TO.N,GND*%
X195825500Y-133825500D02*
X198174500Y-133825500D01*
X164500000Y-132500000D02*
X165825500Y-133825500D01*
X198174500Y-133825500D02*
X199500000Y-132500000D01*
X183174500Y-133825500D02*
X184500000Y-132500000D01*
X163174500Y-133825500D02*
X164500000Y-132500000D01*
X201976500Y-114866500D02*
X197310000Y-110200000D01*
X199500000Y-132500000D02*
X200825500Y-133825500D01*
X179500000Y-132500000D02*
X180825500Y-133825500D01*
X174500000Y-132500000D02*
X175825500Y-133825500D01*
X189500000Y-132500000D02*
X190825500Y-133825500D01*
D39*
X204200000Y-115133000D02*
X202243000Y-115133000D01*
D35*
X170825500Y-133825500D02*
X173174500Y-133825500D01*
X188174500Y-133825500D02*
X189500000Y-132500000D01*
X190825500Y-133825500D02*
X193174500Y-133825500D01*
X185825500Y-133825500D02*
X188174500Y-133825500D01*
D39*
X204466500Y-132466500D02*
X204200000Y-132200000D01*
D35*
X184500000Y-132500000D02*
X185825500Y-133825500D01*
X173174500Y-133825500D02*
X174500000Y-132500000D01*
X200825500Y-133825500D02*
X203174500Y-133825500D01*
X178174500Y-133825500D02*
X179500000Y-132500000D01*
X203174500Y-133825500D02*
X204500000Y-132500000D01*
D39*
X202243000Y-115133000D02*
X201976500Y-114866500D01*
D35*
X175825500Y-133825500D02*
X178174500Y-133825500D01*
X180825500Y-133825500D02*
X183174500Y-133825500D01*
X169500000Y-132500000D02*
X170825500Y-133825500D01*
X168174500Y-133825500D02*
X169500000Y-132500000D01*
X165825500Y-133825500D02*
X168174500Y-133825500D01*
X193174500Y-133825500D02*
X194500000Y-132500000D01*
X160825500Y-133825500D02*
X163174500Y-133825500D01*
D39*
X204200000Y-132200000D02*
X204200000Y-115133000D01*
D35*
X204500000Y-132500000D02*
X204466500Y-132466500D01*
X159500000Y-132500000D02*
X160825500Y-133825500D01*
X194500000Y-132500000D02*
X195825500Y-133825500D01*
%TO.N,Net-(D9-A)*%
X192000000Y-128200000D02*
X192000000Y-129349500D01*
X198905000Y-126936500D02*
X198968500Y-127000000D01*
X198905000Y-125048000D02*
X198905000Y-126936500D01*
%TO.N,Net-(D9-K)*%
X192040000Y-130660500D02*
X192000000Y-130620500D01*
X192040000Y-132500000D02*
X192040000Y-130660500D01*
%TO.N,Net-(D10-A)*%
X197635000Y-128744500D02*
X197000000Y-129379500D01*
X197635000Y-125048000D02*
X197635000Y-128744500D01*
%TO.N,Net-(D10-K)*%
X197040000Y-130690500D02*
X197000000Y-130650500D01*
X197040000Y-132500000D02*
X197040000Y-130690500D01*
%TO.N,Net-(D11-A)*%
X198388535Y-131389812D02*
X200398847Y-129379500D01*
X195400000Y-129363054D02*
X195400000Y-131133500D01*
X196365000Y-128398054D02*
X195400000Y-129363054D01*
X200398847Y-129379500D02*
X202000000Y-129379500D01*
X196365000Y-125048000D02*
X196365000Y-128398054D01*
%TO.N,Net-(D11-K)*%
X202040000Y-130690500D02*
X202000000Y-130650500D01*
X202040000Y-132500000D02*
X202040000Y-130690500D01*
%TO.N,Net-(D12-K)*%
X207040000Y-130690500D02*
X207000000Y-130650500D01*
X207040000Y-132500000D02*
X207040000Y-130690500D01*
%TO.N,Net-(D12-A)*%
X195095000Y-126531500D02*
X195095000Y-125048000D01*
X193600000Y-126626000D02*
X195000500Y-126626000D01*
X206220500Y-129379500D02*
X207000000Y-129379500D01*
X205800000Y-129800000D02*
X206220500Y-129379500D01*
X193800000Y-129800000D02*
X193600000Y-129600000D01*
X195000500Y-126626000D02*
X195095000Y-126531500D01*
X193600000Y-129600000D02*
X193600000Y-126626000D01*
D40*
%TO.N,SW*%
X149647450Y-102200000D02*
X146400000Y-102200000D01*
D41*
%TO.N,GNDPWR*%
X99000000Y-110625000D02*
X99275000Y-110350000D01*
X99000000Y-112400000D02*
X99000000Y-110625000D01*
D42*
%TO.N,AC*%
X207040000Y-136323000D02*
X207040000Y-138750000D01*
D34*
X99275000Y-104675000D02*
X99275000Y-105250000D01*
D42*
X192040000Y-136509000D02*
X192040000Y-138750000D01*
X197040000Y-136322000D02*
X197040000Y-138750000D01*
X177040000Y-137070000D02*
X177040000Y-138750000D01*
X172040000Y-137151000D02*
X172040000Y-138750000D01*
X187040000Y-136696000D02*
X187040000Y-138750000D01*
D34*
X98000000Y-89400000D02*
X98000000Y-103400000D01*
X98000000Y-103400000D02*
X99275000Y-104675000D01*
D42*
X202040000Y-136290000D02*
X202040000Y-138750000D01*
X182040000Y-136883000D02*
X182040000Y-138750000D01*
D34*
X99600000Y-87800000D02*
X98000000Y-89400000D01*
D42*
X167040000Y-136964000D02*
X167040000Y-138750000D01*
X162040000Y-136777000D02*
X162040000Y-138750000D01*
D34*
%TO.N,Net-(C6-Pad2)*%
X152087500Y-99287500D02*
X151600000Y-98800000D01*
X154200000Y-99287500D02*
X152087500Y-99287500D01*
%TO.N,BOOT*%
X154200000Y-101112500D02*
X152490049Y-101112500D01*
X152490049Y-101112500D02*
X152352550Y-101249999D01*
%TO.N,AC_to_SW*%
X102400000Y-87800000D02*
X102140000Y-87800000D01*
X102500000Y-94700000D02*
X104200000Y-93000000D01*
X104200000Y-93000000D02*
X104200000Y-89600000D01*
X104200000Y-89600000D02*
X102400000Y-87800000D01*
X102445000Y-94700000D02*
X102500000Y-94700000D01*
%TD*%
%TA.AperFunction,Conductor*%
%TO.N,SW*%
G36*
X146579309Y-102019685D02*
G01*
X146599951Y-102036319D01*
X146656346Y-102092714D01*
X146659182Y-102094463D01*
X146660717Y-102096170D01*
X146662011Y-102097193D01*
X146661836Y-102097414D01*
X146705905Y-102146411D01*
X146717126Y-102215374D01*
X146689282Y-102279456D01*
X146659182Y-102305537D01*
X146656346Y-102307285D01*
X146656343Y-102307288D01*
X146599951Y-102363681D01*
X146538628Y-102397166D01*
X146512270Y-102400000D01*
X146000000Y-102400000D01*
X146000000Y-104076000D01*
X145980315Y-104143039D01*
X145927511Y-104188794D01*
X145876000Y-104200000D01*
X144124000Y-104200000D01*
X144056961Y-104180315D01*
X144011206Y-104127511D01*
X144000000Y-104076000D01*
X144000000Y-102124000D01*
X144019685Y-102056961D01*
X144072489Y-102011206D01*
X144124000Y-102000000D01*
X146512270Y-102000000D01*
X146579309Y-102019685D01*
G37*
%TD.AperFunction*%
%TD*%
%TA.AperFunction,Conductor*%
%TO.N,GND*%
G36*
X144136327Y-87705500D02*
G01*
X144170500Y-87705500D01*
X144237539Y-87725185D01*
X144283294Y-87777989D01*
X144294500Y-87829500D01*
X144294500Y-92959500D01*
X144294500Y-95297000D01*
X144294500Y-97676000D01*
X144294501Y-97676009D01*
X144306052Y-97783450D01*
X144306054Y-97783462D01*
X144317260Y-97834972D01*
X144351383Y-97937497D01*
X144351386Y-97937503D01*
X144429171Y-98058537D01*
X144429179Y-98058548D01*
X144474925Y-98111342D01*
X144474927Y-98111345D01*
X144557203Y-98182638D01*
X144594977Y-98241416D01*
X144600000Y-98276350D01*
X144600000Y-98400000D01*
X150076000Y-98400000D01*
X150143039Y-98419685D01*
X150188794Y-98472489D01*
X150200000Y-98524000D01*
X150200000Y-99800000D01*
X151063777Y-99800000D01*
X151071830Y-99800410D01*
X151071834Y-99800339D01*
X151074966Y-99800497D01*
X151074991Y-99800500D01*
X151276001Y-99800499D01*
X151343039Y-99820183D01*
X151388794Y-99872987D01*
X151400000Y-99924499D01*
X151400000Y-100724942D01*
X151392182Y-100768275D01*
X151362705Y-100847309D01*
X151356809Y-100863116D01*
X151350400Y-100922726D01*
X151350400Y-100922733D01*
X151350400Y-100922734D01*
X151350400Y-101577269D01*
X151350401Y-101577275D01*
X151356808Y-101636882D01*
X151373512Y-101681667D01*
X151378496Y-101751359D01*
X151373512Y-101768331D01*
X151356810Y-101813111D01*
X151356809Y-101813115D01*
X151356809Y-101813117D01*
X151350400Y-101872727D01*
X151350400Y-101872734D01*
X151350400Y-101872735D01*
X151350400Y-102527270D01*
X151350401Y-102527276D01*
X151356808Y-102586883D01*
X151373512Y-102631668D01*
X151378496Y-102701360D01*
X151373512Y-102718332D01*
X151356810Y-102763112D01*
X151356809Y-102763116D01*
X151356809Y-102763118D01*
X151350400Y-102822728D01*
X151350400Y-102822735D01*
X151350400Y-102822736D01*
X151350400Y-103477271D01*
X151350401Y-103477277D01*
X151356808Y-103536882D01*
X151365761Y-103560886D01*
X151392182Y-103631725D01*
X151400000Y-103675056D01*
X151400000Y-105600000D01*
X152076000Y-105600000D01*
X152143039Y-105619685D01*
X152188794Y-105672489D01*
X152200000Y-105724000D01*
X152200000Y-106621536D01*
X152181711Y-106686353D01*
X152180676Y-106688041D01*
X152162646Y-106710905D01*
X151645643Y-107227908D01*
X151640294Y-107214995D01*
X151551343Y-107081870D01*
X151438130Y-106968657D01*
X151305005Y-106879706D01*
X151292090Y-106874356D01*
X151840159Y-106326287D01*
X151633512Y-106199653D01*
X151405664Y-106105276D01*
X151165862Y-106047705D01*
X150920000Y-106028355D01*
X150674137Y-106047705D01*
X150434335Y-106105276D01*
X150206495Y-106199650D01*
X150206490Y-106199653D01*
X149999839Y-106326287D01*
X150547909Y-106874356D01*
X150534995Y-106879706D01*
X150401870Y-106968657D01*
X150288657Y-107081870D01*
X150199706Y-107214995D01*
X150194356Y-107227908D01*
X149646287Y-106679839D01*
X149519653Y-106886490D01*
X149519650Y-106886495D01*
X149425276Y-107114335D01*
X149367705Y-107354137D01*
X149348355Y-107600000D01*
X149367705Y-107845862D01*
X149425276Y-108085664D01*
X149519653Y-108313512D01*
X149646287Y-108520159D01*
X150194356Y-107972090D01*
X150199706Y-107985005D01*
X150288657Y-108118130D01*
X150401870Y-108231343D01*
X150534995Y-108320294D01*
X150547908Y-108325643D01*
X149999839Y-108873711D01*
X150206487Y-109000346D01*
X150434335Y-109094723D01*
X150674137Y-109152294D01*
X150920000Y-109171644D01*
X151165862Y-109152294D01*
X151405664Y-109094723D01*
X151633512Y-109000346D01*
X151840159Y-108873711D01*
X151292090Y-108325643D01*
X151305005Y-108320294D01*
X151438130Y-108231343D01*
X151551343Y-108118130D01*
X151640294Y-107985005D01*
X151645643Y-107972090D01*
X152162645Y-108489092D01*
X152180681Y-108511967D01*
X152181717Y-108513657D01*
X152200000Y-108578463D01*
X152200000Y-114476000D01*
X152180315Y-114543039D01*
X152127511Y-114588794D01*
X152076000Y-114600000D01*
X148429500Y-114600000D01*
X148362461Y-114580315D01*
X148316706Y-114527511D01*
X148305500Y-114476000D01*
X148305500Y-107008285D01*
X148305499Y-107008268D01*
X148297165Y-106927238D01*
X148294920Y-106905405D01*
X148284648Y-106855990D01*
X148253357Y-106757429D01*
X148177824Y-106634969D01*
X148133055Y-106581327D01*
X148133051Y-106581323D01*
X148096342Y-106548306D01*
X148041076Y-106498595D01*
X148004396Y-106439127D01*
X148000000Y-106406402D01*
X148000000Y-105191871D01*
X148019685Y-105124832D01*
X148055139Y-105089377D01*
X148055000Y-105089191D01*
X148056296Y-105088220D01*
X148056961Y-105087555D01*
X148058543Y-105086539D01*
X148111347Y-105040784D01*
X148205567Y-104932050D01*
X148265338Y-104801173D01*
X148285023Y-104734134D01*
X148285024Y-104734130D01*
X148305500Y-104591714D01*
X148305500Y-104324000D01*
X148325185Y-104256961D01*
X148377989Y-104211206D01*
X148429500Y-104200000D01*
X150600000Y-104200000D01*
X150600000Y-103675056D01*
X150607817Y-103631725D01*
X150643191Y-103536884D01*
X150649600Y-103477274D01*
X150649599Y-102822729D01*
X150643191Y-102763118D01*
X150626486Y-102718332D01*
X150621503Y-102648642D01*
X150626484Y-102631675D01*
X150643191Y-102586883D01*
X150649600Y-102527273D01*
X150649599Y-101872728D01*
X150643191Y-101813117D01*
X150626219Y-101767614D01*
X150621236Y-101697925D01*
X150626221Y-101680947D01*
X150642698Y-101636771D01*
X150649099Y-101577243D01*
X150649100Y-101577226D01*
X150649100Y-101499999D01*
X150463687Y-101499999D01*
X150396648Y-101480314D01*
X150392184Y-101477215D01*
X150391429Y-101476802D01*
X150256582Y-101426508D01*
X150256583Y-101426508D01*
X150196983Y-101420101D01*
X150196981Y-101420100D01*
X150196973Y-101420100D01*
X150196964Y-101420100D01*
X149097929Y-101420100D01*
X149097923Y-101420101D01*
X149038316Y-101426508D01*
X148940259Y-101463082D01*
X148896926Y-101470900D01*
X146328188Y-101470900D01*
X146253895Y-101485678D01*
X146221524Y-101492117D01*
X146197334Y-101494500D01*
X144124000Y-101494500D01*
X144123991Y-101494500D01*
X144123990Y-101494501D01*
X144016549Y-101506052D01*
X144016537Y-101506054D01*
X143965027Y-101517260D01*
X143862497Y-101551385D01*
X143862495Y-101551386D01*
X143817485Y-101580314D01*
X143750446Y-101600000D01*
X143600000Y-101600000D01*
X143600000Y-101744498D01*
X143588794Y-101796010D01*
X143534664Y-101914534D01*
X143534662Y-101914541D01*
X143514977Y-101981580D01*
X143514976Y-101981584D01*
X143494500Y-102124000D01*
X143494500Y-104076000D01*
X143494501Y-104076009D01*
X143506052Y-104183450D01*
X143506054Y-104183462D01*
X143517260Y-104234972D01*
X143551385Y-104337502D01*
X143551386Y-104337504D01*
X143580314Y-104382515D01*
X143600000Y-104449554D01*
X143600000Y-104600000D01*
X143744499Y-104600000D01*
X143796010Y-104611205D01*
X143914541Y-104665338D01*
X143981580Y-104685023D01*
X143981584Y-104685024D01*
X144099354Y-104701956D01*
X144162908Y-104730981D01*
X144200683Y-104789759D01*
X144200683Y-104859628D01*
X144187245Y-104889790D01*
X144115645Y-105005871D01*
X144115641Y-105005880D01*
X144060494Y-105172302D01*
X144060493Y-105172309D01*
X144050000Y-105275013D01*
X144050000Y-105550000D01*
X145176000Y-105550000D01*
X145243039Y-105569685D01*
X145288794Y-105622489D01*
X145300000Y-105674000D01*
X145300000Y-107024999D01*
X145349972Y-107024999D01*
X145349986Y-107024998D01*
X145452695Y-107014506D01*
X145531495Y-106988394D01*
X145601324Y-106985992D01*
X145661366Y-107021723D01*
X145692559Y-107084244D01*
X145694500Y-107106100D01*
X145694500Y-107570500D01*
X145674815Y-107637539D01*
X145622011Y-107683294D01*
X145570500Y-107694500D01*
X105629500Y-107694500D01*
X105562461Y-107674815D01*
X105516706Y-107622011D01*
X105505500Y-107570500D01*
X105505500Y-105972844D01*
X106675000Y-105972844D01*
X106681401Y-106032372D01*
X106681403Y-106032379D01*
X106731645Y-106167086D01*
X106731649Y-106167093D01*
X106817809Y-106282187D01*
X106817812Y-106282190D01*
X106932906Y-106368350D01*
X106932913Y-106368354D01*
X107067620Y-106418596D01*
X107067627Y-106418598D01*
X107127155Y-106424999D01*
X107127172Y-106425000D01*
X108075000Y-106425000D01*
X108575000Y-106425000D01*
X109522828Y-106425000D01*
X109522844Y-106424999D01*
X109582372Y-106418598D01*
X109582379Y-106418596D01*
X109717086Y-106368354D01*
X109717093Y-106368350D01*
X109775019Y-106324986D01*
X144050001Y-106324986D01*
X144060494Y-106427697D01*
X144115641Y-106594119D01*
X144115643Y-106594124D01*
X144207684Y-106743345D01*
X144331654Y-106867315D01*
X144480875Y-106959356D01*
X144480880Y-106959358D01*
X144647302Y-107014505D01*
X144647309Y-107014506D01*
X144750019Y-107024999D01*
X144799999Y-107024998D01*
X144800000Y-107024998D01*
X144800000Y-106050000D01*
X144050001Y-106050000D01*
X144050001Y-106324986D01*
X109775019Y-106324986D01*
X109832187Y-106282190D01*
X109832190Y-106282187D01*
X109918350Y-106167093D01*
X109918354Y-106167086D01*
X109968596Y-106032379D01*
X109968598Y-106032372D01*
X109974999Y-105972844D01*
X109975000Y-105972827D01*
X109975000Y-105500000D01*
X108575000Y-105500000D01*
X108575000Y-106425000D01*
X108075000Y-106425000D01*
X108075000Y-105500000D01*
X106675000Y-105500000D01*
X106675000Y-105972844D01*
X105505500Y-105972844D01*
X105505500Y-104527155D01*
X106675000Y-104527155D01*
X106675000Y-105000000D01*
X108075000Y-105000000D01*
X108575000Y-105000000D01*
X109975000Y-105000000D01*
X109975000Y-104527172D01*
X109974999Y-104527155D01*
X109968598Y-104467627D01*
X109968596Y-104467620D01*
X109918354Y-104332913D01*
X109918350Y-104332906D01*
X109832190Y-104217812D01*
X109832187Y-104217809D01*
X109717093Y-104131649D01*
X109717086Y-104131645D01*
X109582379Y-104081403D01*
X109582372Y-104081401D01*
X109522844Y-104075000D01*
X108575000Y-104075000D01*
X108575000Y-105000000D01*
X108075000Y-105000000D01*
X108075000Y-104075000D01*
X107127155Y-104075000D01*
X107067627Y-104081401D01*
X107067620Y-104081403D01*
X106932913Y-104131645D01*
X106932906Y-104131649D01*
X106817812Y-104217809D01*
X106817809Y-104217812D01*
X106731649Y-104332906D01*
X106731645Y-104332913D01*
X106681403Y-104467620D01*
X106681401Y-104467627D01*
X106675000Y-104527155D01*
X105505500Y-104527155D01*
X105505500Y-104012750D01*
X116695233Y-104012750D01*
X116695233Y-104012759D01*
X116714273Y-104266834D01*
X116770968Y-104515232D01*
X116770973Y-104515249D01*
X116864058Y-104752426D01*
X116864057Y-104752426D01*
X116991454Y-104973082D01*
X116991461Y-104973093D01*
X117033452Y-105025746D01*
X117033453Y-105025747D01*
X117835387Y-104223813D01*
X117840889Y-104244346D01*
X117919881Y-104381163D01*
X118031592Y-104492874D01*
X118168409Y-104571866D01*
X118188940Y-104577367D01*
X117386813Y-105379493D01*
X117547616Y-105489126D01*
X117547624Y-105489131D01*
X117777176Y-105599676D01*
X117777174Y-105599676D01*
X118020652Y-105674779D01*
X118020658Y-105674781D01*
X118272595Y-105712754D01*
X118272604Y-105712755D01*
X118527396Y-105712755D01*
X118527404Y-105712754D01*
X118779341Y-105674781D01*
X118779347Y-105674779D01*
X119022824Y-105599676D01*
X119252376Y-105489131D01*
X119252377Y-105489130D01*
X119413185Y-105379493D01*
X118611060Y-104577367D01*
X118631591Y-104571866D01*
X118768408Y-104492874D01*
X118880119Y-104381163D01*
X118959111Y-104244346D01*
X118964612Y-104223814D01*
X119766544Y-105025747D01*
X119766546Y-105025746D01*
X119808544Y-104973085D01*
X119935941Y-104752426D01*
X120029026Y-104515249D01*
X120029031Y-104515232D01*
X120085726Y-104266834D01*
X120104767Y-104012759D01*
X120104767Y-104012750D01*
X133495233Y-104012750D01*
X133495233Y-104012759D01*
X133514273Y-104266834D01*
X133570968Y-104515232D01*
X133570973Y-104515249D01*
X133664058Y-104752426D01*
X133664057Y-104752426D01*
X133791454Y-104973082D01*
X133791461Y-104973093D01*
X133833452Y-105025746D01*
X133833453Y-105025747D01*
X134635387Y-104223813D01*
X134640889Y-104244346D01*
X134719881Y-104381163D01*
X134831592Y-104492874D01*
X134968409Y-104571866D01*
X134988940Y-104577367D01*
X134186813Y-105379493D01*
X134347616Y-105489126D01*
X134347624Y-105489131D01*
X134577176Y-105599676D01*
X134577174Y-105599676D01*
X134820652Y-105674779D01*
X134820658Y-105674781D01*
X135072595Y-105712754D01*
X135072604Y-105712755D01*
X135327396Y-105712755D01*
X135327404Y-105712754D01*
X135579341Y-105674781D01*
X135579347Y-105674779D01*
X135822824Y-105599676D01*
X136052376Y-105489131D01*
X136052377Y-105489130D01*
X136213185Y-105379493D01*
X135411060Y-104577367D01*
X135431591Y-104571866D01*
X135568408Y-104492874D01*
X135680119Y-104381163D01*
X135759111Y-104244346D01*
X135764612Y-104223814D01*
X136566544Y-105025747D01*
X136566546Y-105025746D01*
X136608544Y-104973085D01*
X136735941Y-104752426D01*
X136829026Y-104515249D01*
X136829031Y-104515232D01*
X136885726Y-104266834D01*
X136904767Y-104012759D01*
X136904767Y-104012750D01*
X136885726Y-103758675D01*
X136829031Y-103510277D01*
X136829026Y-103510260D01*
X136735941Y-103273083D01*
X136735942Y-103273083D01*
X136608545Y-103052427D01*
X136566545Y-102999761D01*
X135764612Y-103801694D01*
X135759111Y-103781164D01*
X135680119Y-103644347D01*
X135568408Y-103532636D01*
X135431591Y-103453644D01*
X135411059Y-103448142D01*
X136213185Y-102646015D01*
X136052384Y-102536383D01*
X136052376Y-102536378D01*
X135822823Y-102425833D01*
X135822825Y-102425833D01*
X135579347Y-102350730D01*
X135579341Y-102350728D01*
X135327404Y-102312755D01*
X135072595Y-102312755D01*
X134820658Y-102350728D01*
X134820652Y-102350730D01*
X134577175Y-102425833D01*
X134347622Y-102536380D01*
X134347609Y-102536387D01*
X134186813Y-102646014D01*
X134988941Y-103448142D01*
X134968409Y-103453644D01*
X134831592Y-103532636D01*
X134719881Y-103644347D01*
X134640889Y-103781164D01*
X134635387Y-103801695D01*
X133833452Y-102999761D01*
X133791457Y-103052422D01*
X133664058Y-103273083D01*
X133570973Y-103510260D01*
X133570968Y-103510277D01*
X133514273Y-103758675D01*
X133495233Y-104012750D01*
X120104767Y-104012750D01*
X120085726Y-103758675D01*
X120029031Y-103510277D01*
X120029026Y-103510260D01*
X119935941Y-103273083D01*
X119935942Y-103273083D01*
X119808545Y-103052427D01*
X119766545Y-102999761D01*
X118964612Y-103801694D01*
X118959111Y-103781164D01*
X118880119Y-103644347D01*
X118768408Y-103532636D01*
X118631591Y-103453644D01*
X118611059Y-103448142D01*
X119413185Y-102646015D01*
X119252384Y-102536383D01*
X119252376Y-102536378D01*
X119022823Y-102425833D01*
X119022825Y-102425833D01*
X118779347Y-102350730D01*
X118779341Y-102350728D01*
X118527404Y-102312755D01*
X118272595Y-102312755D01*
X118020658Y-102350728D01*
X118020652Y-102350730D01*
X117777175Y-102425833D01*
X117547622Y-102536380D01*
X117547609Y-102536387D01*
X117386813Y-102646014D01*
X118188941Y-103448142D01*
X118168409Y-103453644D01*
X118031592Y-103532636D01*
X117919881Y-103644347D01*
X117840889Y-103781164D01*
X117835387Y-103801696D01*
X117033452Y-102999761D01*
X116991457Y-103052422D01*
X116864058Y-103273083D01*
X116770973Y-103510260D01*
X116770968Y-103510277D01*
X116714273Y-103758675D01*
X116695233Y-104012750D01*
X105505500Y-104012750D01*
X105505500Y-103724010D01*
X105505500Y-103724000D01*
X105493947Y-103616544D01*
X105482741Y-103565033D01*
X105473372Y-103536884D01*
X105448616Y-103462502D01*
X105448613Y-103462496D01*
X105370828Y-103341462D01*
X105370825Y-103341457D01*
X105370820Y-103341451D01*
X105325075Y-103288658D01*
X105325072Y-103288655D01*
X105325070Y-103288653D01*
X105295785Y-103263277D01*
X105242795Y-103217359D01*
X105205022Y-103158581D01*
X105200000Y-103123648D01*
X105200000Y-102924000D01*
X105219685Y-102856961D01*
X105272489Y-102811206D01*
X105324000Y-102800000D01*
X110200000Y-102800000D01*
X110200000Y-100950013D01*
X146375000Y-100950013D01*
X146375000Y-101000000D01*
X147350000Y-101000000D01*
X147850000Y-101000000D01*
X148654154Y-101000000D01*
X148654163Y-100999999D01*
X149397450Y-100999999D01*
X149897450Y-100999999D01*
X150649100Y-100999999D01*
X150649100Y-100922771D01*
X150649099Y-100922754D01*
X150642698Y-100863226D01*
X150642696Y-100863219D01*
X150592454Y-100728512D01*
X150592450Y-100728505D01*
X150506290Y-100613411D01*
X150506287Y-100613408D01*
X150391193Y-100527248D01*
X150391186Y-100527244D01*
X150256479Y-100477002D01*
X150256472Y-100477000D01*
X150196944Y-100470599D01*
X149897450Y-100470599D01*
X149897450Y-100999999D01*
X149397450Y-100999999D01*
X149397450Y-100470599D01*
X149097955Y-100470599D01*
X149038427Y-100477000D01*
X149038420Y-100477002D01*
X148903713Y-100527244D01*
X148903710Y-100527246D01*
X148848748Y-100568391D01*
X148783283Y-100592808D01*
X148715010Y-100577956D01*
X148672001Y-100537161D01*
X148671798Y-100537323D01*
X148670676Y-100535905D01*
X148668895Y-100534215D01*
X148667316Y-100531655D01*
X148543345Y-100407684D01*
X148394124Y-100315643D01*
X148394119Y-100315641D01*
X148227697Y-100260494D01*
X148227690Y-100260493D01*
X148124986Y-100250000D01*
X147850000Y-100250000D01*
X147850000Y-101000000D01*
X147350000Y-101000000D01*
X147350000Y-100250000D01*
X147075029Y-100250000D01*
X147075012Y-100250001D01*
X146972302Y-100260494D01*
X146805880Y-100315641D01*
X146805875Y-100315643D01*
X146656654Y-100407684D01*
X146532684Y-100531654D01*
X146440643Y-100680875D01*
X146440641Y-100680880D01*
X146385494Y-100847302D01*
X146385493Y-100847309D01*
X146375000Y-100950013D01*
X110200000Y-100950013D01*
X110200000Y-90200001D01*
X130983005Y-90200001D01*
X131028528Y-90356692D01*
X131028530Y-90356695D01*
X131111806Y-90497508D01*
X131111812Y-90497516D01*
X131227483Y-90613187D01*
X131227491Y-90613193D01*
X131368302Y-90696468D01*
X131368307Y-90696470D01*
X131525402Y-90742110D01*
X131550000Y-90744045D01*
X131550000Y-90744044D01*
X132050000Y-90744044D01*
X132050001Y-90744045D01*
X132074592Y-90742112D01*
X132074599Y-90742110D01*
X132231691Y-90696470D01*
X132231697Y-90696468D01*
X132372508Y-90613193D01*
X132372516Y-90613187D01*
X132488187Y-90497516D01*
X132488193Y-90497508D01*
X132571469Y-90356695D01*
X132571471Y-90356692D01*
X132616994Y-90200001D01*
X132616993Y-90200000D01*
X132050000Y-90200000D01*
X132050000Y-90744044D01*
X131550000Y-90744044D01*
X131550000Y-90200000D01*
X130983007Y-90200000D01*
X130983005Y-90200001D01*
X110200000Y-90200001D01*
X110200000Y-89524000D01*
X110219685Y-89456961D01*
X110272489Y-89411206D01*
X110324000Y-89400000D01*
X130905012Y-89400000D01*
X130972051Y-89419685D01*
X131017806Y-89472489D01*
X131027750Y-89541647D01*
X131024088Y-89558595D01*
X130983005Y-89699998D01*
X130983007Y-89700000D01*
X131288643Y-89700000D01*
X131351763Y-89717267D01*
X131368103Y-89726931D01*
X131368104Y-89726931D01*
X131368107Y-89726933D01*
X131525320Y-89772608D01*
X131525323Y-89772608D01*
X131525325Y-89772609D01*
X131562060Y-89775500D01*
X131562068Y-89775500D01*
X132037932Y-89775500D01*
X132037940Y-89775500D01*
X132074675Y-89772609D01*
X132074677Y-89772608D01*
X132074679Y-89772608D01*
X132231892Y-89726933D01*
X132231893Y-89726932D01*
X132231897Y-89726931D01*
X132248236Y-89717267D01*
X132311357Y-89700000D01*
X132616993Y-89700000D01*
X132616994Y-89699998D01*
X132575912Y-89558595D01*
X132576111Y-89488726D01*
X132614053Y-89430056D01*
X132677691Y-89401212D01*
X132694988Y-89400000D01*
X133800000Y-89400000D01*
X133800000Y-88799986D01*
X134775001Y-88799986D01*
X134785494Y-88902697D01*
X134840641Y-89069119D01*
X134840643Y-89069124D01*
X134932684Y-89218345D01*
X135056654Y-89342315D01*
X135205875Y-89434356D01*
X135205880Y-89434358D01*
X135372302Y-89489505D01*
X135372309Y-89489506D01*
X135475019Y-89499999D01*
X135749999Y-89499999D01*
X136250000Y-89499999D01*
X136524972Y-89499999D01*
X136524986Y-89499998D01*
X136627697Y-89489505D01*
X136794119Y-89434358D01*
X136794124Y-89434356D01*
X136943345Y-89342315D01*
X137067315Y-89218345D01*
X137159356Y-89069124D01*
X137159358Y-89069119D01*
X137214505Y-88902697D01*
X137214506Y-88902690D01*
X137224999Y-88799986D01*
X137225000Y-88799973D01*
X137225000Y-88750000D01*
X136250000Y-88750000D01*
X136250000Y-89499999D01*
X135749999Y-89499999D01*
X135750000Y-89499998D01*
X135750000Y-88750000D01*
X134775001Y-88750000D01*
X134775001Y-88799986D01*
X133800000Y-88799986D01*
X133800000Y-88749986D01*
X138175001Y-88749986D01*
X138185494Y-88852697D01*
X138240641Y-89019119D01*
X138240643Y-89019124D01*
X138332684Y-89168345D01*
X138456654Y-89292315D01*
X138605875Y-89384356D01*
X138605880Y-89384358D01*
X138772302Y-89439505D01*
X138772309Y-89439506D01*
X138875019Y-89449999D01*
X139149999Y-89449999D01*
X139650000Y-89449999D01*
X139924972Y-89449999D01*
X139924986Y-89449998D01*
X140027697Y-89439505D01*
X140194119Y-89384358D01*
X140194124Y-89384356D01*
X140343345Y-89292315D01*
X140467315Y-89168345D01*
X140559356Y-89019124D01*
X140559358Y-89019119D01*
X140614505Y-88852697D01*
X140614506Y-88852690D01*
X140614782Y-88849986D01*
X141575001Y-88849986D01*
X141585494Y-88952697D01*
X141640641Y-89119119D01*
X141640643Y-89119124D01*
X141732684Y-89268345D01*
X141856654Y-89392315D01*
X142005875Y-89484356D01*
X142005880Y-89484358D01*
X142172302Y-89539505D01*
X142172309Y-89539506D01*
X142275019Y-89549999D01*
X142549999Y-89549999D01*
X143050000Y-89549999D01*
X143324972Y-89549999D01*
X143324986Y-89549998D01*
X143427697Y-89539505D01*
X143594119Y-89484358D01*
X143594124Y-89484356D01*
X143743345Y-89392315D01*
X143867315Y-89268345D01*
X143959356Y-89119124D01*
X143959358Y-89119119D01*
X144014505Y-88952697D01*
X144014506Y-88952690D01*
X144024999Y-88849986D01*
X144025000Y-88849973D01*
X144025000Y-88800000D01*
X143050000Y-88800000D01*
X143050000Y-89549999D01*
X142549999Y-89549999D01*
X142550000Y-89549998D01*
X142550000Y-88800000D01*
X141575001Y-88800000D01*
X141575001Y-88849986D01*
X140614782Y-88849986D01*
X140624999Y-88749986D01*
X140625000Y-88749973D01*
X140625000Y-88700000D01*
X139650000Y-88700000D01*
X139650000Y-89449999D01*
X139149999Y-89449999D01*
X139150000Y-89449998D01*
X139150000Y-88700000D01*
X138175001Y-88700000D01*
X138175001Y-88749986D01*
X133800000Y-88749986D01*
X133800000Y-87829500D01*
X133819685Y-87762461D01*
X133872489Y-87716706D01*
X133924000Y-87705500D01*
X134679164Y-87705500D01*
X134723857Y-87703519D01*
X134723867Y-87703518D01*
X134723869Y-87703518D01*
X134745726Y-87701577D01*
X134745726Y-87701576D01*
X134748462Y-87701334D01*
X134748569Y-87702540D01*
X134812944Y-87712380D01*
X134865339Y-87758602D01*
X134884428Y-87825814D01*
X134865973Y-87889807D01*
X134840647Y-87930868D01*
X134840641Y-87930880D01*
X134785494Y-88097302D01*
X134785493Y-88097309D01*
X134775000Y-88200013D01*
X134775000Y-88250000D01*
X137224999Y-88250000D01*
X137224999Y-88200028D01*
X137224998Y-88200013D01*
X137214505Y-88097302D01*
X137159358Y-87930880D01*
X137159355Y-87930873D01*
X137130220Y-87883639D01*
X137111779Y-87816246D01*
X137132701Y-87749583D01*
X137186343Y-87704813D01*
X137253402Y-87695803D01*
X137320846Y-87705500D01*
X137320849Y-87705500D01*
X138095729Y-87705500D01*
X138117665Y-87704527D01*
X138122907Y-87704295D01*
X138190752Y-87720991D01*
X138238801Y-87771716D01*
X138251798Y-87840366D01*
X138242608Y-87873921D01*
X138242914Y-87874023D01*
X138240990Y-87879826D01*
X138240790Y-87880560D01*
X138240644Y-87880872D01*
X138185494Y-88047302D01*
X138185493Y-88047309D01*
X138175000Y-88150013D01*
X138175000Y-88200000D01*
X140624999Y-88200000D01*
X140624999Y-88150028D01*
X140624998Y-88150013D01*
X140614505Y-88047302D01*
X140559357Y-87880877D01*
X140558169Y-87878329D01*
X140557878Y-87876413D01*
X140557086Y-87874023D01*
X140557494Y-87873887D01*
X140547678Y-87809252D01*
X140576199Y-87745468D01*
X140634676Y-87707229D01*
X140688197Y-87703188D01*
X140704277Y-87705500D01*
X140704280Y-87705500D01*
X141463673Y-87705500D01*
X141480873Y-87705207D01*
X141489303Y-87704920D01*
X141506465Y-87704044D01*
X141573859Y-87689621D01*
X141643533Y-87694840D01*
X141699325Y-87736899D01*
X141723522Y-87802445D01*
X141708441Y-87870668D01*
X141705348Y-87875971D01*
X141640645Y-87980871D01*
X141640641Y-87980880D01*
X141585494Y-88147302D01*
X141585493Y-88147309D01*
X141575000Y-88250013D01*
X141575000Y-88300000D01*
X144024999Y-88300000D01*
X144024999Y-88250028D01*
X144024998Y-88250013D01*
X144014505Y-88147302D01*
X143959358Y-87980880D01*
X143959356Y-87980875D01*
X143894872Y-87876330D01*
X143876432Y-87808937D01*
X143897355Y-87742274D01*
X143950997Y-87697504D01*
X144018055Y-87688495D01*
X144136327Y-87705500D01*
G37*
%TD.AperFunction*%
%TD*%
%TA.AperFunction,Conductor*%
%TO.N,AC*%
G36*
X99437373Y-86209437D02*
G01*
X99466774Y-86221615D01*
X99521176Y-86265454D01*
X99543242Y-86331748D01*
X99525964Y-86399448D01*
X99474828Y-86447059D01*
X99430130Y-86459704D01*
X99364683Y-86465430D01*
X99364673Y-86465432D01*
X99136516Y-86526566D01*
X99136507Y-86526570D01*
X98922422Y-86626399D01*
X98922420Y-86626400D01*
X98728926Y-86761886D01*
X98728920Y-86761891D01*
X98561891Y-86928920D01*
X98561886Y-86928926D01*
X98426400Y-87122420D01*
X98426399Y-87122422D01*
X98326570Y-87336507D01*
X98326567Y-87336513D01*
X98269364Y-87549999D01*
X98269364Y-87550000D01*
X99166988Y-87550000D01*
X99134075Y-87607007D01*
X99100000Y-87734174D01*
X99100000Y-87865826D01*
X99134075Y-87992993D01*
X99166988Y-88050000D01*
X98269364Y-88050000D01*
X98326567Y-88263486D01*
X98326570Y-88263492D01*
X98426399Y-88477578D01*
X98561894Y-88671082D01*
X98728917Y-88838105D01*
X98922421Y-88973600D01*
X99136507Y-89073429D01*
X99136516Y-89073433D01*
X99350000Y-89130634D01*
X99350000Y-88233012D01*
X99407007Y-88265925D01*
X99534174Y-88300000D01*
X99665826Y-88300000D01*
X99792993Y-88265925D01*
X99850000Y-88233012D01*
X99850000Y-89130633D01*
X100063483Y-89073433D01*
X100063492Y-89073429D01*
X100277579Y-88973599D01*
X100277585Y-88973595D01*
X100404876Y-88884465D01*
X100471082Y-88862137D01*
X100538849Y-88879147D01*
X100586663Y-88930094D01*
X100600000Y-88986039D01*
X100600000Y-92076000D01*
X100580315Y-92143039D01*
X100527511Y-92188794D01*
X100476000Y-92200000D01*
X97600000Y-92200000D01*
X97589815Y-92189815D01*
X97557461Y-92180315D01*
X97511706Y-92127511D01*
X97500500Y-92076000D01*
X97500500Y-86324000D01*
X97520185Y-86256961D01*
X97572989Y-86211206D01*
X97624500Y-86200000D01*
X99389924Y-86200000D01*
X99437373Y-86209437D01*
G37*
%TD.AperFunction*%
%TD*%
%TA.AperFunction,Conductor*%
%TO.N,AC_to_SW*%
G36*
X104943039Y-86219685D02*
G01*
X104988794Y-86272489D01*
X105000000Y-86324000D01*
X105000000Y-96076000D01*
X104980315Y-96143039D01*
X104927511Y-96188794D01*
X104876000Y-96200000D01*
X104366686Y-96200000D01*
X104299647Y-96180315D01*
X104253892Y-96127511D01*
X104243397Y-96062743D01*
X104244999Y-96047841D01*
X104245000Y-96047827D01*
X104245000Y-94950000D01*
X103045001Y-94950000D01*
X103070021Y-94889598D01*
X103095000Y-94764019D01*
X103095000Y-94635981D01*
X103070021Y-94510402D01*
X103045001Y-94450000D01*
X104245000Y-94450000D01*
X104245000Y-93352172D01*
X104244999Y-93352155D01*
X104238598Y-93292627D01*
X104238596Y-93292620D01*
X104188354Y-93157913D01*
X104188350Y-93157906D01*
X104102190Y-93042812D01*
X104102187Y-93042809D01*
X103987093Y-92956649D01*
X103987086Y-92956645D01*
X103852379Y-92906403D01*
X103852372Y-92906401D01*
X103792844Y-92900000D01*
X102695000Y-92900000D01*
X102695000Y-94099998D01*
X102634598Y-94074979D01*
X102509019Y-94050000D01*
X102380981Y-94050000D01*
X102255402Y-94074979D01*
X102195000Y-94099998D01*
X102195000Y-92900000D01*
X101324000Y-92900000D01*
X101256961Y-92880315D01*
X101211206Y-92827511D01*
X101200000Y-92776000D01*
X101200000Y-89274000D01*
X101219685Y-89206961D01*
X101272489Y-89161206D01*
X101324000Y-89150000D01*
X101890000Y-89150000D01*
X101890000Y-88233012D01*
X101947007Y-88265925D01*
X102074174Y-88300000D01*
X102205826Y-88300000D01*
X102332993Y-88265925D01*
X102390000Y-88233012D01*
X102390000Y-89150000D01*
X103037828Y-89150000D01*
X103037844Y-89149999D01*
X103097372Y-89143598D01*
X103097379Y-89143596D01*
X103232086Y-89093354D01*
X103232093Y-89093350D01*
X103347187Y-89007190D01*
X103347190Y-89007187D01*
X103433350Y-88892093D01*
X103433354Y-88892086D01*
X103483596Y-88757379D01*
X103483598Y-88757372D01*
X103489999Y-88697844D01*
X103490000Y-88697827D01*
X103490000Y-88050000D01*
X102573012Y-88050000D01*
X102605925Y-87992993D01*
X102640000Y-87865826D01*
X102640000Y-87734174D01*
X102605925Y-87607007D01*
X102573012Y-87550000D01*
X103490000Y-87550000D01*
X103490000Y-86902172D01*
X103489999Y-86902155D01*
X103483598Y-86842627D01*
X103483596Y-86842620D01*
X103433354Y-86707913D01*
X103433350Y-86707906D01*
X103347190Y-86592812D01*
X103347187Y-86592809D01*
X103232093Y-86506649D01*
X103232086Y-86506645D01*
X103097379Y-86456403D01*
X103097372Y-86456401D01*
X103037844Y-86450000D01*
X102390000Y-86450000D01*
X102390000Y-87366988D01*
X102332993Y-87334075D01*
X102205826Y-87300000D01*
X102074174Y-87300000D01*
X101947007Y-87334075D01*
X101890000Y-87366988D01*
X101890000Y-86450000D01*
X101805248Y-86450000D01*
X101738209Y-86430315D01*
X101692454Y-86377511D01*
X101682510Y-86308353D01*
X101711535Y-86244797D01*
X101757792Y-86211440D01*
X101762621Y-86209439D01*
X101810076Y-86200000D01*
X104876000Y-86200000D01*
X104943039Y-86219685D01*
G37*
%TD.AperFunction*%
%TD*%
%TA.AperFunction,Conductor*%
%TO.N,VCC*%
G36*
X206143039Y-80520185D02*
G01*
X206188794Y-80572989D01*
X206200000Y-80624500D01*
X206200000Y-111276000D01*
X206180315Y-111343039D01*
X206127511Y-111388794D01*
X206076000Y-111400000D01*
X200670539Y-111400000D01*
X200603500Y-111380315D01*
X200557745Y-111327511D01*
X200547011Y-111265193D01*
X200548187Y-111251740D01*
X199877447Y-110581000D01*
X199900160Y-110581000D01*
X199997061Y-110555036D01*
X200083940Y-110504876D01*
X200154876Y-110433940D01*
X200205036Y-110347061D01*
X200231000Y-110250160D01*
X200231000Y-110227447D01*
X200901741Y-110898188D01*
X200947094Y-110833417D01*
X200947100Y-110833407D01*
X201040419Y-110633284D01*
X201040424Y-110633270D01*
X201097573Y-110419986D01*
X201097575Y-110419976D01*
X201116821Y-110200000D01*
X201116821Y-110199999D01*
X201097575Y-109980023D01*
X201097573Y-109980013D01*
X201040424Y-109766729D01*
X201040420Y-109766720D01*
X200947096Y-109566586D01*
X200901741Y-109501811D01*
X200901740Y-109501810D01*
X200231000Y-110172551D01*
X200231000Y-110149840D01*
X200205036Y-110052939D01*
X200154876Y-109966060D01*
X200083940Y-109895124D01*
X199997061Y-109844964D01*
X199900160Y-109819000D01*
X199877448Y-109819000D01*
X200548188Y-109148259D01*
X200548187Y-109148258D01*
X200483411Y-109102901D01*
X200483405Y-109102898D01*
X200283284Y-109009580D01*
X200283270Y-109009575D01*
X200069986Y-108952426D01*
X200069976Y-108952424D01*
X199850001Y-108933179D01*
X199849999Y-108933179D01*
X199630023Y-108952424D01*
X199630013Y-108952426D01*
X199416729Y-109009575D01*
X199416720Y-109009579D01*
X199216590Y-109102901D01*
X199151811Y-109148258D01*
X199822553Y-109819000D01*
X199799840Y-109819000D01*
X199702939Y-109844964D01*
X199616060Y-109895124D01*
X199545124Y-109966060D01*
X199494964Y-110052939D01*
X199469000Y-110149840D01*
X199469000Y-110172553D01*
X198829560Y-109533113D01*
X198800000Y-109478978D01*
X198800000Y-87124000D01*
X198819685Y-87056961D01*
X198872489Y-87011206D01*
X198924000Y-87000000D01*
X202000000Y-87000000D01*
X202000000Y-83400000D01*
X179338189Y-83400000D01*
X179271150Y-83380315D01*
X179250508Y-83363681D01*
X178251448Y-82364620D01*
X178251444Y-82364617D01*
X178117474Y-82275100D01*
X178117461Y-82275093D01*
X177968606Y-82213436D01*
X177968594Y-82213433D01*
X177810570Y-82182000D01*
X177810566Y-82182000D01*
X176756934Y-82182000D01*
X176756929Y-82182000D01*
X176598905Y-82213433D01*
X176598897Y-82213435D01*
X176450033Y-82275096D01*
X176316052Y-82364619D01*
X176202119Y-82478552D01*
X176112596Y-82612533D01*
X176050935Y-82761397D01*
X176050933Y-82761405D01*
X176046368Y-82784355D01*
X176013983Y-82846266D01*
X176012432Y-82847845D01*
X175496596Y-83363681D01*
X175435273Y-83397166D01*
X175408915Y-83400000D01*
X157600000Y-83400000D01*
X157600000Y-80500500D01*
X206076000Y-80500500D01*
X206143039Y-80520185D01*
G37*
%TD.AperFunction*%
%TD*%
%TA.AperFunction,Conductor*%
%TO.N,VCC*%
G36*
X149195030Y-80520185D02*
G01*
X149240785Y-80572989D01*
X149251281Y-80637753D01*
X149250000Y-80649666D01*
X149250000Y-82035000D01*
X153550000Y-82035000D01*
X153550000Y-80649672D01*
X153549999Y-80649666D01*
X153548719Y-80637753D01*
X153561126Y-80568994D01*
X153608737Y-80517857D01*
X153672009Y-80500500D01*
X157600000Y-80500500D01*
X157600000Y-83400000D01*
X157600000Y-86770500D01*
X157580315Y-86837539D01*
X157527511Y-86883294D01*
X157476000Y-86894500D01*
X144924000Y-86894500D01*
X144923991Y-86894500D01*
X144923990Y-86894501D01*
X144816549Y-86906052D01*
X144816537Y-86906054D01*
X144765027Y-86917260D01*
X144662502Y-86951383D01*
X144662496Y-86951386D01*
X144541462Y-87029171D01*
X144541451Y-87029179D01*
X144488659Y-87074923D01*
X144417361Y-87157204D01*
X144358582Y-87194978D01*
X144323649Y-87200000D01*
X144136327Y-87200000D01*
X144069288Y-87180315D01*
X144023533Y-87127511D01*
X144013589Y-87058353D01*
X144014380Y-87053921D01*
X144024999Y-86949986D01*
X144025000Y-86949973D01*
X144025000Y-86900000D01*
X141575001Y-86900000D01*
X141575001Y-86949986D01*
X141586182Y-87059431D01*
X141584209Y-87059632D01*
X141579708Y-87119724D01*
X141537649Y-87175517D01*
X141472103Y-87199713D01*
X141463673Y-87200000D01*
X140704277Y-87200000D01*
X140637238Y-87180315D01*
X140591483Y-87127511D01*
X140581539Y-87058353D01*
X140586571Y-87036996D01*
X140614505Y-86952697D01*
X140614506Y-86952690D01*
X140624999Y-86849986D01*
X140625000Y-86849973D01*
X140625000Y-86800000D01*
X138175001Y-86800000D01*
X138175001Y-86849986D01*
X138185494Y-86952697D01*
X138213428Y-87036996D01*
X138215830Y-87106824D01*
X138180098Y-87166866D01*
X138117578Y-87198059D01*
X138095722Y-87200000D01*
X137320846Y-87200000D01*
X137253807Y-87180315D01*
X137208052Y-87127511D01*
X137198108Y-87058353D01*
X137203140Y-87036997D01*
X137214504Y-87002700D01*
X137214506Y-87002690D01*
X137224999Y-86899986D01*
X137225000Y-86899973D01*
X137225000Y-86850000D01*
X134775001Y-86850000D01*
X134775001Y-86899986D01*
X134785493Y-87002695D01*
X134796860Y-87036995D01*
X134799262Y-87106823D01*
X134763531Y-87166866D01*
X134701011Y-87198059D01*
X134679154Y-87200000D01*
X133924000Y-87200000D01*
X133856961Y-87180315D01*
X133811206Y-87127511D01*
X133800000Y-87076000D01*
X133800000Y-86400000D01*
X132975575Y-86400000D01*
X132908536Y-86380315D01*
X132882279Y-86350013D01*
X141575000Y-86350013D01*
X141575000Y-86400000D01*
X142550000Y-86400000D01*
X143050000Y-86400000D01*
X144024999Y-86400000D01*
X144024999Y-86350028D01*
X144024998Y-86350013D01*
X144014505Y-86247302D01*
X143959358Y-86080880D01*
X143959356Y-86080875D01*
X143867315Y-85931654D01*
X143743345Y-85807684D01*
X143594124Y-85715643D01*
X143594119Y-85715641D01*
X143427697Y-85660494D01*
X143427690Y-85660493D01*
X143324986Y-85650000D01*
X143050000Y-85650000D01*
X143050000Y-86400000D01*
X142550000Y-86400000D01*
X142550000Y-85650000D01*
X142275029Y-85650000D01*
X142275012Y-85650001D01*
X142172302Y-85660494D01*
X142005880Y-85715641D01*
X142005875Y-85715643D01*
X141856654Y-85807684D01*
X141732684Y-85931654D01*
X141640643Y-86080875D01*
X141640641Y-86080880D01*
X141585494Y-86247302D01*
X141585493Y-86247309D01*
X141575000Y-86350013D01*
X132882279Y-86350013D01*
X132862781Y-86327511D01*
X132858827Y-86300013D01*
X134775000Y-86300013D01*
X134775000Y-86350000D01*
X135750000Y-86350000D01*
X136250000Y-86350000D01*
X137224999Y-86350000D01*
X137224999Y-86300028D01*
X137224998Y-86300013D01*
X137219890Y-86250013D01*
X138175000Y-86250013D01*
X138175000Y-86300000D01*
X139150000Y-86300000D01*
X139650000Y-86300000D01*
X140624999Y-86300000D01*
X140624999Y-86250028D01*
X140624998Y-86250013D01*
X140614505Y-86147302D01*
X140559358Y-85980880D01*
X140559356Y-85980875D01*
X140467315Y-85831654D01*
X140343345Y-85707684D01*
X140194124Y-85615643D01*
X140194119Y-85615641D01*
X140027697Y-85560494D01*
X140027690Y-85560493D01*
X139924986Y-85550000D01*
X139650000Y-85550000D01*
X139650000Y-86300000D01*
X139150000Y-86300000D01*
X139150000Y-85550000D01*
X138875029Y-85550000D01*
X138875012Y-85550001D01*
X138772302Y-85560494D01*
X138605880Y-85615641D01*
X138605875Y-85615643D01*
X138456654Y-85707684D01*
X138332684Y-85831654D01*
X138240643Y-85980875D01*
X138240641Y-85980880D01*
X138185494Y-86147302D01*
X138185493Y-86147309D01*
X138175000Y-86250013D01*
X137219890Y-86250013D01*
X137214505Y-86197302D01*
X137159358Y-86030880D01*
X137159356Y-86030875D01*
X137067315Y-85881654D01*
X136943345Y-85757684D01*
X136794124Y-85665643D01*
X136794119Y-85665641D01*
X136627697Y-85610494D01*
X136627690Y-85610493D01*
X136524986Y-85600000D01*
X136250000Y-85600000D01*
X136250000Y-86350000D01*
X135750000Y-86350000D01*
X135750000Y-85600000D01*
X135475029Y-85600000D01*
X135475012Y-85600001D01*
X135372302Y-85610494D01*
X135205880Y-85665641D01*
X135205875Y-85665643D01*
X135056654Y-85757684D01*
X134932684Y-85881654D01*
X134840643Y-86030875D01*
X134840641Y-86030880D01*
X134785494Y-86197302D01*
X134785493Y-86197309D01*
X134775000Y-86300013D01*
X132858827Y-86300013D01*
X132852837Y-86258353D01*
X132870037Y-86210903D01*
X132934353Y-86106630D01*
X132934358Y-86106619D01*
X132989505Y-85940197D01*
X132989506Y-85940190D01*
X132999999Y-85837486D01*
X133000000Y-85837473D01*
X133000000Y-85775000D01*
X130600001Y-85775000D01*
X130600001Y-85837486D01*
X130610494Y-85940197D01*
X130665641Y-86106619D01*
X130665646Y-86106630D01*
X130729963Y-86210903D01*
X130748404Y-86278295D01*
X130727482Y-86344959D01*
X130673840Y-86389729D01*
X130624425Y-86400000D01*
X120124000Y-86400000D01*
X120056961Y-86380315D01*
X120011206Y-86327511D01*
X120000000Y-86276000D01*
X120000000Y-85212513D01*
X130600000Y-85212513D01*
X130600000Y-85275000D01*
X131550000Y-85275000D01*
X132050000Y-85275000D01*
X132999999Y-85275000D01*
X132999999Y-85212528D01*
X132999998Y-85212513D01*
X132989505Y-85109802D01*
X132934358Y-84943380D01*
X132934356Y-84943375D01*
X132842315Y-84794154D01*
X132718345Y-84670184D01*
X132569124Y-84578143D01*
X132569119Y-84578141D01*
X132402697Y-84522994D01*
X132402690Y-84522993D01*
X132299986Y-84512500D01*
X132050000Y-84512500D01*
X132050000Y-85275000D01*
X131550000Y-85275000D01*
X131550000Y-84512500D01*
X131300029Y-84512500D01*
X131300012Y-84512501D01*
X131197302Y-84522994D01*
X131030880Y-84578141D01*
X131030875Y-84578143D01*
X130881654Y-84670184D01*
X130757684Y-84794154D01*
X130665643Y-84943375D01*
X130665641Y-84943380D01*
X130610494Y-85109802D01*
X130610493Y-85109809D01*
X130600000Y-85212513D01*
X120000000Y-85212513D01*
X120000000Y-83920344D01*
X149250000Y-83920344D01*
X149256401Y-83979872D01*
X149256403Y-83979879D01*
X149306645Y-84114586D01*
X149306649Y-84114593D01*
X149392809Y-84229687D01*
X149392812Y-84229690D01*
X149507906Y-84315850D01*
X149507913Y-84315854D01*
X149642620Y-84366096D01*
X149642627Y-84366098D01*
X149702155Y-84372499D01*
X149702172Y-84372500D01*
X151150000Y-84372500D01*
X151650000Y-84372500D01*
X153097828Y-84372500D01*
X153097844Y-84372499D01*
X153157372Y-84366098D01*
X153157379Y-84366096D01*
X153292086Y-84315854D01*
X153292093Y-84315850D01*
X153407187Y-84229690D01*
X153407190Y-84229687D01*
X153493350Y-84114593D01*
X153493354Y-84114586D01*
X153543596Y-83979879D01*
X153543598Y-83979872D01*
X153549999Y-83920344D01*
X153550000Y-83920327D01*
X153550000Y-82535000D01*
X151650000Y-82535000D01*
X151650000Y-84372500D01*
X151150000Y-84372500D01*
X151150000Y-82535000D01*
X149250000Y-82535000D01*
X149250000Y-83920344D01*
X120000000Y-83920344D01*
X120000000Y-80624500D01*
X120019685Y-80557461D01*
X120072489Y-80511706D01*
X120124000Y-80500500D01*
X149127991Y-80500500D01*
X149195030Y-80520185D01*
G37*
%TD.AperFunction*%
%TD*%
%TA.AperFunction,Conductor*%
%TO.N,SW*%
G36*
X157943039Y-87419685D02*
G01*
X157988794Y-87472489D01*
X158000000Y-87524000D01*
X158000000Y-97676000D01*
X157980315Y-97743039D01*
X157927511Y-97788794D01*
X157876000Y-97800000D01*
X152777445Y-97800000D01*
X152710406Y-97780315D01*
X152664651Y-97727511D01*
X152654707Y-97658353D01*
X152671906Y-97610903D01*
X152759356Y-97469124D01*
X152759358Y-97469119D01*
X152814505Y-97302697D01*
X152814506Y-97302690D01*
X152824999Y-97199986D01*
X152825000Y-97199973D01*
X152825000Y-97150000D01*
X150375001Y-97150000D01*
X150375001Y-97199986D01*
X150385494Y-97302697D01*
X150440641Y-97469119D01*
X150440643Y-97469124D01*
X150528094Y-97610903D01*
X150546534Y-97678295D01*
X150525612Y-97744959D01*
X150471970Y-97789729D01*
X150422555Y-97800000D01*
X144924000Y-97800000D01*
X144856961Y-97780315D01*
X144811206Y-97727511D01*
X144800000Y-97676000D01*
X144800000Y-95350344D01*
X149250000Y-95350344D01*
X149256401Y-95409872D01*
X149256403Y-95409879D01*
X149306645Y-95544586D01*
X149306649Y-95544593D01*
X149392809Y-95659687D01*
X149392812Y-95659690D01*
X149507906Y-95745850D01*
X149507913Y-95745854D01*
X149642620Y-95796096D01*
X149642627Y-95796098D01*
X149702155Y-95802499D01*
X149702172Y-95802500D01*
X150633135Y-95802500D01*
X150700174Y-95822185D01*
X150745929Y-95874989D01*
X150755873Y-95944147D01*
X150726848Y-96007703D01*
X150698232Y-96032038D01*
X150656659Y-96057680D01*
X150656655Y-96057683D01*
X150532684Y-96181654D01*
X150440643Y-96330875D01*
X150440641Y-96330880D01*
X150385494Y-96497302D01*
X150385493Y-96497309D01*
X150375000Y-96600013D01*
X150375000Y-96650000D01*
X152824999Y-96650000D01*
X152824999Y-96600028D01*
X152824998Y-96600013D01*
X152814505Y-96497302D01*
X152759358Y-96330880D01*
X152759356Y-96330875D01*
X152667315Y-96181654D01*
X152543344Y-96057683D01*
X152543340Y-96057680D01*
X152501768Y-96032038D01*
X152455043Y-95980090D01*
X152443822Y-95911128D01*
X152471665Y-95847046D01*
X152529734Y-95808190D01*
X152566865Y-95802500D01*
X153097828Y-95802500D01*
X153097844Y-95802499D01*
X153157372Y-95796098D01*
X153157379Y-95796096D01*
X153292086Y-95745854D01*
X153292093Y-95745850D01*
X153407187Y-95659690D01*
X153407190Y-95659687D01*
X153493350Y-95544593D01*
X153493354Y-95544586D01*
X153543596Y-95409879D01*
X153543598Y-95409872D01*
X153549999Y-95350344D01*
X153550000Y-95350327D01*
X153550000Y-93965000D01*
X149250000Y-93965000D01*
X149250000Y-95350344D01*
X144800000Y-95350344D01*
X144800000Y-92079655D01*
X149250000Y-92079655D01*
X149250000Y-93465000D01*
X151150000Y-93465000D01*
X151650000Y-93465000D01*
X153550000Y-93465000D01*
X153550000Y-92079672D01*
X153549999Y-92079655D01*
X153543598Y-92020127D01*
X153543596Y-92020120D01*
X153493354Y-91885413D01*
X153493350Y-91885406D01*
X153407190Y-91770312D01*
X153407187Y-91770309D01*
X153292093Y-91684149D01*
X153292086Y-91684145D01*
X153157379Y-91633903D01*
X153157372Y-91633901D01*
X153097844Y-91627500D01*
X151650000Y-91627500D01*
X151650000Y-93465000D01*
X151150000Y-93465000D01*
X151150000Y-91627500D01*
X149702155Y-91627500D01*
X149642627Y-91633901D01*
X149642620Y-91633903D01*
X149507913Y-91684145D01*
X149507906Y-91684149D01*
X149392812Y-91770309D01*
X149392809Y-91770312D01*
X149306649Y-91885406D01*
X149306645Y-91885413D01*
X149256403Y-92020120D01*
X149256401Y-92020127D01*
X149250000Y-92079655D01*
X144800000Y-92079655D01*
X144800000Y-87524000D01*
X144819685Y-87456961D01*
X144872489Y-87411206D01*
X144924000Y-87400000D01*
X157876000Y-87400000D01*
X157943039Y-87419685D01*
G37*
%TD.AperFunction*%
%TD*%
%TA.AperFunction,Conductor*%
%TO.N,AC*%
G36*
X99800000Y-103600000D02*
G01*
X104876000Y-103600000D01*
X104943039Y-103619685D01*
X104988794Y-103672489D01*
X105000000Y-103724000D01*
X105000000Y-113000000D01*
X110800000Y-117400000D01*
X144354129Y-117400000D01*
X144421168Y-117419685D01*
X144434827Y-117429852D01*
X147156698Y-119762884D01*
X147194788Y-119821459D01*
X147200000Y-119857032D01*
X147200000Y-132600001D01*
X149399995Y-134199997D01*
X149399997Y-134199998D01*
X149400000Y-134200000D01*
X149800000Y-134400000D01*
X160191810Y-134400000D01*
X160258849Y-134419685D01*
X160279491Y-134436319D01*
X160304052Y-134460880D01*
X160438033Y-134550403D01*
X160512459Y-134581231D01*
X160586898Y-134612065D01*
X160744929Y-134643499D01*
X160744933Y-134643500D01*
X160744934Y-134643500D01*
X163255067Y-134643500D01*
X163255068Y-134643499D01*
X163413102Y-134612065D01*
X163487535Y-134581233D01*
X163561968Y-134550403D01*
X163695945Y-134460882D01*
X163695948Y-134460879D01*
X163720509Y-134436319D01*
X163781832Y-134402834D01*
X163808190Y-134400000D01*
X165191810Y-134400000D01*
X165258849Y-134419685D01*
X165279491Y-134436319D01*
X165304052Y-134460880D01*
X165438033Y-134550403D01*
X165512459Y-134581231D01*
X165586898Y-134612065D01*
X165744929Y-134643499D01*
X165744933Y-134643500D01*
X165744934Y-134643500D01*
X168255067Y-134643500D01*
X168255068Y-134643499D01*
X168413102Y-134612065D01*
X168487535Y-134581233D01*
X168561968Y-134550403D01*
X168695945Y-134460882D01*
X168695948Y-134460879D01*
X168720509Y-134436319D01*
X168781832Y-134402834D01*
X168808190Y-134400000D01*
X170191810Y-134400000D01*
X170258849Y-134419685D01*
X170279491Y-134436319D01*
X170304052Y-134460880D01*
X170438033Y-134550403D01*
X170512459Y-134581231D01*
X170586898Y-134612065D01*
X170744929Y-134643499D01*
X170744933Y-134643500D01*
X170744934Y-134643500D01*
X173255067Y-134643500D01*
X173255068Y-134643499D01*
X173413102Y-134612065D01*
X173487535Y-134581233D01*
X173561968Y-134550403D01*
X173695945Y-134460882D01*
X173695948Y-134460879D01*
X173720509Y-134436319D01*
X173781832Y-134402834D01*
X173808190Y-134400000D01*
X175191810Y-134400000D01*
X175258849Y-134419685D01*
X175279491Y-134436319D01*
X175304052Y-134460880D01*
X175438033Y-134550403D01*
X175512459Y-134581231D01*
X175586898Y-134612065D01*
X175744929Y-134643499D01*
X175744933Y-134643500D01*
X175744934Y-134643500D01*
X178255067Y-134643500D01*
X178255068Y-134643499D01*
X178413102Y-134612065D01*
X178487535Y-134581233D01*
X178561968Y-134550403D01*
X178695945Y-134460882D01*
X178695948Y-134460879D01*
X178720509Y-134436319D01*
X178781832Y-134402834D01*
X178808190Y-134400000D01*
X180191810Y-134400000D01*
X180258849Y-134419685D01*
X180279491Y-134436319D01*
X180304052Y-134460880D01*
X180438033Y-134550403D01*
X180512459Y-134581231D01*
X180586898Y-134612065D01*
X180744929Y-134643499D01*
X180744933Y-134643500D01*
X180744934Y-134643500D01*
X183255067Y-134643500D01*
X183255068Y-134643499D01*
X183413102Y-134612065D01*
X183487535Y-134581233D01*
X183561968Y-134550403D01*
X183695945Y-134460882D01*
X183695948Y-134460879D01*
X183720509Y-134436319D01*
X183781832Y-134402834D01*
X183808190Y-134400000D01*
X185191810Y-134400000D01*
X185258849Y-134419685D01*
X185279491Y-134436319D01*
X185304052Y-134460880D01*
X185438033Y-134550403D01*
X185512459Y-134581231D01*
X185586898Y-134612065D01*
X185744929Y-134643499D01*
X185744933Y-134643500D01*
X185744934Y-134643500D01*
X188255067Y-134643500D01*
X188255068Y-134643499D01*
X188413102Y-134612065D01*
X188487535Y-134581233D01*
X188561968Y-134550403D01*
X188695945Y-134460882D01*
X188695948Y-134460879D01*
X188720509Y-134436319D01*
X188781832Y-134402834D01*
X188808190Y-134400000D01*
X190191810Y-134400000D01*
X190258849Y-134419685D01*
X190279491Y-134436319D01*
X190304052Y-134460880D01*
X190438033Y-134550403D01*
X190512459Y-134581231D01*
X190586898Y-134612065D01*
X190744929Y-134643499D01*
X190744933Y-134643500D01*
X190744934Y-134643500D01*
X193255067Y-134643500D01*
X193255068Y-134643499D01*
X193413102Y-134612065D01*
X193487535Y-134581233D01*
X193561968Y-134550403D01*
X193695945Y-134460882D01*
X193695948Y-134460879D01*
X193720509Y-134436319D01*
X193781832Y-134402834D01*
X193808190Y-134400000D01*
X195191810Y-134400000D01*
X195258849Y-134419685D01*
X195279491Y-134436319D01*
X195304052Y-134460880D01*
X195438033Y-134550403D01*
X195512459Y-134581231D01*
X195586898Y-134612065D01*
X195744929Y-134643499D01*
X195744933Y-134643500D01*
X195744934Y-134643500D01*
X198255067Y-134643500D01*
X198255068Y-134643499D01*
X198413102Y-134612065D01*
X198487535Y-134581233D01*
X198561968Y-134550403D01*
X198695945Y-134460882D01*
X198695948Y-134460879D01*
X198720509Y-134436319D01*
X198781832Y-134402834D01*
X198808190Y-134400000D01*
X200191810Y-134400000D01*
X200258849Y-134419685D01*
X200279491Y-134436319D01*
X200304052Y-134460880D01*
X200438033Y-134550403D01*
X200512459Y-134581231D01*
X200586898Y-134612065D01*
X200744929Y-134643499D01*
X200744933Y-134643500D01*
X200744934Y-134643500D01*
X203255067Y-134643500D01*
X203255068Y-134643499D01*
X203413102Y-134612065D01*
X203487535Y-134581233D01*
X203561968Y-134550403D01*
X203695945Y-134460882D01*
X203695948Y-134460879D01*
X203720509Y-134436319D01*
X203781832Y-134402834D01*
X203808190Y-134400000D01*
X208276000Y-134400000D01*
X208343039Y-134419685D01*
X208388794Y-134472489D01*
X208400000Y-134524000D01*
X208400000Y-137676000D01*
X208380315Y-137743039D01*
X208327511Y-137788794D01*
X208276000Y-137800000D01*
X205164556Y-137800000D01*
X205099570Y-137780917D01*
X205099288Y-137781379D01*
X205097583Y-137780334D01*
X205097517Y-137780315D01*
X205097218Y-137780110D01*
X205095140Y-137778837D01*
X204935881Y-137697691D01*
X204935878Y-137697689D01*
X204765899Y-137642460D01*
X204648209Y-137623820D01*
X204589366Y-137614500D01*
X204410634Y-137614500D01*
X204351790Y-137623820D01*
X204234101Y-137642460D01*
X204234098Y-137642460D01*
X204064121Y-137697689D01*
X204064118Y-137697691D01*
X203904859Y-137778837D01*
X203900712Y-137781379D01*
X203899528Y-137779448D01*
X203842567Y-137799795D01*
X203835444Y-137800000D01*
X200164556Y-137800000D01*
X200099570Y-137780917D01*
X200099288Y-137781379D01*
X200097583Y-137780334D01*
X200097517Y-137780315D01*
X200097218Y-137780110D01*
X200095140Y-137778837D01*
X199935881Y-137697691D01*
X199935878Y-137697689D01*
X199765899Y-137642460D01*
X199648209Y-137623820D01*
X199589366Y-137614500D01*
X199410634Y-137614500D01*
X199351790Y-137623820D01*
X199234101Y-137642460D01*
X199234098Y-137642460D01*
X199064121Y-137697689D01*
X199064118Y-137697691D01*
X198904859Y-137778837D01*
X198900712Y-137781379D01*
X198899528Y-137779448D01*
X198842567Y-137799795D01*
X198835444Y-137800000D01*
X195164556Y-137800000D01*
X195099570Y-137780917D01*
X195099288Y-137781379D01*
X195097583Y-137780334D01*
X195097517Y-137780315D01*
X195097218Y-137780110D01*
X195095140Y-137778837D01*
X194935881Y-137697691D01*
X194935878Y-137697689D01*
X194765899Y-137642460D01*
X194648209Y-137623820D01*
X194589366Y-137614500D01*
X194410634Y-137614500D01*
X194351790Y-137623820D01*
X194234101Y-137642460D01*
X194234098Y-137642460D01*
X194064121Y-137697689D01*
X194064118Y-137697691D01*
X193904859Y-137778837D01*
X193900712Y-137781379D01*
X193899528Y-137779448D01*
X193842567Y-137799795D01*
X193835444Y-137800000D01*
X190164556Y-137800000D01*
X190099570Y-137780917D01*
X190099288Y-137781379D01*
X190097583Y-137780334D01*
X190097517Y-137780315D01*
X190097218Y-137780110D01*
X190095140Y-137778837D01*
X189935881Y-137697691D01*
X189935878Y-137697689D01*
X189765899Y-137642460D01*
X189648209Y-137623820D01*
X189589366Y-137614500D01*
X189410634Y-137614500D01*
X189351790Y-137623820D01*
X189234101Y-137642460D01*
X189234098Y-137642460D01*
X189064121Y-137697689D01*
X189064118Y-137697691D01*
X188904859Y-137778837D01*
X188900712Y-137781379D01*
X188899528Y-137779448D01*
X188842567Y-137799795D01*
X188835444Y-137800000D01*
X185164556Y-137800000D01*
X185099570Y-137780917D01*
X185099288Y-137781379D01*
X185097583Y-137780334D01*
X185097517Y-137780315D01*
X185097218Y-137780110D01*
X185095140Y-137778837D01*
X184935881Y-137697691D01*
X184935878Y-137697689D01*
X184765899Y-137642460D01*
X184648209Y-137623820D01*
X184589366Y-137614500D01*
X184410634Y-137614500D01*
X184351790Y-137623820D01*
X184234101Y-137642460D01*
X184234098Y-137642460D01*
X184064121Y-137697689D01*
X184064118Y-137697691D01*
X183904859Y-137778837D01*
X183900712Y-137781379D01*
X183899528Y-137779448D01*
X183842567Y-137799795D01*
X183835444Y-137800000D01*
X180164556Y-137800000D01*
X180099570Y-137780917D01*
X180099288Y-137781379D01*
X180097583Y-137780334D01*
X180097517Y-137780315D01*
X180097218Y-137780110D01*
X180095140Y-137778837D01*
X179935881Y-137697691D01*
X179935878Y-137697689D01*
X179765899Y-137642460D01*
X179648209Y-137623820D01*
X179589366Y-137614500D01*
X179410634Y-137614500D01*
X179351790Y-137623820D01*
X179234101Y-137642460D01*
X179234098Y-137642460D01*
X179064121Y-137697689D01*
X179064118Y-137697691D01*
X178904859Y-137778837D01*
X178900712Y-137781379D01*
X178899528Y-137779448D01*
X178842567Y-137799795D01*
X178835444Y-137800000D01*
X175164556Y-137800000D01*
X175099570Y-137780917D01*
X175099288Y-137781379D01*
X175097583Y-137780334D01*
X175097517Y-137780315D01*
X175097218Y-137780110D01*
X175095140Y-137778837D01*
X174935881Y-137697691D01*
X174935878Y-137697689D01*
X174765899Y-137642460D01*
X174648209Y-137623820D01*
X174589366Y-137614500D01*
X174410634Y-137614500D01*
X174351790Y-137623820D01*
X174234101Y-137642460D01*
X174234098Y-137642460D01*
X174064121Y-137697689D01*
X174064118Y-137697691D01*
X173904859Y-137778837D01*
X173900712Y-137781379D01*
X173899528Y-137779448D01*
X173842567Y-137799795D01*
X173835444Y-137800000D01*
X170164556Y-137800000D01*
X170099570Y-137780917D01*
X170099288Y-137781379D01*
X170097583Y-137780334D01*
X170097517Y-137780315D01*
X170097218Y-137780110D01*
X170095140Y-137778837D01*
X169935881Y-137697691D01*
X169935878Y-137697689D01*
X169765899Y-137642460D01*
X169648209Y-137623820D01*
X169589366Y-137614500D01*
X169410634Y-137614500D01*
X169351790Y-137623820D01*
X169234101Y-137642460D01*
X169234098Y-137642460D01*
X169064121Y-137697689D01*
X169064118Y-137697691D01*
X168904859Y-137778837D01*
X168900712Y-137781379D01*
X168899528Y-137779448D01*
X168842567Y-137799795D01*
X168835444Y-137800000D01*
X165164556Y-137800000D01*
X165099570Y-137780917D01*
X165099288Y-137781379D01*
X165097583Y-137780334D01*
X165097517Y-137780315D01*
X165097218Y-137780110D01*
X165095140Y-137778837D01*
X164935881Y-137697691D01*
X164935878Y-137697689D01*
X164765899Y-137642460D01*
X164648209Y-137623820D01*
X164589366Y-137614500D01*
X164410634Y-137614500D01*
X164351790Y-137623820D01*
X164234101Y-137642460D01*
X164234098Y-137642460D01*
X164064121Y-137697689D01*
X164064118Y-137697691D01*
X163904859Y-137778837D01*
X163900712Y-137781379D01*
X163899528Y-137779448D01*
X163842567Y-137799795D01*
X163835444Y-137800000D01*
X160164556Y-137800000D01*
X160099570Y-137780917D01*
X160099288Y-137781379D01*
X160097583Y-137780334D01*
X160097517Y-137780315D01*
X160097218Y-137780110D01*
X160095140Y-137778837D01*
X159935881Y-137697691D01*
X159935878Y-137697689D01*
X159765899Y-137642460D01*
X159648209Y-137623820D01*
X159589366Y-137614500D01*
X159410634Y-137614500D01*
X159351790Y-137623820D01*
X159234101Y-137642460D01*
X159234098Y-137642460D01*
X159064121Y-137697689D01*
X159064118Y-137697691D01*
X158904859Y-137778837D01*
X158900712Y-137781379D01*
X158899528Y-137779448D01*
X158842567Y-137799795D01*
X158835444Y-137800000D01*
X149438301Y-137800000D01*
X149371262Y-137780315D01*
X149368370Y-137778399D01*
X141254069Y-132236925D01*
X141209809Y-132182862D01*
X141200000Y-132134526D01*
X141200000Y-121400000D01*
X139400000Y-119600000D01*
X138926417Y-119600000D01*
X138896742Y-119596397D01*
X138651551Y-119535963D01*
X138471371Y-119514085D01*
X138351254Y-119499500D01*
X138351252Y-119499500D01*
X138265892Y-119499500D01*
X108559502Y-119499500D01*
X108492463Y-119479815D01*
X108469042Y-119460311D01*
X105678146Y-116483356D01*
X102633537Y-113235772D01*
X102602047Y-113173401D01*
X102600000Y-113150963D01*
X102600000Y-107800000D01*
X97724000Y-107800000D01*
X97656961Y-107780315D01*
X97611206Y-107727511D01*
X97600000Y-107676000D01*
X97600000Y-106404287D01*
X97619685Y-106337248D01*
X97672489Y-106291493D01*
X97741647Y-106281549D01*
X97798312Y-106305021D01*
X97882910Y-106368352D01*
X97882913Y-106368354D01*
X98017620Y-106418596D01*
X98017627Y-106418598D01*
X98077155Y-106424999D01*
X98077172Y-106425000D01*
X99025000Y-106425000D01*
X99525000Y-106425000D01*
X100472828Y-106425000D01*
X100472844Y-106424999D01*
X100532372Y-106418598D01*
X100532379Y-106418596D01*
X100667086Y-106368354D01*
X100667093Y-106368350D01*
X100782187Y-106282190D01*
X100782190Y-106282187D01*
X100868350Y-106167093D01*
X100868354Y-106167086D01*
X100918596Y-106032379D01*
X100918598Y-106032372D01*
X100924999Y-105972844D01*
X100925000Y-105972827D01*
X100925000Y-105500000D01*
X99525000Y-105500000D01*
X99525000Y-106425000D01*
X99025000Y-106425000D01*
X99025000Y-105000000D01*
X99525000Y-105000000D01*
X100925000Y-105000000D01*
X100925000Y-104527172D01*
X100924999Y-104527155D01*
X100918598Y-104467627D01*
X100918596Y-104467620D01*
X100868354Y-104332913D01*
X100868350Y-104332906D01*
X100782190Y-104217812D01*
X100782187Y-104217809D01*
X100667093Y-104131649D01*
X100667086Y-104131645D01*
X100532379Y-104081403D01*
X100532372Y-104081401D01*
X100472844Y-104075000D01*
X99525000Y-104075000D01*
X99525000Y-105000000D01*
X99025000Y-105000000D01*
X99025000Y-104075000D01*
X98077155Y-104075000D01*
X98017627Y-104081401D01*
X98017620Y-104081403D01*
X97882913Y-104131645D01*
X97882906Y-104131649D01*
X97798311Y-104194978D01*
X97732847Y-104219396D01*
X97664574Y-104204545D01*
X97615168Y-104155140D01*
X97600000Y-104095712D01*
X97600000Y-92200000D01*
X99800000Y-92200000D01*
X99800000Y-103600000D01*
G37*
%TD.AperFunction*%
%TD*%
%TA.AperFunction,Conductor*%
%TO.N,/Vin*%
G36*
X148940259Y-102936918D02*
G01*
X149038317Y-102973491D01*
X149038316Y-102973491D01*
X149045244Y-102974235D01*
X149097927Y-102979900D01*
X149773451Y-102979899D01*
X149840489Y-102999583D01*
X149886244Y-103052387D01*
X149897450Y-103103899D01*
X149897450Y-103276001D01*
X149877765Y-103343040D01*
X149824961Y-103388795D01*
X149773450Y-103400001D01*
X148654163Y-103400001D01*
X148654160Y-103400000D01*
X147850000Y-103400000D01*
X147850000Y-104000000D01*
X147800000Y-104000000D01*
X147800000Y-104193000D01*
X147800000Y-104591714D01*
X147780315Y-104658753D01*
X147727511Y-104704508D01*
X147658353Y-104714452D01*
X147610904Y-104697253D01*
X147519128Y-104640645D01*
X147519119Y-104640641D01*
X147352697Y-104585494D01*
X147352690Y-104585493D01*
X147249986Y-104575000D01*
X147200000Y-104575000D01*
X147200000Y-107024999D01*
X147249972Y-107024999D01*
X147249986Y-107024998D01*
X147352697Y-107014505D01*
X147519119Y-106959358D01*
X147519130Y-106959353D01*
X147610903Y-106902747D01*
X147678295Y-106884306D01*
X147744959Y-106905228D01*
X147789728Y-106958870D01*
X147800000Y-107008285D01*
X147800000Y-114475335D01*
X147780315Y-114542374D01*
X147727511Y-114588129D01*
X147675337Y-114599333D01*
X110523337Y-114400659D01*
X110456404Y-114380616D01*
X110410932Y-114327569D01*
X110400000Y-114276661D01*
X110400000Y-111400000D01*
X110047374Y-111400000D01*
X109980335Y-111380315D01*
X109934580Y-111327511D01*
X109924636Y-111258353D01*
X109931192Y-111232667D01*
X109968596Y-111132379D01*
X109968598Y-111132372D01*
X109974999Y-111072844D01*
X109975000Y-111072827D01*
X109975000Y-110600000D01*
X106675000Y-110600000D01*
X106675000Y-111072844D01*
X106681401Y-111132372D01*
X106681403Y-111132379D01*
X106718808Y-111232667D01*
X106723792Y-111302359D01*
X106690307Y-111363682D01*
X106628984Y-111397166D01*
X106602626Y-111400000D01*
X105629500Y-111400000D01*
X105562461Y-111380315D01*
X105516706Y-111327511D01*
X105505500Y-111276000D01*
X105505500Y-110264910D01*
X116700000Y-110264910D01*
X116700000Y-111262755D01*
X117851518Y-111262755D01*
X117840889Y-111281164D01*
X117800000Y-111433764D01*
X117800000Y-111591746D01*
X117840889Y-111744346D01*
X117851518Y-111762755D01*
X116700000Y-111762755D01*
X116700000Y-112760599D01*
X116706401Y-112820127D01*
X116706403Y-112820134D01*
X116756645Y-112954841D01*
X116756649Y-112954848D01*
X116842809Y-113069942D01*
X116842812Y-113069945D01*
X116957906Y-113156105D01*
X116957913Y-113156109D01*
X117092620Y-113206351D01*
X117092627Y-113206353D01*
X117152155Y-113212754D01*
X117152172Y-113212755D01*
X118150000Y-113212755D01*
X118150000Y-112061237D01*
X118168409Y-112071866D01*
X118321009Y-112112755D01*
X118478991Y-112112755D01*
X118631591Y-112071866D01*
X118650000Y-112061237D01*
X118650000Y-113212755D01*
X119647828Y-113212755D01*
X119647844Y-113212754D01*
X119707372Y-113206353D01*
X119707379Y-113206351D01*
X119842086Y-113156109D01*
X119842093Y-113156105D01*
X119957187Y-113069945D01*
X119957190Y-113069942D01*
X120043350Y-112954848D01*
X120043354Y-112954841D01*
X120093596Y-112820134D01*
X120093598Y-112820127D01*
X120099999Y-112760599D01*
X120100000Y-112760582D01*
X120100000Y-111762755D01*
X118948482Y-111762755D01*
X118959111Y-111744346D01*
X119000000Y-111591746D01*
X119000000Y-111433764D01*
X118959111Y-111281164D01*
X118948482Y-111262755D01*
X120100000Y-111262755D01*
X120100000Y-110264927D01*
X120099999Y-110264910D01*
X133500000Y-110264910D01*
X133500000Y-111262755D01*
X134651518Y-111262755D01*
X134640889Y-111281164D01*
X134600000Y-111433764D01*
X134600000Y-111591746D01*
X134640889Y-111744346D01*
X134651518Y-111762755D01*
X133500000Y-111762755D01*
X133500000Y-112760599D01*
X133506401Y-112820127D01*
X133506403Y-112820134D01*
X133556645Y-112954841D01*
X133556649Y-112954848D01*
X133642809Y-113069942D01*
X133642812Y-113069945D01*
X133757906Y-113156105D01*
X133757913Y-113156109D01*
X133892620Y-113206351D01*
X133892627Y-113206353D01*
X133952155Y-113212754D01*
X133952172Y-113212755D01*
X134950000Y-113212755D01*
X134950000Y-112061237D01*
X134968409Y-112071866D01*
X135121009Y-112112755D01*
X135278991Y-112112755D01*
X135431591Y-112071866D01*
X135450000Y-112061237D01*
X135450000Y-113212755D01*
X136447828Y-113212755D01*
X136447844Y-113212754D01*
X136507372Y-113206353D01*
X136507379Y-113206351D01*
X136642086Y-113156109D01*
X136642093Y-113156105D01*
X136757187Y-113069945D01*
X136757190Y-113069942D01*
X136843350Y-112954848D01*
X136843354Y-112954841D01*
X136893596Y-112820134D01*
X136893598Y-112820127D01*
X136899999Y-112760599D01*
X136900000Y-112760582D01*
X136900000Y-111762755D01*
X135748482Y-111762755D01*
X135759111Y-111744346D01*
X135800000Y-111591746D01*
X135800000Y-111433764D01*
X135759111Y-111281164D01*
X135748482Y-111262755D01*
X136900000Y-111262755D01*
X136900000Y-110264927D01*
X136899999Y-110264910D01*
X136893598Y-110205382D01*
X136893596Y-110205375D01*
X136843354Y-110070668D01*
X136843350Y-110070661D01*
X136757190Y-109955567D01*
X136757187Y-109955564D01*
X136642093Y-109869404D01*
X136642086Y-109869400D01*
X136507379Y-109819158D01*
X136507372Y-109819156D01*
X136447844Y-109812755D01*
X135450000Y-109812755D01*
X135450000Y-110964272D01*
X135431591Y-110953644D01*
X135278991Y-110912755D01*
X135121009Y-110912755D01*
X134968409Y-110953644D01*
X134950000Y-110964272D01*
X134950000Y-109812755D01*
X133952155Y-109812755D01*
X133892627Y-109819156D01*
X133892620Y-109819158D01*
X133757913Y-109869400D01*
X133757906Y-109869404D01*
X133642812Y-109955564D01*
X133642809Y-109955567D01*
X133556649Y-110070661D01*
X133556645Y-110070668D01*
X133506403Y-110205375D01*
X133506401Y-110205382D01*
X133500000Y-110264910D01*
X120099999Y-110264910D01*
X120093598Y-110205382D01*
X120093596Y-110205375D01*
X120043354Y-110070668D01*
X120043350Y-110070661D01*
X119957190Y-109955567D01*
X119957187Y-109955564D01*
X119842093Y-109869404D01*
X119842086Y-109869400D01*
X119707379Y-109819158D01*
X119707372Y-109819156D01*
X119647844Y-109812755D01*
X118650000Y-109812755D01*
X118650000Y-110964272D01*
X118631591Y-110953644D01*
X118478991Y-110912755D01*
X118321009Y-110912755D01*
X118168409Y-110953644D01*
X118150000Y-110964272D01*
X118150000Y-109812755D01*
X117152155Y-109812755D01*
X117092627Y-109819156D01*
X117092620Y-109819158D01*
X116957913Y-109869400D01*
X116957906Y-109869404D01*
X116842812Y-109955564D01*
X116842809Y-109955567D01*
X116756649Y-110070661D01*
X116756645Y-110070668D01*
X116706403Y-110205375D01*
X116706401Y-110205382D01*
X116700000Y-110264910D01*
X105505500Y-110264910D01*
X105505500Y-109627155D01*
X106675000Y-109627155D01*
X106675000Y-110100000D01*
X108075000Y-110100000D01*
X108575000Y-110100000D01*
X109975000Y-110100000D01*
X109975000Y-109627172D01*
X109974999Y-109627155D01*
X109968598Y-109567627D01*
X109968596Y-109567620D01*
X109918354Y-109432913D01*
X109918350Y-109432906D01*
X109832190Y-109317812D01*
X109832187Y-109317809D01*
X109717093Y-109231649D01*
X109717086Y-109231645D01*
X109582379Y-109181403D01*
X109582372Y-109181401D01*
X109522844Y-109175000D01*
X108575000Y-109175000D01*
X108575000Y-110100000D01*
X108075000Y-110100000D01*
X108075000Y-109175000D01*
X107127155Y-109175000D01*
X107067627Y-109181401D01*
X107067620Y-109181403D01*
X106932913Y-109231645D01*
X106932906Y-109231649D01*
X106817812Y-109317809D01*
X106817809Y-109317812D01*
X106731649Y-109432906D01*
X106731645Y-109432913D01*
X106681403Y-109567620D01*
X106681401Y-109567627D01*
X106675000Y-109627155D01*
X105505500Y-109627155D01*
X105505500Y-108324000D01*
X105525185Y-108256961D01*
X105577989Y-108211206D01*
X105629500Y-108200000D01*
X146200000Y-108200000D01*
X146200000Y-107069654D01*
X146219685Y-107002615D01*
X146272489Y-106956860D01*
X146341647Y-106946916D01*
X146376403Y-106957271D01*
X146380877Y-106959357D01*
X146547302Y-107014505D01*
X146547309Y-107014506D01*
X146650019Y-107024999D01*
X146699999Y-107024998D01*
X146700000Y-107024998D01*
X146700000Y-104575000D01*
X146699999Y-104574999D01*
X146650029Y-104575000D01*
X146650011Y-104575001D01*
X146547294Y-104585494D01*
X146545808Y-104585813D01*
X146544869Y-104585742D01*
X146540569Y-104586182D01*
X146540490Y-104585414D01*
X146476134Y-104580591D01*
X146420343Y-104538530D01*
X146396149Y-104472982D01*
X146407068Y-104413048D01*
X146465338Y-104285459D01*
X146485023Y-104218420D01*
X146485024Y-104218416D01*
X146501956Y-104100645D01*
X146530981Y-104037091D01*
X146589759Y-103999316D01*
X146659628Y-103999316D01*
X146689791Y-104012755D01*
X146805869Y-104084353D01*
X146805880Y-104084358D01*
X146972302Y-104139505D01*
X146972309Y-104139506D01*
X147075019Y-104149999D01*
X147349999Y-104149999D01*
X147350000Y-104149998D01*
X147350000Y-103053100D01*
X147369685Y-102986061D01*
X147422489Y-102940306D01*
X147474000Y-102929100D01*
X148896926Y-102929100D01*
X148940259Y-102936918D01*
G37*
%TD.AperFunction*%
%TD*%
M02*
