%TF.GenerationSoftware,KiCad,Pcbnew,8.0.9-8.0.9-0~ubuntu24.04.1*%
%TF.CreationDate,2025-04-16T22:09:28-06:00*%
%TF.ProjectId,Sprinkler_Controller_V2,53707269-6e6b-46c6-9572-5f436f6e7472,rev?*%
%TF.SameCoordinates,Original*%
%TF.FileFunction,Soldermask,Bot*%
%TF.FilePolarity,Negative*%
%FSLAX46Y46*%
G04 Gerber Fmt 4.6, Leading zero omitted, Abs format (unit mm)*
G04 Created by KiCad (PCBNEW 8.0.9-8.0.9-0~ubuntu24.04.1) date 2025-04-16 22:09:28*
%MOMM*%
%LPD*%
G01*
G04 APERTURE LIST*
%ADD10R,1.524000X1.524000*%
%ADD11C,1.524000*%
%ADD12R,1.700000X1.700000*%
%ADD13O,1.700000X1.700000*%
%ADD14C,2.133600*%
%ADD15R,2.600000X2.600000*%
%ADD16C,2.600000*%
G04 APERTURE END LIST*
D10*
%TO.C,U1*%
X164290000Y-110200000D03*
D11*
X166830000Y-110200000D03*
X169370000Y-110200000D03*
X171910000Y-110200000D03*
X174450000Y-110200000D03*
X176990000Y-110200000D03*
X179530000Y-110200000D03*
X182070000Y-110200000D03*
X184610000Y-110200000D03*
X187150000Y-110200000D03*
X189690000Y-110200000D03*
X192230000Y-110200000D03*
X194770000Y-110200000D03*
X197310000Y-110200000D03*
X199850000Y-110200000D03*
X199850000Y-84800000D03*
X197310000Y-84800000D03*
X194770000Y-84800000D03*
X192230000Y-84800000D03*
X189690000Y-84800000D03*
X187150000Y-84800000D03*
X184610000Y-84800000D03*
X182070000Y-84800000D03*
X179530000Y-84800000D03*
X176990000Y-84800000D03*
X174450000Y-84800000D03*
X171910000Y-84800000D03*
X169370000Y-84800000D03*
X166830000Y-84800000D03*
X164290000Y-84800000D03*
%TD*%
D12*
%TO.C,SW1*%
X102140000Y-87800000D03*
D13*
X99600000Y-87800000D03*
%TD*%
D14*
%TO.C,RV1*%
X150920000Y-107600000D03*
X153460000Y-107600000D03*
X156000000Y-107600000D03*
%TD*%
D15*
%TO.C,J2*%
X159000000Y-146500000D03*
D16*
X164000000Y-146500000D03*
X169000000Y-146500000D03*
X174000000Y-146500000D03*
X179000000Y-146500000D03*
X184000000Y-146500000D03*
X189000000Y-146500000D03*
X194000000Y-146500000D03*
X199000000Y-146500000D03*
X204000000Y-146500000D03*
X209000000Y-146500000D03*
%TD*%
D10*
%TO.C,C1*%
X118500000Y-110511800D03*
D11*
X118500000Y-105000000D03*
%TD*%
D10*
%TO.C,C2*%
X135200000Y-110761800D03*
D11*
X135200000Y-105250000D03*
%TD*%
D15*
%TO.C,J1*%
X102445000Y-94700000D03*
D16*
X102445000Y-99700000D03*
%TD*%
M02*
