%TF.GenerationSoftware,KiCad,Pcbnew,8.0.6-8.0.6-0~ubuntu24.04.1*%
%TF.CreationDate,2024-10-17T09:08:11-06:00*%
%TF.ProjectId,Sprinkler_Controller_V2,53707269-6e6b-46c6-9572-5f436f6e7472,rev?*%
%TF.SameCoordinates,Original*%
%TF.FileFunction,Copper,L2,Bot*%
%TF.FilePolarity,Positive*%
%FSLAX46Y46*%
G04 Gerber Fmt 4.6, Leading zero omitted, Abs format (unit mm)*
G04 Created by KiCad (PCBNEW 8.0.6-8.0.6-0~ubuntu24.04.1) date 2024-10-17 09:08:11*
%MOMM*%
%LPD*%
G01*
G04 APERTURE LIST*
%TA.AperFunction,ComponentPad*%
%ADD10R,1.524000X1.524000*%
%TD*%
%TA.AperFunction,ComponentPad*%
%ADD11C,1.524000*%
%TD*%
%TA.AperFunction,ComponentPad*%
%ADD12R,1.700000X1.700000*%
%TD*%
%TA.AperFunction,ComponentPad*%
%ADD13O,1.700000X1.700000*%
%TD*%
%TA.AperFunction,ComponentPad*%
%ADD14C,2.133600*%
%TD*%
%TA.AperFunction,ComponentPad*%
%ADD15R,2.600000X2.600000*%
%TD*%
%TA.AperFunction,ComponentPad*%
%ADD16C,2.600000*%
%TD*%
%TA.AperFunction,ComponentPad*%
%ADD17R,2.400000X2.400000*%
%TD*%
%TA.AperFunction,ComponentPad*%
%ADD18C,2.400000*%
%TD*%
%TA.AperFunction,ViaPad*%
%ADD19C,5.080000*%
%TD*%
%TA.AperFunction,ViaPad*%
%ADD20C,0.600000*%
%TD*%
%TA.AperFunction,ViaPad*%
%ADD21C,1.016000*%
%TD*%
%TA.AperFunction,ViaPad*%
%ADD22C,1.905000*%
%TD*%
%TA.AperFunction,Conductor*%
%ADD23C,0.381000*%
%TD*%
%TA.AperFunction,Conductor*%
%ADD24C,0.635000*%
%TD*%
%TA.AperFunction,Conductor*%
%ADD25C,0.508000*%
%TD*%
%TA.AperFunction,Conductor*%
%ADD26C,1.905000*%
%TD*%
G04 APERTURE END LIST*
D10*
%TO.P,U1,1,EN*%
%TO.N,unconnected-(U1-EN-Pad1)*%
X164290000Y-110200000D03*
D11*
%TO.P,U1,2,SENSOR_VP*%
%TO.N,unconnected-(U1-SENSOR_VP-Pad2)*%
X166830000Y-110200000D03*
%TO.P,U1,3,SENSOR_VN*%
%TO.N,unconnected-(U1-SENSOR_VN-Pad3)*%
X169370000Y-110200000D03*
%TO.P,U1,4,IO34*%
%TO.N,unconnected-(U1-IO34-Pad4)*%
X171910000Y-110200000D03*
%TO.P,U1,5,IO35*%
%TO.N,unconnected-(U1-IO35-Pad5)*%
X174450000Y-110200000D03*
%TO.P,U1,6,IO32*%
%TO.N,Net-(U1-IO32)*%
X176990000Y-110200000D03*
%TO.P,U1,7,IO33*%
%TO.N,Net-(U1-IO33)*%
X179530000Y-110200000D03*
%TO.P,U1,8,IO25*%
%TO.N,Net-(U1-IO25)*%
X182070000Y-110200000D03*
%TO.P,U1,9,IO26*%
%TO.N,Net-(U1-IO26)*%
X184610000Y-110200000D03*
%TO.P,U1,10,IO27*%
%TO.N,Net-(U1-IO27)*%
X187150000Y-110200000D03*
%TO.P,U1,11,IO14*%
%TO.N,Net-(U1-IO14)*%
X189690000Y-110200000D03*
%TO.P,U1,12,IO12*%
%TO.N,unconnected-(U1-IO12-Pad12)*%
X192230000Y-110200000D03*
%TO.P,U1,13,IO13*%
%TO.N,Net-(U1-IO13)*%
X194770000Y-110200000D03*
%TO.P,U1,14,GND*%
%TO.N,GND*%
X197310000Y-110200000D03*
%TO.P,U1,15,VIN*%
%TO.N,VCC*%
X199850000Y-110200000D03*
%TO.P,U1,16,3V3*%
%TO.N,unconnected-(U1-3V3-Pad16)*%
X199850000Y-84800000D03*
%TO.P,U1,17,GND*%
%TO.N,GND*%
X197310000Y-84800000D03*
%TO.P,U1,18,IO15*%
%TO.N,unconnected-(U1-IO15-Pad18)*%
X194770000Y-84800000D03*
%TO.P,U1,19,IO2*%
%TO.N,unconnected-(U1-IO2-Pad19)*%
X192230000Y-84800000D03*
%TO.P,U1,20,IO4*%
%TO.N,unconnected-(U1-IO4-Pad20)*%
X189690000Y-84800000D03*
%TO.P,U1,21,IO16*%
%TO.N,unconnected-(U1-IO16-Pad21)*%
X187150000Y-84800000D03*
%TO.P,U1,22,IO17*%
%TO.N,unconnected-(U1-IO17-Pad22)*%
X184610000Y-84800000D03*
%TO.P,U1,23,IO5*%
%TO.N,unconnected-(U1-IO5-Pad23)*%
X182070000Y-84800000D03*
%TO.P,U1,24,IO18*%
%TO.N,Net-(U1-IO18)*%
X179530000Y-84800000D03*
%TO.P,U1,25,IO19*%
%TO.N,Net-(U1-IO19)*%
X176990000Y-84800000D03*
%TO.P,U1,26,IO21*%
%TO.N,Net-(U1-IO21)*%
X174450000Y-84800000D03*
%TO.P,U1,27,RXD0/IO3*%
%TO.N,unconnected-(U1-RXD0{slash}IO3-Pad27)*%
X171910000Y-84800000D03*
%TO.P,U1,28,TXD0/IO1*%
%TO.N,unconnected-(U1-TXD0{slash}IO1-Pad28)*%
X169370000Y-84800000D03*
%TO.P,U1,29,IO22*%
%TO.N,unconnected-(U1-IO22-Pad29)*%
X166830000Y-84800000D03*
%TO.P,U1,30,IO23*%
%TO.N,unconnected-(U1-IO23-Pad30)*%
X164290000Y-84800000D03*
%TD*%
D12*
%TO.P,SW1,1,A*%
%TO.N,AC_to_SW*%
X102140000Y-87800000D03*
D13*
%TO.P,SW1,2,B*%
%TO.N,AC*%
X99600000Y-87800000D03*
%TD*%
D14*
%TO.P,RV1,1,1*%
%TO.N,GND*%
X150920000Y-107600000D03*
%TO.P,RV1,2,2*%
%TO.N,FB*%
X153460000Y-107600000D03*
%TO.P,RV1,3,3*%
%TO.N,Net-(C5-Pad1)*%
X156000000Y-107600000D03*
%TD*%
D15*
%TO.P,J2,1,Pin_1*%
%TO.N,Net-(J2-Pin_1)*%
X159000000Y-146500000D03*
D16*
%TO.P,J2,2,Pin_2*%
%TO.N,Net-(J2-Pin_2)*%
X164000000Y-146500000D03*
%TO.P,J2,3,Pin_3*%
%TO.N,Net-(J2-Pin_3)*%
X169000000Y-146500000D03*
%TO.P,J2,4,Pin_4*%
%TO.N,Net-(J2-Pin_4)*%
X174000000Y-146500000D03*
%TO.P,J2,5,Pin_5*%
%TO.N,Net-(J2-Pin_5)*%
X179000000Y-146500000D03*
%TO.P,J2,6,Pin_6*%
%TO.N,Net-(J2-Pin_6)*%
X184000000Y-146500000D03*
%TO.P,J2,7,Pin_7*%
%TO.N,Net-(J2-Pin_7)*%
X189000000Y-146500000D03*
%TO.P,J2,8,Pin_8*%
%TO.N,Net-(J2-Pin_8)*%
X194000000Y-146500000D03*
%TO.P,J2,9,Pin_9*%
%TO.N,Net-(J2-Pin_9)*%
X199000000Y-146500000D03*
%TO.P,J2,10,Pin_10*%
%TO.N,Net-(J2-Pin_10)*%
X204000000Y-146500000D03*
%TO.P,J2,11,Pin_11*%
%TO.N,GNDPWR*%
X209000000Y-146500000D03*
%TD*%
D17*
%TO.P,C1,1*%
%TO.N,/Vin*%
X118400000Y-111512755D03*
D18*
%TO.P,C1,2*%
%TO.N,GND*%
X118400000Y-104012755D03*
%TD*%
D17*
%TO.P,C2,1*%
%TO.N,/Vin*%
X135200000Y-111512755D03*
D18*
%TO.P,C2,2*%
%TO.N,GND*%
X135200000Y-104012755D03*
%TD*%
D15*
%TO.P,J1,1,Pin_1*%
%TO.N,AC_to_SW*%
X102445000Y-94700000D03*
D16*
%TO.P,J1,2,Pin_2*%
%TO.N,GNDPWR*%
X102445000Y-99700000D03*
%TD*%
D19*
%TO.N,*%
X100600000Y-83400000D03*
X143800000Y-148400000D03*
X209200000Y-124400000D03*
X100400000Y-116400000D03*
X209800000Y-83200000D03*
D20*
%TO.N,VCC*%
X128800000Y-84400000D03*
X157200000Y-100800000D03*
D21*
%TO.N,Net-(D3-A)*%
X174400000Y-127046000D03*
X162000000Y-127800000D03*
D20*
%TO.N,Net-(U1-IO21)*%
X175800000Y-115800000D03*
X172400000Y-113200000D03*
D21*
%TO.N,Net-(U1-IO14)*%
X187867000Y-114218000D03*
%TO.N,Net-(D5-A)*%
X170600000Y-128379500D03*
X173571500Y-122442927D03*
%TO.N,Net-(D6-A)*%
X178600000Y-129713000D03*
X171600000Y-122200000D03*
%TO.N,Net-(U1-IO33)*%
X187600000Y-117800000D03*
%TO.N,Net-(U1-IO32)*%
X190000000Y-120466500D03*
D20*
%TO.N,Net-(U1-IO18)*%
X191000000Y-109200000D03*
X194400000Y-114000000D03*
D21*
%TO.N,Net-(D8-A)*%
X199620255Y-123347424D03*
X187000000Y-128000000D03*
%TO.N,Net-(U1-IO25)*%
X200174999Y-116768389D03*
D20*
%TO.N,GND*%
X149600000Y-111600000D03*
X151200000Y-110800000D03*
X151000000Y-103000000D03*
X143400000Y-90000000D03*
X137800000Y-90000000D03*
X149600000Y-104600000D03*
X148800000Y-111600000D03*
X147800000Y-99200000D03*
X148600000Y-99200000D03*
X141000000Y-90000000D03*
X142600000Y-90000000D03*
X150400000Y-111600000D03*
X149600000Y-110800000D03*
X135400000Y-90000000D03*
X141800000Y-90000000D03*
X150400000Y-110800000D03*
X140200000Y-90000000D03*
X151000000Y-104600000D03*
X150000000Y-100000000D03*
X147600000Y-100000000D03*
X149400000Y-99200000D03*
X148400000Y-100000000D03*
X150200000Y-104600000D03*
X148800000Y-104600000D03*
X139400000Y-90000000D03*
X148800000Y-110800000D03*
X151200000Y-111600000D03*
X151000000Y-102000000D03*
X151000000Y-101000000D03*
X137000000Y-90000000D03*
X138600000Y-90000000D03*
X136200000Y-90000000D03*
X149200000Y-100000000D03*
D21*
%TO.N,Net-(D9-A)*%
X198968500Y-127000000D03*
X192000000Y-128200000D03*
%TO.N,Net-(D11-A)*%
X198388535Y-131389812D03*
X195400000Y-131133500D03*
%TO.N,Net-(D12-A)*%
X193800000Y-129800000D03*
X205800000Y-129800000D03*
D20*
%TO.N,SW*%
X148200000Y-97200000D03*
X144400000Y-102600000D03*
X148200000Y-96400000D03*
X145600000Y-102600000D03*
X145000000Y-102600000D03*
X148200000Y-95800000D03*
X147400000Y-97200000D03*
X147400000Y-95800000D03*
X146600000Y-96400000D03*
X146600000Y-95800000D03*
X147400000Y-96400000D03*
X144400000Y-103400000D03*
X145600000Y-103400000D03*
X145000000Y-103400000D03*
X146600000Y-97200000D03*
D22*
%TO.N,GNDPWR*%
X99000000Y-112400000D03*
%TD*%
D23*
%TO.N,VCC*%
X157200000Y-100800000D02*
X159600000Y-98400000D01*
X130200000Y-83000000D02*
X128800000Y-84400000D01*
X145000000Y-83000000D02*
X130200000Y-83000000D01*
X148000000Y-86000000D02*
X145000000Y-83000000D01*
X159600000Y-98400000D02*
X159600000Y-86000000D01*
X159600000Y-86000000D02*
X148000000Y-86000000D01*
D24*
%TO.N,Net-(D3-A)*%
X162754000Y-127046000D02*
X162000000Y-127800000D01*
X174400000Y-127046000D02*
X162754000Y-127046000D01*
%TO.N,Net-(U1-IO21)*%
X175015996Y-115015996D02*
X174215996Y-115015996D01*
X174215996Y-115015996D02*
X172400000Y-113200000D01*
X175800000Y-115800000D02*
X175015996Y-115015996D01*
%TO.N,Net-(U1-IO14)*%
X189690000Y-112395000D02*
X187867000Y-114218000D01*
X189690000Y-110200000D02*
X189690000Y-112395000D01*
%TO.N,Net-(D5-A)*%
X174952354Y-128379500D02*
X170600000Y-128379500D01*
X175733500Y-126493646D02*
X175733500Y-127598354D01*
X175733500Y-127598354D02*
X174952354Y-128379500D01*
X173571500Y-124331646D02*
X175733500Y-126493646D01*
X173571500Y-122442927D02*
X173571500Y-124331646D01*
%TO.N,Net-(D6-A)*%
X172690573Y-121109427D02*
X171600000Y-122200000D01*
X178600000Y-129713000D02*
X178600000Y-125585573D01*
X178600000Y-125585573D02*
X174123854Y-121109427D01*
X174123854Y-121109427D02*
X172690573Y-121109427D01*
%TO.N,Net-(U1-IO33)*%
X187600000Y-117800000D02*
X187130000Y-117800000D01*
X187130000Y-117800000D02*
X179530000Y-110200000D01*
%TO.N,Net-(U1-IO32)*%
X189934500Y-120532000D02*
X187532000Y-120532000D01*
X190000000Y-120466500D02*
X189934500Y-120532000D01*
X187532000Y-120532000D02*
X177200000Y-110200000D01*
X177200000Y-110200000D02*
X176990000Y-110200000D01*
D25*
%TO.N,Net-(U1-IO18)*%
X190906000Y-109294000D02*
X190906000Y-112106000D01*
X191000000Y-109200000D02*
X190906000Y-109294000D01*
X190906000Y-112106000D02*
X191000000Y-112200000D01*
D24*
X192800000Y-114000000D02*
X194400000Y-114000000D01*
X191000000Y-112200000D02*
X192800000Y-114000000D01*
%TO.N,Net-(D8-A)*%
X190200000Y-128000000D02*
X187000000Y-128000000D01*
X194852576Y-123347424D02*
X190200000Y-128000000D01*
X199620255Y-123347424D02*
X194852576Y-123347424D01*
%TO.N,Net-(U1-IO25)*%
X188270000Y-116400000D02*
X182070000Y-110200000D01*
X196632168Y-116400000D02*
X188270000Y-116400000D01*
X200174999Y-116768389D02*
X197000557Y-116768389D01*
X197000557Y-116768389D02*
X196632168Y-116400000D01*
%TO.N,Net-(D9-A)*%
X193000000Y-127200000D02*
X192000000Y-128200000D01*
X198768500Y-127200000D02*
X193000000Y-127200000D01*
X198968500Y-127000000D02*
X198768500Y-127200000D01*
%TO.N,Net-(D11-A)*%
X198132223Y-131133500D02*
X198388535Y-131389812D01*
X195400000Y-131133500D02*
X198132223Y-131133500D01*
%TO.N,Net-(D12-A)*%
X199400000Y-129800000D02*
X201200000Y-131600000D01*
X201200000Y-131600000D02*
X204000000Y-131600000D01*
X204000000Y-131600000D02*
X205800000Y-129800000D01*
X193800000Y-129800000D02*
X199400000Y-129800000D01*
D26*
%TO.N,GNDPWR*%
X209019000Y-146500000D02*
X209260000Y-146500000D01*
X99000000Y-103145000D02*
X99000000Y-112400000D01*
X148200000Y-133800000D02*
X144787146Y-130387146D01*
X209260000Y-146500000D02*
X209500000Y-146500000D01*
X196560000Y-133800000D02*
X148200000Y-133800000D01*
X144787146Y-130387146D02*
X144787146Y-123150305D01*
X102445000Y-99700000D02*
X99000000Y-103145000D01*
X102200000Y-112400000D02*
X99000000Y-112400000D01*
X209260000Y-146500000D02*
X196560000Y-133800000D01*
X139836841Y-118200000D02*
X108000000Y-118200000D01*
X108000000Y-118200000D02*
X102200000Y-112400000D01*
X144787146Y-123150305D02*
X139836841Y-118200000D01*
%TD*%
%TA.AperFunction,Conductor*%
%TO.N,SW*%
G36*
X148543039Y-95419685D02*
G01*
X148588794Y-95472489D01*
X148600000Y-95524000D01*
X148600000Y-97370500D01*
X148580315Y-97437539D01*
X148527511Y-97483294D01*
X148476000Y-97494500D01*
X148256349Y-97494500D01*
X148228013Y-97495295D01*
X148214111Y-97496076D01*
X148211865Y-97496265D01*
X148210402Y-97496389D01*
X148189598Y-97496389D01*
X148187873Y-97496243D01*
X148185888Y-97496076D01*
X148171986Y-97495295D01*
X148143651Y-97494500D01*
X148143647Y-97494500D01*
X147524000Y-97494500D01*
X147523991Y-97494500D01*
X147523990Y-97494501D01*
X147416549Y-97506052D01*
X147416537Y-97506054D01*
X147365027Y-97517260D01*
X147262502Y-97551383D01*
X147262496Y-97551386D01*
X147141462Y-97629171D01*
X147141451Y-97629179D01*
X147088659Y-97674923D01*
X146994433Y-97783664D01*
X146994430Y-97783668D01*
X146934664Y-97914534D01*
X146914976Y-97981582D01*
X146894500Y-98124001D01*
X146894500Y-99582464D01*
X146876776Y-99643987D01*
X146877231Y-99644206D01*
X146875942Y-99646880D01*
X146875496Y-99648432D01*
X146874211Y-99650476D01*
X146814630Y-99820750D01*
X146808972Y-99870973D01*
X146799065Y-99907451D01*
X146493625Y-100594693D01*
X146148752Y-101370658D01*
X146148748Y-101370669D01*
X146116198Y-101471019D01*
X146105510Y-101521385D01*
X146094500Y-101626316D01*
X146094500Y-101765240D01*
X146083385Y-101816552D01*
X146000001Y-101999996D01*
X146000000Y-102000002D01*
X146000000Y-103970500D01*
X145980315Y-104037539D01*
X145927511Y-104083294D01*
X145876000Y-104094500D01*
X144124000Y-104094500D01*
X144056961Y-104074815D01*
X144011206Y-104022011D01*
X144000000Y-103970500D01*
X144000000Y-102026315D01*
X144010687Y-101975954D01*
X144166082Y-101626316D01*
X144800000Y-100200000D01*
X144800000Y-95524000D01*
X144819685Y-95456961D01*
X144872489Y-95411206D01*
X144924000Y-95400000D01*
X148476000Y-95400000D01*
X148543039Y-95419685D01*
G37*
%TD.AperFunction*%
%TD*%
%TA.AperFunction,Conductor*%
%TO.N,GND*%
G36*
X161945689Y-80520185D02*
G01*
X161991444Y-80572989D01*
X162002648Y-80623725D01*
X162029185Y-84869754D01*
X162036249Y-86000000D01*
X162000000Y-86000000D01*
X162123403Y-99944584D01*
X162123404Y-99944680D01*
X162123404Y-99944750D01*
X162199220Y-112075225D01*
X162179954Y-112142386D01*
X162127437Y-112188470D01*
X162075222Y-112200000D01*
X158524000Y-112200000D01*
X158456961Y-112180315D01*
X158411206Y-112127511D01*
X158400000Y-112076000D01*
X158400000Y-104800000D01*
X158332435Y-100644785D01*
X160136735Y-98840486D01*
X160212356Y-98727311D01*
X160264445Y-98601557D01*
X160291000Y-98468057D01*
X160291000Y-98331943D01*
X160291000Y-85931942D01*
X160291000Y-85931939D01*
X160264446Y-85798448D01*
X160264445Y-85798447D01*
X160264445Y-85798443D01*
X160264443Y-85798438D01*
X160212359Y-85672695D01*
X160212352Y-85672682D01*
X160136734Y-85559513D01*
X160136731Y-85559509D01*
X160040490Y-85463268D01*
X160040486Y-85463265D01*
X159927317Y-85387647D01*
X159927304Y-85387640D01*
X159801561Y-85335556D01*
X159801551Y-85335553D01*
X159668060Y-85309000D01*
X159668058Y-85309000D01*
X158205074Y-85309000D01*
X158138035Y-85289315D01*
X158092280Y-85236511D01*
X158081090Y-85187016D01*
X158006935Y-80626516D01*
X158025527Y-80559165D01*
X158077581Y-80512558D01*
X158130919Y-80500500D01*
X161878650Y-80500500D01*
X161945689Y-80520185D01*
G37*
%TD.AperFunction*%
%TA.AperFunction,Conductor*%
G36*
X158852039Y-86710685D02*
G01*
X158897794Y-86763489D01*
X158909000Y-86815000D01*
X158909000Y-98062415D01*
X158889315Y-98129454D01*
X158872681Y-98150096D01*
X158301164Y-98721611D01*
X158107594Y-86817016D01*
X158126186Y-86749665D01*
X158178240Y-86703058D01*
X158231578Y-86691000D01*
X158785000Y-86691000D01*
X158852039Y-86710685D01*
G37*
%TD.AperFunction*%
%TD*%
%TA.AperFunction,Conductor*%
%TO.N,GND*%
G36*
X196929000Y-110250160D02*
G01*
X196954964Y-110347061D01*
X197005124Y-110433940D01*
X197076060Y-110504876D01*
X197162939Y-110555036D01*
X197259840Y-110581000D01*
X197282553Y-110581000D01*
X196611810Y-111251740D01*
X196676590Y-111297099D01*
X196676592Y-111297100D01*
X196819240Y-111363618D01*
X196871680Y-111409790D01*
X196890832Y-111476983D01*
X196870616Y-111543865D01*
X196817451Y-111589199D01*
X196766836Y-111600000D01*
X195924000Y-111600000D01*
X195856961Y-111580315D01*
X195811206Y-111527511D01*
X195800000Y-111476000D01*
X195800000Y-110969207D01*
X195819685Y-110902168D01*
X195822402Y-110898116D01*
X195867534Y-110833662D01*
X195927894Y-110704218D01*
X195974066Y-110651779D01*
X196041259Y-110632627D01*
X196108141Y-110652843D01*
X196152658Y-110704219D01*
X196212898Y-110833405D01*
X196212901Y-110833411D01*
X196258258Y-110898187D01*
X196258259Y-110898188D01*
X196929000Y-110227447D01*
X196929000Y-110250160D01*
G37*
%TD.AperFunction*%
%TA.AperFunction,Conductor*%
G36*
X198363681Y-110900129D02*
G01*
X198397166Y-110961452D01*
X198400000Y-110987810D01*
X198400000Y-111476000D01*
X198380315Y-111543039D01*
X198327511Y-111588794D01*
X198276000Y-111600000D01*
X197853164Y-111600000D01*
X197786125Y-111580315D01*
X197740370Y-111527511D01*
X197730426Y-111458353D01*
X197759451Y-111394797D01*
X197800760Y-111363618D01*
X197943407Y-111297100D01*
X197943417Y-111297094D01*
X198008188Y-111251741D01*
X197337448Y-110581000D01*
X197360160Y-110581000D01*
X197457061Y-110555036D01*
X197543940Y-110504876D01*
X197614876Y-110433940D01*
X197665036Y-110347061D01*
X197691000Y-110250160D01*
X197691000Y-110227448D01*
X198363681Y-110900129D01*
G37*
%TD.AperFunction*%
%TA.AperFunction,Conductor*%
G36*
X196929000Y-84850160D02*
G01*
X196954964Y-84947061D01*
X197005124Y-85033940D01*
X197076060Y-85104876D01*
X197162939Y-85155036D01*
X197259840Y-85181000D01*
X197282553Y-85181000D01*
X196611810Y-85851740D01*
X196676590Y-85897099D01*
X196676592Y-85897100D01*
X196876715Y-85990419D01*
X196876729Y-85990424D01*
X197090013Y-86047573D01*
X197090023Y-86047575D01*
X197309999Y-86066821D01*
X197310001Y-86066821D01*
X197529976Y-86047575D01*
X197529986Y-86047573D01*
X197743270Y-85990424D01*
X197743284Y-85990419D01*
X197943407Y-85897100D01*
X197943417Y-85897094D01*
X198008188Y-85851741D01*
X197337448Y-85181000D01*
X197360160Y-85181000D01*
X197457061Y-85155036D01*
X197543940Y-85104876D01*
X197614876Y-85033940D01*
X197665036Y-84947061D01*
X197691000Y-84850160D01*
X197691000Y-84827448D01*
X198363681Y-85500129D01*
X198397166Y-85561452D01*
X198400000Y-85587810D01*
X198400000Y-109412189D01*
X198380315Y-109479228D01*
X198363681Y-109499870D01*
X197691000Y-110172551D01*
X197691000Y-110149840D01*
X197665036Y-110052939D01*
X197614876Y-109966060D01*
X197543940Y-109895124D01*
X197457061Y-109844964D01*
X197360160Y-109819000D01*
X197337448Y-109819000D01*
X198008188Y-109148259D01*
X198008187Y-109148258D01*
X197943411Y-109102901D01*
X197943405Y-109102898D01*
X197743284Y-109009580D01*
X197743270Y-109009575D01*
X197529986Y-108952426D01*
X197529976Y-108952424D01*
X197310001Y-108933179D01*
X197309999Y-108933179D01*
X197090023Y-108952424D01*
X197090013Y-108952426D01*
X196876729Y-109009575D01*
X196876720Y-109009579D01*
X196676590Y-109102901D01*
X196611811Y-109148258D01*
X197282553Y-109819000D01*
X197259840Y-109819000D01*
X197162939Y-109844964D01*
X197076060Y-109895124D01*
X197005124Y-109966060D01*
X196954964Y-110052939D01*
X196929000Y-110149840D01*
X196929000Y-110172553D01*
X196258258Y-109501811D01*
X196212901Y-109566590D01*
X196152658Y-109695781D01*
X196106485Y-109748220D01*
X196039292Y-109767372D01*
X195972411Y-109747156D01*
X195927894Y-109695781D01*
X195920679Y-109680309D01*
X195867534Y-109566339D01*
X195859094Y-109554285D01*
X195822425Y-109501915D01*
X195800098Y-109435709D01*
X195800000Y-109430792D01*
X195800000Y-108600000D01*
X191583039Y-108600000D01*
X191516000Y-108580315D01*
X191505724Y-108572945D01*
X191502263Y-108570185D01*
X191502262Y-108570184D01*
X191434348Y-108527511D01*
X191349523Y-108474211D01*
X191179254Y-108414631D01*
X191179249Y-108414630D01*
X191000004Y-108394435D01*
X190999996Y-108394435D01*
X190820750Y-108414630D01*
X190820745Y-108414631D01*
X190650476Y-108474211D01*
X190497736Y-108570185D01*
X190494276Y-108572945D01*
X190429590Y-108599355D01*
X190416961Y-108600000D01*
X162322907Y-108600000D01*
X162255868Y-108580315D01*
X162210113Y-108527511D01*
X162198912Y-108477097D01*
X162000000Y-86000000D01*
X162036250Y-86000000D01*
X163874208Y-86000000D01*
X163906301Y-86004224D01*
X164069932Y-86048070D01*
X164227123Y-86061822D01*
X164289998Y-86067323D01*
X164290000Y-86067323D01*
X164290002Y-86067323D01*
X164345017Y-86062509D01*
X164510068Y-86048070D01*
X164673698Y-86004224D01*
X164705792Y-86000000D01*
X166414208Y-86000000D01*
X166446301Y-86004224D01*
X166609932Y-86048070D01*
X166767123Y-86061822D01*
X166829998Y-86067323D01*
X166830000Y-86067323D01*
X166830002Y-86067323D01*
X166885017Y-86062509D01*
X167050068Y-86048070D01*
X167213698Y-86004224D01*
X167245792Y-86000000D01*
X168954208Y-86000000D01*
X168986301Y-86004224D01*
X169149932Y-86048070D01*
X169307123Y-86061822D01*
X169369998Y-86067323D01*
X169370000Y-86067323D01*
X169370002Y-86067323D01*
X169425017Y-86062509D01*
X169590068Y-86048070D01*
X169753698Y-86004224D01*
X169785792Y-86000000D01*
X171494208Y-86000000D01*
X171526301Y-86004224D01*
X171689932Y-86048070D01*
X171847123Y-86061822D01*
X171909998Y-86067323D01*
X171910000Y-86067323D01*
X171910002Y-86067323D01*
X171965017Y-86062509D01*
X172130068Y-86048070D01*
X172293698Y-86004224D01*
X172325792Y-86000000D01*
X174034208Y-86000000D01*
X174066301Y-86004224D01*
X174229932Y-86048070D01*
X174387123Y-86061822D01*
X174449998Y-86067323D01*
X174450000Y-86067323D01*
X174450002Y-86067323D01*
X174505017Y-86062509D01*
X174670068Y-86048070D01*
X174833698Y-86004224D01*
X174865792Y-86000000D01*
X176574208Y-86000000D01*
X176606301Y-86004224D01*
X176769932Y-86048070D01*
X176927123Y-86061822D01*
X176989998Y-86067323D01*
X176990000Y-86067323D01*
X176990002Y-86067323D01*
X177045017Y-86062509D01*
X177210068Y-86048070D01*
X177373698Y-86004224D01*
X177405792Y-86000000D01*
X179114208Y-86000000D01*
X179146301Y-86004224D01*
X179309932Y-86048070D01*
X179467123Y-86061822D01*
X179529998Y-86067323D01*
X179530000Y-86067323D01*
X179530002Y-86067323D01*
X179585017Y-86062509D01*
X179750068Y-86048070D01*
X179913698Y-86004224D01*
X179945792Y-86000000D01*
X181654208Y-86000000D01*
X181686301Y-86004224D01*
X181849932Y-86048070D01*
X182007123Y-86061822D01*
X182069998Y-86067323D01*
X182070000Y-86067323D01*
X182070002Y-86067323D01*
X182125017Y-86062509D01*
X182290068Y-86048070D01*
X182453698Y-86004224D01*
X182485792Y-86000000D01*
X184194208Y-86000000D01*
X184226301Y-86004224D01*
X184389932Y-86048070D01*
X184547123Y-86061822D01*
X184609998Y-86067323D01*
X184610000Y-86067323D01*
X184610002Y-86067323D01*
X184665017Y-86062509D01*
X184830068Y-86048070D01*
X184993698Y-86004224D01*
X185025792Y-86000000D01*
X186734208Y-86000000D01*
X186766301Y-86004224D01*
X186929932Y-86048070D01*
X187087123Y-86061822D01*
X187149998Y-86067323D01*
X187150000Y-86067323D01*
X187150002Y-86067323D01*
X187205017Y-86062509D01*
X187370068Y-86048070D01*
X187533698Y-86004224D01*
X187565792Y-86000000D01*
X189274208Y-86000000D01*
X189306301Y-86004224D01*
X189469932Y-86048070D01*
X189627123Y-86061822D01*
X189689998Y-86067323D01*
X189690000Y-86067323D01*
X189690002Y-86067323D01*
X189745017Y-86062509D01*
X189910068Y-86048070D01*
X190073698Y-86004224D01*
X190105792Y-86000000D01*
X191814208Y-86000000D01*
X191846301Y-86004224D01*
X192009932Y-86048070D01*
X192167123Y-86061822D01*
X192229998Y-86067323D01*
X192230000Y-86067323D01*
X192230002Y-86067323D01*
X192285017Y-86062509D01*
X192450068Y-86048070D01*
X192613698Y-86004224D01*
X192645792Y-86000000D01*
X194354208Y-86000000D01*
X194386301Y-86004224D01*
X194549932Y-86048070D01*
X194707123Y-86061822D01*
X194769998Y-86067323D01*
X194770000Y-86067323D01*
X194770002Y-86067323D01*
X194825017Y-86062509D01*
X194990068Y-86048070D01*
X195153698Y-86004224D01*
X195185792Y-86000000D01*
X195800000Y-86000000D01*
X195800000Y-85569207D01*
X195819685Y-85502168D01*
X195822402Y-85498116D01*
X195867534Y-85433662D01*
X195927894Y-85304218D01*
X195974066Y-85251779D01*
X196041259Y-85232627D01*
X196108141Y-85252843D01*
X196152658Y-85304219D01*
X196212898Y-85433405D01*
X196212901Y-85433411D01*
X196258258Y-85498187D01*
X196258259Y-85498188D01*
X196929000Y-84827447D01*
X196929000Y-84850160D01*
G37*
%TD.AperFunction*%
%TA.AperFunction,Conductor*%
G36*
X196556499Y-83619685D02*
G01*
X196602254Y-83672489D01*
X196612988Y-83734809D01*
X196611811Y-83748258D01*
X197282553Y-84419000D01*
X197259840Y-84419000D01*
X197162939Y-84444964D01*
X197076060Y-84495124D01*
X197005124Y-84566060D01*
X196954964Y-84652939D01*
X196929000Y-84749840D01*
X196929000Y-84772553D01*
X196258258Y-84101811D01*
X196212901Y-84166590D01*
X196152658Y-84295781D01*
X196106485Y-84348220D01*
X196039292Y-84367372D01*
X195972411Y-84347156D01*
X195927894Y-84295781D01*
X195920679Y-84280309D01*
X195867534Y-84166339D01*
X195859094Y-84154285D01*
X195822425Y-84101915D01*
X195800098Y-84035709D01*
X195800000Y-84030792D01*
X195800000Y-83724000D01*
X195819685Y-83656961D01*
X195872489Y-83611206D01*
X195924000Y-83600000D01*
X196489460Y-83600000D01*
X196556499Y-83619685D01*
G37*
%TD.AperFunction*%
%TA.AperFunction,Conductor*%
G36*
X198343039Y-83619685D02*
G01*
X198388794Y-83672489D01*
X198400000Y-83724000D01*
X198400000Y-84012189D01*
X198380315Y-84079228D01*
X198363681Y-84099870D01*
X197691000Y-84772551D01*
X197691000Y-84749840D01*
X197665036Y-84652939D01*
X197614876Y-84566060D01*
X197543940Y-84495124D01*
X197457061Y-84444964D01*
X197360160Y-84419000D01*
X197337448Y-84419000D01*
X198008187Y-83748259D01*
X198007011Y-83734808D01*
X198020777Y-83666308D01*
X198069392Y-83616125D01*
X198130539Y-83600000D01*
X198276000Y-83600000D01*
X198343039Y-83619685D01*
G37*
%TD.AperFunction*%
%TD*%
%TA.AperFunction,Conductor*%
%TO.N,GND*%
G36*
X157943039Y-80520185D02*
G01*
X157988794Y-80572989D01*
X158000000Y-80624500D01*
X158000000Y-85185000D01*
X157980315Y-85252039D01*
X157927511Y-85297794D01*
X157876000Y-85309000D01*
X148337583Y-85309000D01*
X148270544Y-85289315D01*
X148249902Y-85272681D01*
X145440492Y-82463269D01*
X145440485Y-82463263D01*
X145327312Y-82387644D01*
X145327309Y-82387642D01*
X145201561Y-82335556D01*
X145201551Y-82335553D01*
X145068060Y-82309000D01*
X145068058Y-82309000D01*
X130131942Y-82309000D01*
X130131940Y-82309000D01*
X129998448Y-82335553D01*
X129998438Y-82335556D01*
X129872690Y-82387642D01*
X129872687Y-82387644D01*
X129759514Y-82463263D01*
X129759507Y-82463269D01*
X128621376Y-83601400D01*
X128574651Y-83630760D01*
X128450476Y-83674211D01*
X128450475Y-83674212D01*
X128297737Y-83770184D01*
X128170184Y-83897737D01*
X128074211Y-84050476D01*
X128014631Y-84220745D01*
X128014630Y-84220750D01*
X127994435Y-84399996D01*
X127994435Y-84400003D01*
X128014630Y-84579249D01*
X128014631Y-84579254D01*
X128074211Y-84749523D01*
X128170184Y-84902262D01*
X128297738Y-85029816D01*
X128450478Y-85125789D01*
X128619693Y-85185000D01*
X128620745Y-85185368D01*
X128620750Y-85185369D01*
X128799996Y-85205565D01*
X128800000Y-85205565D01*
X128800004Y-85205565D01*
X128979249Y-85185369D01*
X128979252Y-85185368D01*
X128979255Y-85185368D01*
X129149522Y-85125789D01*
X129302262Y-85029816D01*
X129429816Y-84902262D01*
X129525789Y-84749522D01*
X129569239Y-84625345D01*
X129598597Y-84578623D01*
X130449903Y-83727319D01*
X130511226Y-83693834D01*
X130537584Y-83691000D01*
X144662416Y-83691000D01*
X144729455Y-83710685D01*
X144750097Y-83727319D01*
X147463266Y-86440487D01*
X147559513Y-86536734D01*
X147559514Y-86536735D01*
X147672682Y-86612352D01*
X147672695Y-86612359D01*
X147798438Y-86664443D01*
X147798443Y-86664445D01*
X147798447Y-86664445D01*
X147798448Y-86664446D01*
X147931939Y-86691000D01*
X157876000Y-86691000D01*
X157943039Y-86710685D01*
X157988794Y-86763489D01*
X158000000Y-86815000D01*
X158000000Y-86876000D01*
X157980315Y-86943039D01*
X157927511Y-86988794D01*
X157876000Y-87000000D01*
X144200000Y-87000000D01*
X144200000Y-99976120D01*
X144191131Y-100022172D01*
X143565853Y-101585368D01*
X143400000Y-102000000D01*
X143400000Y-104600000D01*
X146600000Y-104600000D01*
X146600000Y-101626315D01*
X146610687Y-101575954D01*
X146955557Y-100799996D01*
X147400000Y-99800000D01*
X147400000Y-98124000D01*
X147419685Y-98056961D01*
X147472489Y-98011206D01*
X147524000Y-98000000D01*
X148143647Y-98000000D01*
X148157531Y-98000780D01*
X148199998Y-98005565D01*
X148200000Y-98005565D01*
X148200002Y-98005565D01*
X148242469Y-98000780D01*
X148256353Y-98000000D01*
X158289430Y-98000000D01*
X158289431Y-98000000D01*
X158301164Y-98721611D01*
X157021376Y-100001400D01*
X156974651Y-100030760D01*
X156850476Y-100074211D01*
X156850475Y-100074212D01*
X156697737Y-100170184D01*
X156570184Y-100297737D01*
X156474211Y-100450476D01*
X156414631Y-100620745D01*
X156414630Y-100620750D01*
X156394435Y-100799996D01*
X156394435Y-100800003D01*
X156414630Y-100979249D01*
X156414631Y-100979254D01*
X156474211Y-101149523D01*
X156570184Y-101302262D01*
X156697738Y-101429816D01*
X156850478Y-101525789D01*
X156993841Y-101575954D01*
X157020745Y-101585368D01*
X157020750Y-101585369D01*
X157199996Y-101605565D01*
X157200000Y-101605565D01*
X157200004Y-101605565D01*
X157379249Y-101585369D01*
X157379252Y-101585368D01*
X157379255Y-101585368D01*
X157549522Y-101525789D01*
X157702262Y-101429816D01*
X157829816Y-101302262D01*
X157925789Y-101149522D01*
X157969239Y-101025345D01*
X157998597Y-100978623D01*
X158332435Y-100644785D01*
X158400000Y-104800000D01*
X152000000Y-104800000D01*
X152000000Y-106202819D01*
X151980315Y-106269858D01*
X151927511Y-106315613D01*
X151858353Y-106325557D01*
X151811211Y-106308547D01*
X151633510Y-106199653D01*
X151405664Y-106105276D01*
X151165862Y-106047705D01*
X150920000Y-106028355D01*
X150674137Y-106047705D01*
X150434335Y-106105276D01*
X150206495Y-106199650D01*
X150206490Y-106199653D01*
X149999839Y-106326287D01*
X150547909Y-106874356D01*
X150534995Y-106879706D01*
X150401870Y-106968657D01*
X150288657Y-107081870D01*
X150199706Y-107214995D01*
X150194356Y-107227908D01*
X149646287Y-106679839D01*
X149519653Y-106886490D01*
X149519650Y-106886495D01*
X149425276Y-107114335D01*
X149367705Y-107354137D01*
X149348355Y-107600000D01*
X149367705Y-107845862D01*
X149425276Y-108085664D01*
X149519653Y-108313512D01*
X149646287Y-108520159D01*
X150194356Y-107972090D01*
X150199706Y-107985005D01*
X150288657Y-108118130D01*
X150401870Y-108231343D01*
X150534995Y-108320294D01*
X150547907Y-108325642D01*
X149999839Y-108873711D01*
X150206487Y-109000346D01*
X150434335Y-109094723D01*
X150674137Y-109152294D01*
X150920000Y-109171644D01*
X151165862Y-109152294D01*
X151405664Y-109094723D01*
X151633512Y-109000346D01*
X151811210Y-108891453D01*
X151878656Y-108873208D01*
X151945258Y-108894324D01*
X151989872Y-108948096D01*
X152000000Y-108997180D01*
X152000000Y-115876000D01*
X151980315Y-115943039D01*
X151927511Y-115988794D01*
X151876000Y-116000000D01*
X110442174Y-116000000D01*
X110375135Y-115980315D01*
X110366570Y-115974285D01*
X110325950Y-115943039D01*
X108538650Y-114568192D01*
X105248396Y-112037227D01*
X105207261Y-111980750D01*
X105200000Y-111938942D01*
X105200000Y-110264890D01*
X116699500Y-110264890D01*
X116699500Y-112760625D01*
X116699501Y-112760631D01*
X116705908Y-112820238D01*
X116756202Y-112955083D01*
X116756206Y-112955090D01*
X116842452Y-113070299D01*
X116842455Y-113070302D01*
X116957664Y-113156548D01*
X116957671Y-113156552D01*
X117092517Y-113206846D01*
X117092516Y-113206846D01*
X117099444Y-113207590D01*
X117152127Y-113213255D01*
X119647872Y-113213254D01*
X119707483Y-113206846D01*
X119842331Y-113156551D01*
X119957546Y-113070301D01*
X120043796Y-112955086D01*
X120094091Y-112820238D01*
X120100500Y-112760628D01*
X120100499Y-110264890D01*
X133499500Y-110264890D01*
X133499500Y-112760625D01*
X133499501Y-112760631D01*
X133505908Y-112820238D01*
X133556202Y-112955083D01*
X133556206Y-112955090D01*
X133642452Y-113070299D01*
X133642455Y-113070302D01*
X133757664Y-113156548D01*
X133757671Y-113156552D01*
X133892517Y-113206846D01*
X133892516Y-113206846D01*
X133899444Y-113207590D01*
X133952127Y-113213255D01*
X136447872Y-113213254D01*
X136507483Y-113206846D01*
X136642331Y-113156551D01*
X136757546Y-113070301D01*
X136843796Y-112955086D01*
X136894091Y-112820238D01*
X136900500Y-112760628D01*
X136900499Y-110264883D01*
X136894091Y-110205272D01*
X136843796Y-110070424D01*
X136843795Y-110070423D01*
X136843793Y-110070419D01*
X136757547Y-109955210D01*
X136757544Y-109955207D01*
X136642335Y-109868961D01*
X136642328Y-109868957D01*
X136507482Y-109818663D01*
X136507483Y-109818663D01*
X136447883Y-109812256D01*
X136447881Y-109812255D01*
X136447873Y-109812255D01*
X136447864Y-109812255D01*
X133952129Y-109812255D01*
X133952123Y-109812256D01*
X133892516Y-109818663D01*
X133757671Y-109868957D01*
X133757664Y-109868961D01*
X133642455Y-109955207D01*
X133642452Y-109955210D01*
X133556206Y-110070419D01*
X133556202Y-110070426D01*
X133505908Y-110205272D01*
X133499501Y-110264871D01*
X133499501Y-110264878D01*
X133499500Y-110264890D01*
X120100499Y-110264890D01*
X120100499Y-110264883D01*
X120094091Y-110205272D01*
X120043796Y-110070424D01*
X120043795Y-110070423D01*
X120043793Y-110070419D01*
X119957547Y-109955210D01*
X119957544Y-109955207D01*
X119842335Y-109868961D01*
X119842328Y-109868957D01*
X119707482Y-109818663D01*
X119707483Y-109818663D01*
X119647883Y-109812256D01*
X119647881Y-109812255D01*
X119647873Y-109812255D01*
X119647864Y-109812255D01*
X117152129Y-109812255D01*
X117152123Y-109812256D01*
X117092516Y-109818663D01*
X116957671Y-109868957D01*
X116957664Y-109868961D01*
X116842455Y-109955207D01*
X116842452Y-109955210D01*
X116756206Y-110070419D01*
X116756202Y-110070426D01*
X116705908Y-110205272D01*
X116699501Y-110264871D01*
X116699501Y-110264878D01*
X116699500Y-110264890D01*
X105200000Y-110264890D01*
X105200000Y-104012750D01*
X116695233Y-104012750D01*
X116695233Y-104012759D01*
X116714273Y-104266834D01*
X116770968Y-104515232D01*
X116770973Y-104515249D01*
X116864058Y-104752426D01*
X116864057Y-104752426D01*
X116991454Y-104973082D01*
X116991461Y-104973093D01*
X117033452Y-105025746D01*
X117033453Y-105025747D01*
X117835387Y-104223813D01*
X117840889Y-104244346D01*
X117919881Y-104381163D01*
X118031592Y-104492874D01*
X118168409Y-104571866D01*
X118188940Y-104577367D01*
X117386813Y-105379493D01*
X117547616Y-105489126D01*
X117547624Y-105489131D01*
X117777176Y-105599676D01*
X117777174Y-105599676D01*
X118020652Y-105674779D01*
X118020658Y-105674781D01*
X118272595Y-105712754D01*
X118272604Y-105712755D01*
X118527396Y-105712755D01*
X118527404Y-105712754D01*
X118779341Y-105674781D01*
X118779347Y-105674779D01*
X119022824Y-105599676D01*
X119252376Y-105489131D01*
X119252377Y-105489130D01*
X119413185Y-105379493D01*
X118611060Y-104577367D01*
X118631591Y-104571866D01*
X118768408Y-104492874D01*
X118880119Y-104381163D01*
X118959111Y-104244346D01*
X118964612Y-104223814D01*
X119766544Y-105025747D01*
X119766546Y-105025746D01*
X119808544Y-104973085D01*
X119935941Y-104752426D01*
X120029026Y-104515249D01*
X120029031Y-104515232D01*
X120085726Y-104266834D01*
X120104767Y-104012759D01*
X120104767Y-104012750D01*
X133495233Y-104012750D01*
X133495233Y-104012759D01*
X133514273Y-104266834D01*
X133570968Y-104515232D01*
X133570973Y-104515249D01*
X133664058Y-104752426D01*
X133664057Y-104752426D01*
X133791454Y-104973082D01*
X133791461Y-104973093D01*
X133833452Y-105025746D01*
X133833453Y-105025747D01*
X134635387Y-104223813D01*
X134640889Y-104244346D01*
X134719881Y-104381163D01*
X134831592Y-104492874D01*
X134968409Y-104571866D01*
X134988940Y-104577367D01*
X134186813Y-105379493D01*
X134347616Y-105489126D01*
X134347624Y-105489131D01*
X134577176Y-105599676D01*
X134577174Y-105599676D01*
X134820652Y-105674779D01*
X134820658Y-105674781D01*
X135072595Y-105712754D01*
X135072604Y-105712755D01*
X135327396Y-105712755D01*
X135327404Y-105712754D01*
X135579341Y-105674781D01*
X135579347Y-105674779D01*
X135822824Y-105599676D01*
X136052376Y-105489131D01*
X136052377Y-105489130D01*
X136213185Y-105379493D01*
X135411060Y-104577367D01*
X135431591Y-104571866D01*
X135568408Y-104492874D01*
X135680119Y-104381163D01*
X135759111Y-104244346D01*
X135764612Y-104223814D01*
X136566544Y-105025747D01*
X136566546Y-105025746D01*
X136608544Y-104973085D01*
X136735941Y-104752426D01*
X136829026Y-104515249D01*
X136829031Y-104515232D01*
X136885726Y-104266834D01*
X136904767Y-104012759D01*
X136904767Y-104012750D01*
X136885726Y-103758675D01*
X136829031Y-103510277D01*
X136829026Y-103510260D01*
X136735941Y-103273083D01*
X136735942Y-103273083D01*
X136608545Y-103052427D01*
X136566545Y-102999761D01*
X135764612Y-103801694D01*
X135759111Y-103781164D01*
X135680119Y-103644347D01*
X135568408Y-103532636D01*
X135431591Y-103453644D01*
X135411059Y-103448142D01*
X136213185Y-102646015D01*
X136052384Y-102536383D01*
X136052376Y-102536378D01*
X135822823Y-102425833D01*
X135822825Y-102425833D01*
X135579347Y-102350730D01*
X135579341Y-102350728D01*
X135327404Y-102312755D01*
X135072595Y-102312755D01*
X134820658Y-102350728D01*
X134820652Y-102350730D01*
X134577175Y-102425833D01*
X134347622Y-102536380D01*
X134347609Y-102536387D01*
X134186813Y-102646014D01*
X134988941Y-103448142D01*
X134968409Y-103453644D01*
X134831592Y-103532636D01*
X134719881Y-103644347D01*
X134640889Y-103781164D01*
X134635387Y-103801695D01*
X133833452Y-102999761D01*
X133791457Y-103052422D01*
X133664058Y-103273083D01*
X133570973Y-103510260D01*
X133570968Y-103510277D01*
X133514273Y-103758675D01*
X133495233Y-104012750D01*
X120104767Y-104012750D01*
X120085726Y-103758675D01*
X120029031Y-103510277D01*
X120029026Y-103510260D01*
X119935941Y-103273083D01*
X119935942Y-103273083D01*
X119808545Y-103052427D01*
X119766545Y-102999761D01*
X118964612Y-103801694D01*
X118959111Y-103781164D01*
X118880119Y-103644347D01*
X118768408Y-103532636D01*
X118631591Y-103453644D01*
X118611059Y-103448142D01*
X119413185Y-102646015D01*
X119252384Y-102536383D01*
X119252376Y-102536378D01*
X119022823Y-102425833D01*
X119022825Y-102425833D01*
X118779347Y-102350730D01*
X118779341Y-102350728D01*
X118527404Y-102312755D01*
X118272595Y-102312755D01*
X118020658Y-102350728D01*
X118020652Y-102350730D01*
X117777175Y-102425833D01*
X117547622Y-102536380D01*
X117547609Y-102536387D01*
X117386813Y-102646014D01*
X118188941Y-103448142D01*
X118168409Y-103453644D01*
X118031592Y-103532636D01*
X117919881Y-103644347D01*
X117840889Y-103781164D01*
X117835387Y-103801696D01*
X117033452Y-102999761D01*
X116991457Y-103052422D01*
X116864058Y-103273083D01*
X116770973Y-103510260D01*
X116770968Y-103510277D01*
X116714273Y-103758675D01*
X116695233Y-104012750D01*
X105200000Y-104012750D01*
X105200000Y-96676157D01*
X105219685Y-96609118D01*
X105255139Y-96573663D01*
X105255000Y-96573477D01*
X105256296Y-96572506D01*
X105256961Y-96571841D01*
X105258543Y-96570825D01*
X105311347Y-96525070D01*
X105405567Y-96416336D01*
X105465338Y-96285459D01*
X105485023Y-96218420D01*
X105485024Y-96218416D01*
X105505500Y-96076000D01*
X105505500Y-86324000D01*
X105493947Y-86216544D01*
X105482741Y-86165033D01*
X105482637Y-86164722D01*
X105448616Y-86062502D01*
X105448613Y-86062496D01*
X105370828Y-85941462D01*
X105370825Y-85941457D01*
X105346830Y-85913765D01*
X105325075Y-85888658D01*
X105325072Y-85888655D01*
X105325070Y-85888653D01*
X105295785Y-85863277D01*
X105242795Y-85817359D01*
X105205022Y-85758581D01*
X105200000Y-85723648D01*
X105200000Y-80624500D01*
X105219685Y-80557461D01*
X105272489Y-80511706D01*
X105324000Y-80500500D01*
X157876000Y-80500500D01*
X157943039Y-80520185D01*
G37*
%TD.AperFunction*%
%TD*%
%TA.AperFunction,Conductor*%
%TO.N,AC_to_SW*%
G36*
X104943039Y-86219685D02*
G01*
X104988794Y-86272489D01*
X105000000Y-86324000D01*
X105000000Y-96076000D01*
X104980315Y-96143039D01*
X104927511Y-96188794D01*
X104876000Y-96200000D01*
X104366686Y-96200000D01*
X104299647Y-96180315D01*
X104253892Y-96127511D01*
X104243397Y-96062743D01*
X104244999Y-96047841D01*
X104245000Y-96047827D01*
X104245000Y-94950000D01*
X103045001Y-94950000D01*
X103070021Y-94889598D01*
X103095000Y-94764019D01*
X103095000Y-94635981D01*
X103070021Y-94510402D01*
X103045001Y-94450000D01*
X104245000Y-94450000D01*
X104245000Y-93352172D01*
X104244999Y-93352155D01*
X104238598Y-93292627D01*
X104238596Y-93292620D01*
X104188354Y-93157913D01*
X104188350Y-93157906D01*
X104102190Y-93042812D01*
X104102187Y-93042809D01*
X103987093Y-92956649D01*
X103987086Y-92956645D01*
X103852379Y-92906403D01*
X103852372Y-92906401D01*
X103792844Y-92900000D01*
X102695000Y-92900000D01*
X102695000Y-94099998D01*
X102634598Y-94074979D01*
X102509019Y-94050000D01*
X102380981Y-94050000D01*
X102255402Y-94074979D01*
X102195000Y-94099998D01*
X102195000Y-92900000D01*
X101124000Y-92900000D01*
X101056961Y-92880315D01*
X101011206Y-92827511D01*
X101000000Y-92776000D01*
X101000000Y-89254076D01*
X101019685Y-89187037D01*
X101072489Y-89141282D01*
X101141647Y-89131338D01*
X101167338Y-89137896D01*
X101182621Y-89143597D01*
X101182627Y-89143598D01*
X101242155Y-89149999D01*
X101242172Y-89150000D01*
X101890000Y-89150000D01*
X101890000Y-88233012D01*
X101947007Y-88265925D01*
X102074174Y-88300000D01*
X102205826Y-88300000D01*
X102332993Y-88265925D01*
X102390000Y-88233012D01*
X102390000Y-89150000D01*
X103037828Y-89150000D01*
X103037844Y-89149999D01*
X103097372Y-89143598D01*
X103097379Y-89143596D01*
X103232086Y-89093354D01*
X103232093Y-89093350D01*
X103347187Y-89007190D01*
X103347190Y-89007187D01*
X103433350Y-88892093D01*
X103433354Y-88892086D01*
X103483596Y-88757379D01*
X103483598Y-88757372D01*
X103489999Y-88697844D01*
X103490000Y-88697827D01*
X103490000Y-88050000D01*
X102573012Y-88050000D01*
X102605925Y-87992993D01*
X102640000Y-87865826D01*
X102640000Y-87734174D01*
X102605925Y-87607007D01*
X102573012Y-87550000D01*
X103490000Y-87550000D01*
X103490000Y-86902172D01*
X103489999Y-86902155D01*
X103483598Y-86842627D01*
X103483596Y-86842620D01*
X103433354Y-86707913D01*
X103433350Y-86707906D01*
X103347190Y-86592812D01*
X103347187Y-86592809D01*
X103232093Y-86506649D01*
X103232086Y-86506645D01*
X103097379Y-86456403D01*
X103097372Y-86456401D01*
X103037844Y-86450000D01*
X102390000Y-86450000D01*
X102390000Y-87366988D01*
X102332993Y-87334075D01*
X102205826Y-87300000D01*
X102074174Y-87300000D01*
X101947007Y-87334075D01*
X101890000Y-87366988D01*
X101890000Y-86450000D01*
X101805248Y-86450000D01*
X101738209Y-86430315D01*
X101692454Y-86377511D01*
X101682510Y-86308353D01*
X101711535Y-86244797D01*
X101757792Y-86211440D01*
X101762621Y-86209439D01*
X101810076Y-86200000D01*
X104876000Y-86200000D01*
X104943039Y-86219685D01*
G37*
%TD.AperFunction*%
%TD*%
M02*
